<svg width="474" height="474" viewBox="0 0 474 474" fill="none" xmlns="http://www.w3.org/2000/svg">
<path d="M292.625 32.3125C296 33 296 33 298.5 34.5625C300.14 37.2277 300.575 38.9223 299.934 42.0156C298.241 45.6141 295.296 48.045 292.422 50.7266C288.373 54.5273 284.629 58.6861 281.43 63.2305C280.958 63.8144 280.486 64.3984 280 65C279.34 65 278.68 65 278 65C277.691 65.6187 277.381 66.2375 277.062 66.875C276.375 68.25 275.688 69.625 275 71C276.084 70.9895 277.168 70.9791 278.285 70.9683C282.331 70.9319 286.377 70.909 290.424 70.8901C292.17 70.8801 293.917 70.8665 295.664 70.8491C298.183 70.8247 300.703 70.8135 303.223 70.8047C303.996 70.7944 304.769 70.784 305.566 70.7734C311.22 70.7723 316.667 71.0673 321.188 74.8125C340.507 98.1293 349.897 120.225 350.562 150.438C350.583 151.371 350.604 152.304 350.626 153.265C351.818 209.459 351.098 265.718 350.594 321.916C350.563 325.412 350.533 328.908 350.503 332.403C350.456 337.94 350.403 343.476 350.347 349.012C350.327 351.041 350.308 353.071 350.291 355.1C350.206 364.877 350.044 374.643 349.578 384.41C349.545 385.171 349.511 385.932 349.477 386.716C348.571 403.654 340.602 419.633 328 431C316.067 439.865 303.915 441.147 289.494 441.161C288.247 441.166 287.001 441.171 285.717 441.176C282.311 441.188 278.906 441.196 275.501 441.2C273.366 441.203 271.232 441.207 269.097 441.212C262.4 441.225 255.702 441.235 249.004 441.239C241.31 441.243 233.616 441.261 225.921 441.29C219.95 441.312 213.978 441.322 208.007 441.323C204.452 441.324 200.897 441.33 197.342 441.348C193.365 441.368 189.389 441.363 185.412 441.356C184.258 441.366 183.103 441.375 181.914 441.384C168.102 441.315 155.121 438.799 144.313 429.75C143.549 428.842 142.786 427.935 142 427C141.386 426.303 140.773 425.605 140.141 424.887C124.373 406.304 123.929 385.904 123.684 362.656C123.663 360.937 123.642 359.218 123.62 357.499C123.564 352.816 123.515 348.132 123.467 343.449C123.437 340.48 123.406 337.511 123.374 334.542C123.008 299.541 122.892 264.541 122.877 229.538C122.875 225.735 122.871 221.933 122.867 218.13C122.825 172.665 122.825 172.665 123.272 150.378C123.303 148.762 123.331 147.147 123.353 145.531C123.713 121.289 131.649 101.841 147 83C148.274 81.3566 149.545 79.7108 150.813 78.0625C155.663 71.7694 155.663 71.7694 160 71C161.334 70.9404 162.672 70.9323 164.007 70.9672C165.188 70.9933 165.188 70.9933 166.393 71.02C167.676 71.056 167.676 71.056 168.984 71.0928C170.866 71.1358 172.748 71.1782 174.63 71.2202C175.626 71.2437 176.623 71.2673 177.65 71.2916C184.055 71.4316 190.46 71.5058 196.866 71.5914C202.487 71.6704 208.106 71.7726 213.726 71.9258C219.171 72.0729 224.613 72.1551 230.06 72.1945C232.127 72.2208 234.194 72.2703 236.26 72.3439C248.335 73.0826 248.335 73.0826 258.888 68.1688C262.007 65.0459 264.494 61.6252 267 58C268.208 56.5862 269.432 55.1846 270.688 53.8125C271.216 53.2015 271.745 52.5905 272.289 51.9609C275.103 48.7355 277.984 45.5706 280.871 42.4102C282.98 40.0838 282.98 40.0838 284.66 37.8086C287.284 34.3445 288.197 33.1522 292.625 32.3125ZM155 94C154.525 94.6649 154.05 95.3298 153.56 96.0149C152.389 97.6625 151.311 99.3426 150.25 101.062C149.872 101.666 149.493 102.27 149.103 102.892C141.426 115.263 138.093 126.864 137.697 141.462C137.677 142.186 137.657 142.911 137.637 143.658C137.572 146.12 137.516 148.581 137.461 151.043C137.44 151.925 137.42 152.806 137.399 153.715C136.801 180.193 136.708 206.681 136.659 233.165C136.642 241.904 136.608 250.643 136.552 259.382C136.514 265.625 136.494 271.868 136.489 278.111C136.485 281.807 136.473 285.502 136.441 289.198C136.405 293.276 136.409 297.353 136.417 301.431C136.392 303.241 136.392 303.241 136.367 305.087C136.209 311.729 136.209 311.729 139.42 317.217C141.485 318.644 143.262 319.871 145.594 320.766C146.232 321.016 146.87 321.266 147.527 321.523C148.178 321.763 148.829 322.003 149.5 322.25C150.151 322.505 150.802 322.76 151.473 323.023C163.848 327.773 179.463 327.918 191.93 323.391C197.252 320.98 202.253 318.149 207.22 315.091C209.059 313.964 210.914 312.867 212.773 311.773C217.464 309.008 217.464 309.008 222 306C222 305.34 222 304.68 222 304C222.866 303.752 223.733 303.505 224.625 303.25C228.024 302.149 228.024 302.149 230.727 300.117C234.305 297.803 237.765 296.32 241.75 294.875C242.462 294.616 243.175 294.356 243.909 294.089C266.713 285.975 291.718 287.875 313.734 297.602C320.688 300.927 326.881 304.798 332.988 309.496C334.715 311.1 334.715 311.1 336 311C337.229 304.302 337.141 297.671 337.129 290.877C337.131 289.564 337.133 288.25 337.135 286.897C337.139 283.3 337.138 279.704 337.134 276.107C337.132 272.305 337.134 268.504 337.136 264.702C337.138 258.292 337.135 251.881 337.13 245.47C337.125 238.15 337.127 230.831 337.132 223.511C337.137 217.169 337.137 210.827 337.135 204.485C337.133 200.724 337.133 196.963 337.136 193.203C337.148 178.234 337.08 163.266 336.728 148.301C336.696 146.895 336.669 145.489 336.646 144.083C336.448 132.275 334.872 121.518 329.312 111C328.967 110.329 328.622 109.658 328.266 108.967C324.961 102.677 321.226 96.7185 317 91C316.426 89.9724 315.852 88.9447 315.26 87.886C313.299 85.5793 312.197 85.0398 309.189 84.4312C305.414 84.1939 301.662 84.1537 297.882 84.176C296.426 84.163 294.97 84.1474 293.514 84.1296C289.566 84.0894 285.618 84.0877 281.669 84.0953C278.369 84.0985 275.069 84.0838 271.769 84.0694C263.98 84.0362 256.192 84.0348 248.403 84.053C240.377 84.0711 232.354 84.0342 224.329 83.9703C217.431 83.9173 210.533 83.8994 203.635 83.9092C199.519 83.9146 195.403 83.9068 191.287 83.865C187.413 83.8272 183.541 83.8332 179.667 83.8723C178.25 83.8793 176.832 83.8712 175.415 83.8464C165.295 83.6819 160.589 85.4495 155 94ZM222.625 320.438C212.123 327.152 201.898 333.082 190 337C189.281 337.246 188.561 337.492 187.82 337.746C172.894 341.957 155.952 338.816 141.758 333.427C141.051 333.159 140.343 332.891 139.614 332.615C139.081 332.412 138.549 332.209 138 332C137.949 339.007 137.914 346.014 137.89 353.021C137.88 355.398 137.867 357.776 137.849 360.154C137.34 388.216 137.34 388.216 149 413C149.33 413.99 149.66 414.98 150 416C151.617 417.533 151.617 417.533 153.625 418.938C154.277 419.421 154.93 419.904 155.602 420.402C171.661 431.1 191.621 428.1 210.159 427.615C230.493 427.084 250.634 427.029 270.952 427.882C280.867 428.267 290.678 428.194 300.562 427.25C301.289 427.188 302.016 427.127 302.765 427.063C310.613 426.19 316.855 423.081 322 417C322.33 416.01 322.66 415.02 323 414C323.99 413.67 324.98 413.34 326 413C337.808 398.401 336.56 378.248 336.556 360.513C336.563 356.912 336.617 353.313 336.674 349.713C336.683 347.401 336.689 345.089 336.691 342.777C336.724 341.18 336.724 341.18 336.757 339.551C336.698 333.205 335.69 329.403 331.679 324.434C329.795 322.825 328.422 322.393 326 322C326 321.34 326 320.68 326 320C325.34 320 324.68 320 324 320C324 319.34 324 318.68 324 318C288.67 296.69 256.831 298.451 222.625 320.438Z" fill="#038944"/>
<path d="M264.75 167.187C277.034 175.591 286.088 187.193 289 202C290.727 218.664 287.285 232.282 276.965 245.633C268.507 255.627 257.082 262.261 244 264C227.499 265.133 214 260.793 201.32 250.16C191.697 241.201 185.462 228.992 184.629 215.773C184.165 199.027 189.112 186.288 200.5 173.875C217.703 157.166 244.445 155.128 264.75 167.187ZM208.82 184.144C200.032 194.913 197.816 206.427 199 220C199.835 223.698 201.126 226.717 203 230C203.436 230.789 203.871 231.578 204.32 232.391C209.45 240.855 216.735 245.756 226 249C237.41 251.788 248.919 249.957 259 244C261.159 242.433 263.035 240.825 265 239C265 238.34 265 237.68 265 237C265.66 237 266.32 237 267 237C268.406 234.69 269.723 232.381 271 230C271.382 229.309 271.763 228.618 272.156 227.906C276.261 219.344 276.492 209.053 274.234 199.894C272.441 195.189 269.993 191.055 267 187C266.464 186.216 265.928 185.432 265.375 184.625C264.921 184.089 264.468 183.552 264 183C263.34 183 262.68 183 262 183C262 182.34 262 181.68 262 181C259.774 179.846 257.545 178.702 255.313 177.562C254.374 177.074 254.374 177.074 253.416 176.576C238.73 169.118 220.496 172.657 208.82 184.144Z" fill="#038944"/>
<path d="M332 401C334.36 403.36 334.491 404.779 335 408C334.381 408.433 333.762 408.866 333.125 409.312C330.78 410.997 330.78 410.997 329 414C327.162 415.444 325.282 416.835 323.375 418.188C322.372 418.903 321.369 419.618 320.336 420.355C319.565 420.898 318.794 421.441 318 422C318 421.01 318 420.02 318 419C319.011 418.196 320.021 417.391 321.062 416.562C326.217 412.428 328.94 406.748 332 401Z" fill="#038944"/>
<path d="M335 125C335.33 126.32 335.66 127.64 336 129C336.66 129 337.32 129 338 129C337.67 140.55 337.34 152.1 337 164C336.67 164 336.34 164 336 164C335.67 151.13 335.34 138.26 335 125Z" fill="#038944"/>
<path d="M296 32.9999C293.847 34.6748 291.773 36.1239 289.375 37.4374C286.875 38.7863 286.875 38.7863 286 41.1249C285.67 41.7436 285.34 42.3624 285 42.9999C282.375 43.7499 282.375 43.7499 280 43.9999C280.934 42.7268 281.873 41.4565 282.812 40.1874C283.335 39.4797 283.857 38.772 284.395 38.0428C288.161 33.2505 289.684 32.6424 296 32.9999Z" fill="#038944"/>
<path d="M317 429C317.33 429.66 317.66 430.32 318 431C319.32 430.34 320.64 429.68 322 429C322.33 429.99 322.66 430.98 323 432C323.66 432.33 324.32 432.66 325 433C319.727 436.223 319.727 436.223 318 437C317.34 436.67 316.68 436.34 316 436C315.957 434 315.959 432 316 430C316.33 429.67 316.66 429.34 317 429Z" fill="#038944"/>
<path d="M322 425C325.653 426.25 326.781 426.671 329 430C327.035 431.068 325.031 432.066 323 433C322.34 432.67 321.68 432.34 321 432C321.33 429.69 321.66 427.38 322 425ZM325 427C326 429 326 429 326 429L325 427Z" fill="#038944"/>
<path d="M250 293C243.375 296 243.375 296 240 296C239.67 296.99 239.34 297.98 239 299C233.25 300.125 233.25 300.125 231 299C232.561 298.206 234.124 297.415 235.688 296.625C236.993 295.964 236.993 295.964 238.324 295.289C246.085 291.55 246.085 291.55 250 293Z" fill="#038944"/>
<path d="M279 44C279 47.8472 277.702 50.5967 276 54C274.346 54.6966 272.677 55.361 271 56C269.515 56.99 269.515 56.99 268 58C269.578 54.2895 271.907 51.7009 274.625 48.75C275.442 47.858 276.26 46.9659 277.102 46.0469C277.728 45.3714 278.355 44.6959 279 44Z" fill="#038944"/>
<path d="M327 410C327.33 410.66 327.66 411.32 328 412C328.66 412 329.32 412 330 412C328.517 414.966 326.12 416.214 323.438 418.125C322.426 418.849 321.414 419.574 320.371 420.32C319.589 420.875 318.806 421.429 318 422C318 419 318 419 319.461 417.5C320.093 417.005 320.724 416.51 321.375 416C323.863 414.034 325.196 412.706 327 410Z" fill="#038944"/>
<path d="M298 36C298.66 36.33 299.32 36.66 300 37C299.631 43.4 299.631 43.4 296.438 46.4375C295.231 47.2109 295.231 47.2109 294 48C293.67 46.68 293.34 45.36 293 44C294.32 44 295.64 44 297 44C297 43.01 297 42.02 297 41C296.34 41 295.68 41 295 41C295.33 40.34 295.66 39.68 296 39C296.66 39.33 297.32 39.66 298 40C298 38.68 298 37.36 298 36Z" fill="#038944"/>
<path d="M141 330C142.65 330.33 144.3 330.66 146 331C145.67 331.66 145.34 332.32 145 333C148.465 334.485 148.465 334.485 152 336C148.292 337.236 147.325 336.568 143.812 335.062C142.911 334.682 142.01 334.302 141.082 333.91C140.395 333.61 139.708 333.309 139 333C139.66 332.67 140.32 332.34 141 332C141 331.34 141 330.68 141 330Z" fill="#038944"/>
<path d="M262 182C263.32 182 264.64 182 266 182C266 182.99 266 183.98 266 185C266.99 185.33 267.98 185.66 269 186C269 186.66 269 187.32 269 188C269.99 187.67 270.98 187.34 272 187C271.67 188.98 271.34 190.96 271 193C270.443 192.299 269.886 191.598 269.312 190.875C266.909 187.887 264.462 184.941 262 182Z" fill="#038944"/>
<path d="M150 97C150.99 97.33 151.98 97.66 153 98C151.35 100.64 149.7 103.28 148 106C147.34 105.01 146.68 104.02 146 103C146.998 100.007 147.752 99.0523 150 97Z" fill="#038944"/>
<path d="M326 320C332.75 322.75 332.75 322.75 335 325C334.625 327.125 334.625 327.125 334 329C332.624 327.71 331.292 326.373 330 325C330 324.34 330 323.68 330 323C328.68 322.67 327.36 322.34 326 322C326 321.34 326 320.68 326 320Z" fill="#038944"/>
<path d="M294.188 34.3124C295.58 34.6527 295.58 34.6527 297 34.9999C295.68 36.3199 294.36 37.6399 293 38.9999C292.34 38.6699 291.68 38.3399 291 37.9999C290.34 38.9899 289.68 39.9799 289 40.9999C288.312 39.1874 288.312 39.1874 288 36.9999C289.784 33.9567 290.654 33.966 294.188 34.3124Z" fill="#038944"/>
<path d="M138 421C138.66 421 139.32 421 140 421C140 421.66 140 422.32 140 423C140.66 423 141.32 423 142 423C142.33 422.34 142.66 421.68 143 421C143.731 422.977 144.394 424.981 145 427C144.67 427.66 144.34 428.32 144 429C142.997 427.857 141.998 426.71 141 425.562C140.443 424.924 139.886 424.286 139.312 423.629C138 422 138 422 138 421Z" fill="#038944"/>
<path d="M129 405C130.98 405.99 132.96 406.98 135 408C134.67 410.31 134.34 412.62 134 415C132 414 132 414 131.148 411.934C130.893 411.11 130.638 410.286 130.375 409.438C130.115 408.611 129.854 407.785 129.586 406.934C129.393 406.296 129.199 405.657 129 405Z" fill="#038944"/>
<path d="M335 125C335.33 126.32 335.66 127.64 336 129C336.66 129 337.32 129 338 129C337.67 132.96 337.34 136.92 337 141C336.67 141 336.34 141 336 141C335.67 135.72 335.34 130.44 335 125Z" fill="#038944"/>
<path d="M203 185C204.32 185.66 205.64 186.32 207 187C205.68 189.31 204.36 191.62 203 194C202.34 193.67 201.68 193.34 201 193C201.33 192.01 201.66 191.02 202 190C202.66 190 203.32 190 204 190C203.34 188.68 202.68 187.36 202 186C202.33 185.67 202.66 185.34 203 185Z" fill="#038944"/>
<path d="M155 89C155.99 89.33 156.98 89.66 158 90C156.68 92.31 155.36 94.62 154 97C153.34 95.68 152.68 94.36 152 93C152.99 91.68 153.98 90.36 155 89Z" fill="#038944"/>
<path d="M261 65C261.99 65.99 262.98 66.98 264 68C263.01 69.32 262.02 70.64 261 72C260.34 71.34 259.68 70.68 259 70C258.34 69.67 257.68 69.34 257 69C258.32 67.68 259.64 66.36 261 65Z" fill="#038944"/>
<path d="M326 101C326.66 102.32 327.32 103.64 328 105C328.66 105 329.32 105 330 105C329.67 106.65 329.34 108.3 329 110C326.989 107.44 325.372 104.954 324 102C324.66 101.67 325.32 101.34 326 101Z" fill="#038944"/>
<path d="M229 313C230.32 313.66 231.64 314.32 233 315C231.02 315.99 229.04 316.98 227 318C226.67 317.01 226.34 316.02 226 315C226.99 314.34 227.98 313.68 229 313Z" fill="#038944"/>
<path d="M192 238C192.66 238 193.32 238 194 238C194 238.66 194 239.32 194 240C195.32 240.33 196.64 240.66 198 241C198 242.65 198 244.3 198 246C193.125 241.375 193.125 241.375 192 238Z" fill="#038944"/>
<path d="M199 176C199.33 176.99 199.66 177.98 200 179C198.608 181.784 196.844 181.979 194 183C195.293 180.116 196.659 178.128 199 176Z" fill="#038944"/>
<path d="M267 171C268.875 171.312 268.875 171.312 271 172C271.66 172.99 272.32 173.98 273 175C270 175 270 175 267 174C267 173.01 267 172.02 267 171Z" fill="#038944"/>
<path d="M293 34C294.65 34 296.3 34 298 34C298 35.98 298 37.96 298 40C297.01 39.67 296.02 39.34 295 39C295 38.01 295 37.02 295 36C294.34 35.34 293.68 34.68 293 34Z" fill="#038944"/>
</svg>
