<svg width="500" height="500" viewBox="0 0 500 500" fill="none" xmlns="http://www.w3.org/2000/svg">
<path d="M225 58C231.85 58.04 238.7 58.11 245.55 58.21C247.88 58.24 250.21 58.26 252.54 58.27C255.89 58.29 259.24 58.34 262.6 58.39C263.63 58.39 264.67 58.39 265.74 58.39C271.96 58.52 276.02 59.13 281 63C281.92 64.9 281.92 64.9 282 67C282.07 67.88 282.14 68.75 282.21 69.66C282.24 70.64 282.28 71.63 282.32 72.64C282.36 73.71 282.4 74.78 282.44 75.88C282.48 76.99 282.52 78.11 282.56 79.25C282.61 80.38 282.65 81.5 282.69 82.66C282.8 85.44 282.9 88.22 283 91C283.66 91.33 284.32 91.66 285 92C288.43 94.29 288.88 95.14 290 99C290.5 102.38 290.5 102.38 290 106C288.62 107.58 288.62 107.58 286.94 109.19C284.54 111.64 284.02 112.62 283.82 116.11C284.1 119.11 284.47 122.04 285 125C285.78 125.29 286.57 125.58 287.38 125.88C290 127 290 127 292 129C292.66 129.33 293.32 129.66 294 130C295.69 131.64 297.35 133.31 299 135C299.8 135.76 300.61 136.53 301.44 137.31C306.79 142.92 310.65 148.88 314.19 155.75C314.52 156.38 314.85 157.01 315.2 157.66C321.67 170.63 321.45 183.82 321.4 197.96C321.4 200.08 321.4 202.2 321.41 204.32C321.41 208.75 321.41 213.17 321.39 217.59C321.37 223.25 321.38 228.92 321.4 234.58C321.41 238.95 321.41 243.32 321.4 247.69C321.4 249.78 321.4 251.87 321.41 253.95C321.42 256.87 321.4 259.78 321.39 262.7C321.39 263.55 321.4 264.41 321.41 265.29C321.35 270.36 320.5 273.48 318 278C318.65 280.7 318.65 280.7 320 283C321.47 287.41 321.22 291.7 321.25 296.31C321.28 297.72 321.28 297.72 321.31 299.15C321.34 304.63 320.87 308.19 318 313C318.26 316.07 318.79 316.79 321 319C321.24 321.26 321.24 321.26 321.23 324.05C321.23 325.06 321.23 326.07 321.22 327.11C321.21 328.17 321.2 329.22 321.19 330.31C321.19 331.88 321.19 331.88 321.19 333.48C321.13 342.91 321.13 342.91 320 347C319.34 347.33 318.68 347.66 318 348C318.57 350.87 318.86 351.86 321 354C321.19 356.45 321.26 358.78 321.24 361.23C321.24 361.98 321.25 362.72 321.25 363.49C321.25 365.96 321.24 368.43 321.23 370.9C321.23 372.61 321.23 374.33 321.23 376.04C321.23 379.64 321.22 383.23 321.21 386.83C321.19 391.44 321.18 396.05 321.19 400.66C321.19 404.2 321.18 407.74 321.17 411.28C321.17 412.98 321.17 414.68 321.17 416.38C321.16 418.76 321.16 421.13 321.15 423.51C321.15 424.21 321.15 424.91 321.15 425.64C321.11 431.94 321.11 431.94 320 435C318.48 436.45 318.48 436.45 316.62 437.69C315.72 438.31 315.72 438.31 314.79 438.95C311.51 440.88 308.79 441.13 305.07 441.13C303.55 441.13 303.55 441.13 301.99 441.14C300.88 441.13 299.76 441.13 298.62 441.13C297.44 441.13 296.27 441.13 295.06 441.13C291.84 441.14 288.62 441.14 285.39 441.13C282.02 441.13 278.65 441.13 275.28 441.14C269.62 441.14 263.96 441.14 258.3 441.13C251.75 441.12 245.21 441.13 238.66 441.13C233.04 441.14 227.43 441.14 221.81 441.13C218.45 441.13 215.1 441.13 211.74 441.14C208 441.14 204.26 441.13 200.51 441.13C199.4 441.13 198.29 441.13 197.14 441.14C196.12 441.13 195.1 441.13 194.05 441.13C193.17 441.13 192.29 441.13 191.37 441.13C188.12 440.95 185.81 440.7 183.32 438.53C177.61 430.95 178.18 422.96 178.31 413.93C178.31 412.27 178.31 410.62 178.31 408.96C178.32 405.51 178.34 402.06 178.38 398.61C178.43 394.19 178.45 389.78 178.44 385.36C178.44 381.95 178.46 378.54 178.48 375.13C178.49 373.5 178.5 371.88 178.5 370.25C178.51 367.97 178.53 365.7 178.56 363.42C178.58 362.13 178.59 360.84 178.6 359.51C179.03 355.73 180.26 353.34 182 350C181.32 347.04 180.35 344.7 179 342C178.9 340.49 178.87 338.97 178.87 337.46C178.87 336.55 178.86 335.64 178.86 334.7C178.87 333.75 178.87 332.79 178.88 331.81C178.87 330.88 178.87 329.94 178.86 328.98C178.87 324.98 178.97 321.22 179.57 317.26C180.06 313.58 179.57 310.67 179 307C178.8 303.48 178.77 299.96 178.75 296.44C178.73 295.52 178.71 294.6 178.69 293.65C178.66 288.22 179.23 284.81 182 280C181.35 278.69 180.67 277.4 179.95 276.13C178.94 273.86 178.74 272.4 178.73 269.94C178.72 269.14 178.72 268.34 178.71 267.51C178.71 266.21 178.71 266.21 178.71 264.88C178.7 263.96 178.7 263.03 178.69 262.08C178.67 259.03 178.67 255.97 178.66 252.92C178.66 250.78 178.65 248.65 178.64 246.52C178.63 242.04 178.63 237.56 178.63 233.08C178.63 227.37 178.6 221.67 178.57 215.97C178.55 211.55 178.54 207.14 178.54 202.73C178.54 200.63 178.53 198.53 178.52 196.43C178.36 172.51 183.51 153.96 200 136C201.86 134.14 203.72 132.64 205.81 131.06C206.48 130.56 207.15 130.05 207.83 129.54C210 128 210 128 212.68 126.73C215.3 125.14 215.3 125.14 215.93 121.86C216.12 120.11 216.12 120.11 216.31 118.31C216.45 117.13 216.59 115.95 216.74 114.74C216.82 113.83 216.91 112.93 217 112C216.06 111.55 216.06 111.55 215.11 111.1C212.38 109.68 211.41 108.76 210 106C209.76 102.98 209.83 100.02 210 97C210.66 97 211.32 97 212 97C212.33 96.01 212.66 95.02 213 94C213.66 93.34 214.32 92.68 215 92C216.15 89.69 216.17 88.24 216.25 85.68C216.28 84.81 216.31 83.95 216.35 83.06C216.41 81.25 216.46 79.44 216.52 77.63C216.72 72.43 217.12 67.87 219 63C222.12 60.62 222.12 60.62 225 59C225 58.67 225 58.34 225 58ZM228 70C228 77.26 228 84.52 228 92C242.52 92 257.04 92 272 92C272 85.07 272 78.14 272 71C269.3 68.3 267.21 68.76 263.55 68.75C262.66 68.75 261.78 68.76 260.87 68.77C259.51 68.77 259.51 68.77 258.13 68.77C256.22 68.77 254.3 68.78 252.39 68.79C249.45 68.81 246.51 68.81 243.56 68.81C241.71 68.82 239.85 68.83 238 68.83C237.11 68.83 236.23 68.83 235.31 68.84C231.34 68.47 231.34 68.47 228 70ZM221 102C222.32 102.66 223.64 103.32 225 104C225.66 103.67 226.32 103.34 227 103C226.67 103.99 226.34 104.98 226 106C225.96 107.56 225.99 109.12 226.04 110.68C226.07 112.04 226.07 112.04 226.11 113.44C226.16 115.34 226.23 117.25 226.3 119.15C226.41 124.98 226.07 128.48 222 133C219.55 134.98 219.55 134.98 216.88 136.75C201.31 147.71 192.97 161.15 189.25 179.75C188.94 183.84 188.92 187.9 189 192C190.22 192.42 190.22 192.42 191.46 192.85C199.38 195.72 206.04 199.29 213 204C220.17 208.61 227.94 209.3 236.32 207.5C241.14 205.83 245.09 203.26 249 200C249 199.01 249 198.02 249 197C249.97 196.9 250.94 196.79 251.94 196.69C254.87 196.29 257.32 195.53 260.06 194.44C269.02 191.36 278.66 192.08 287.33 195.65C291.24 197.63 294.88 199.94 298.49 202.41C303.08 205.35 303.08 205.35 308.31 205.62C308.87 205.42 309.43 205.21 310 205C310.33 205.99 310.66 206.98 311 208C311.06 204.06 311.09 200.13 311.12 196.19C311.15 194.54 311.15 194.54 311.18 192.85C311.28 175.43 306.84 158.92 294.87 145.72C291.44 142.56 287.67 139.85 283.9 137.11C275.66 131.11 275.66 131.11 274 127C273.56 123.51 273.63 120.01 273.62 116.5C273.6 115.55 273.58 114.6 273.55 113.62C273.55 112.7 273.54 111.79 273.54 110.84C273.53 110.01 273.52 109.18 273.51 108.32C274 106 274 106 278 102C259.19 102 240.38 102 221 102ZM189 203C188.93 211.39 188.88 219.78 188.84 228.17C188.83 232.06 188.81 235.96 188.77 239.85C188.74 243.61 188.72 247.37 188.72 251.13C188.71 252.57 188.7 254 188.68 255.43C188.66 257.44 188.66 259.45 188.66 261.47C188.65 262.61 188.65 263.75 188.64 264.93C189.05 268.39 189.88 270.26 192 273C194.86 273.95 196.61 274.12 199.57 274.12C200.98 274.12 200.98 274.12 202.42 274.12C203.44 274.12 204.47 274.12 205.53 274.11C206.61 274.11 207.7 274.11 208.81 274.11C212.4 274.11 215.99 274.11 219.57 274.1C222.06 274.1 224.54 274.09 227.03 274.09C232.9 274.09 238.78 274.08 244.65 274.07C252 274.06 259.34 274.05 266.69 274.05C279.79 274.04 292.9 274.02 306 274C306 273.01 306 272.02 306 271C307.49 271.5 307.49 271.5 309 272C310.84 268.86 311.25 266.58 311.23 262.96C311.23 261.96 311.23 260.95 311.23 259.92C311.22 258.85 311.21 257.78 311.2 256.67C311.19 255.02 311.19 255.02 311.19 253.33C311.18 249.8 311.15 246.28 311.12 242.75C311.11 240.36 311.11 237.97 311.1 235.58C311.08 229.72 311.04 223.86 311 218C309.68 218.33 308.36 218.66 307 219C307.99 219 308.98 219 310 219C308.68 219.33 307.36 219.66 306 220C306 219.01 306 218.02 306 217C305.48 216.79 304.96 216.58 304.42 216.37C299.77 214.43 295.59 212.19 291.38 209.44C282.48 203.72 275.66 201.75 265 203C260.28 204.51 256.42 207.05 252.33 209.79C242.37 216.41 233.08 219.39 221.16 217.57C213.27 215.93 207.58 212.5 201 208C197.08 205.85 193.24 204.39 189 203ZM190 287C188.91 290.27 188.76 292.87 188.69 296.31C188.65 297.42 188.61 298.53 188.57 299.68C189.13 304 190.01 305.79 193 309C196.6 309.92 200.15 309.82 203.86 309.78C204.96 309.79 206.07 309.8 207.21 309.81C210.87 309.83 214.53 309.82 218.19 309.8C220.73 309.8 223.27 309.81 225.81 309.81C231.14 309.82 236.46 309.81 241.79 309.78C247.94 309.75 254.1 309.76 260.25 309.79C266.18 309.82 272.1 309.82 278.03 309.8C280.55 309.8 283.07 309.8 285.59 309.82C289.11 309.83 292.62 309.81 296.14 309.78C297.19 309.79 298.24 309.8 299.31 309.81C302.01 309.77 304.39 309.67 307 309C310.76 304.96 311.53 301.89 311.44 296.44C311.44 295.34 311.43 294.25 311.43 293.12C310.92 289.4 309.68 286.68 307 284C305.53 283.9 304.05 283.86 302.57 283.86C301.62 283.85 300.66 283.85 299.67 283.84C298.09 283.84 298.09 283.84 296.47 283.84C295.36 283.83 294.25 283.83 293.11 283.82C289.43 283.81 285.75 283.8 282.07 283.8C279.52 283.79 276.98 283.79 274.43 283.78C269.76 283.77 265.1 283.76 260.44 283.76C253.57 283.76 246.7 283.74 239.83 283.71C233.88 283.69 227.94 283.68 221.99 283.68C219.46 283.67 216.93 283.67 214.4 283.65C210.86 283.64 207.33 283.64 203.79 283.64C202.74 283.63 201.68 283.63 200.6 283.62C199.15 283.62 199.15 283.62 197.68 283.63C196.43 283.63 196.43 283.63 195.15 283.63C192.48 284.09 191.63 284.87 190 287ZM180 309C181 311 181 311 181 311L180 309ZM182 313C183 315 183 315 183 315L182 313ZM190.35 321.85C188.87 325.31 188.46 327.74 188.5 331.5C188.49 332.58 188.48 333.67 188.47 334.78C189.16 338.99 190.07 340.85 193 344C196.61 344.91 200.17 344.79 203.87 344.73C204.98 344.73 206.09 344.74 207.23 344.75C210.89 344.76 214.56 344.73 218.22 344.69C220.77 344.69 223.31 344.69 225.85 344.69C231.18 344.68 236.51 344.66 241.84 344.62C248.01 344.57 254.17 344.55 260.33 344.56C266.26 344.56 272.19 344.54 278.12 344.52C280.65 344.51 283.17 344.5 285.69 344.5C289.21 344.49 292.74 344.47 296.26 344.44C297.31 344.44 298.36 344.44 299.44 344.44C300.39 344.43 301.35 344.41 302.34 344.4C303.59 344.39 303.59 344.39 304.86 344.39C307.52 343.91 308.38 343.12 310 341C311.09 337.73 311.24 335.13 311.31 331.69C311.35 330.58 311.39 329.47 311.43 328.32C310.87 324 309.99 322.21 307 319C303.4 318.08 299.85 318.18 296.14 318.22C295.04 318.21 293.93 318.2 292.79 318.19C289.13 318.17 285.47 318.18 281.81 318.2C279.27 318.2 276.73 318.19 274.19 318.19C268.86 318.18 263.54 318.19 258.21 318.22C252.06 318.25 245.9 318.24 239.75 318.21C233.82 318.18 227.9 318.18 221.97 318.2C219.45 318.2 216.93 318.2 214.41 318.18C210.89 318.17 207.38 318.19 203.86 318.22C202.81 318.21 201.76 318.2 200.69 318.19C194.79 318.2 194.79 318.2 190.35 321.85ZM190 357C188.88 360.35 188.85 362.9 188.82 366.43C188.82 367.07 188.81 367.72 188.8 368.39C188.78 370.53 188.77 372.67 188.76 374.81C188.76 375.54 188.75 376.27 188.75 377.03C188.73 380.89 188.71 384.76 188.7 388.63C188.69 392.63 188.66 396.62 188.62 400.62C188.59 403.69 188.59 406.77 188.58 409.84C188.58 411.31 188.57 412.79 188.55 414.26C188.52 416.32 188.52 418.38 188.53 420.44C188.52 421.62 188.52 422.79 188.51 424C188.82 427.01 188.82 427.01 190.35 429.38C194.63 432 198.93 431.56 203.86 431.52C204.96 431.52 206.07 431.53 207.21 431.54C210.87 431.56 214.53 431.54 218.19 431.53C220.73 431.53 223.27 431.54 225.81 431.54C231.14 431.55 236.46 431.54 241.79 431.52C247.94 431.5 254.1 431.51 260.25 431.53C266.18 431.55 272.1 431.55 278.03 431.54C280.55 431.53 283.07 431.54 285.59 431.55C289.11 431.56 292.63 431.54 296.14 431.52C297.19 431.53 298.24 431.53 299.31 431.54C304.76 431.51 304.76 431.51 309.65 429.38C311.43 426.25 311.5 424.08 311.5 420.47C311.51 419.83 311.51 419.18 311.52 418.52C311.53 416.39 311.51 414.26 311.5 412.13C311.5 410.64 311.5 409.16 311.5 407.68C311.5 404.57 311.49 401.46 311.47 398.35C311.44 394.37 311.44 390.39 311.45 386.41C311.46 383.35 311.45 380.28 311.44 377.21C311.44 375.75 311.44 374.28 311.44 372.81C311.44 370.76 311.43 368.71 311.4 366.65C311.4 364.9 311.4 364.9 311.39 363.12C310.92 359.38 309.69 356.69 307 354C305.53 353.9 304.05 353.86 302.57 353.86C301.62 353.85 300.66 353.85 299.67 353.84C298.09 353.84 298.09 353.84 296.47 353.84C295.36 353.83 294.25 353.83 293.11 353.82C289.43 353.81 285.75 353.8 282.07 353.8C279.52 353.79 276.98 353.79 274.43 353.78C269.76 353.77 265.1 353.76 260.44 353.76C253.57 353.76 246.7 353.74 239.83 353.71C233.88 353.69 227.94 353.68 221.99 353.68C219.46 353.67 216.93 353.67 214.4 353.65C210.86 353.64 207.33 353.64 203.79 353.64C202.74 353.63 201.68 353.63 200.6 353.62C199.15 353.62 199.15 353.62 197.68 353.63C196.43 353.63 196.43 353.63 195.15 353.63C192.48 354.09 191.63 354.87 190 357Z" fill="#038944"/>
<path d="M218 66C218.33 66 218.66 66 219 66C219 74.91 219 83.82 219 93C217.68 92.34 216.36 91.68 215 91C215.33 90.67 215.66 90.34 216 90C216.14 88.56 216.23 87.11 216.28 85.67C216.32 84.79 216.36 83.91 216.39 83C216.43 82.07 216.46 81.14 216.5 80.19C216.57 78.37 216.64 76.55 216.72 74.73C216.75 73.92 216.78 73.11 216.81 72.27C216.99 70.08 217.4 68.11 218 66Z" fill="#038944"/>
<path d="M212 128C210.85 130.47 209.95 132.05 208 134C206.33 134 204.67 134 203 134C204.12 132.99 205.25 132 206.38 131C207.31 130.16 207.31 130.16 208.27 129.31C210 128 210 128 212 128Z" fill="#038944"/>
<path d="M179 344C179.99 345.32 180.98 346.64 182 348C181.34 349.32 180.68 350.64 180 352C179.67 349.36 179.34 346.72 179 344Z" fill="#038944"/>
<path d="M305 320C305.99 320.33 306.98 320.66 308 321C307.01 321 306.02 321 305 321C305 320.67 305 320.34 305 320Z" fill="#038944"/>
<path d="M193 320C193.66 320.33 194.32 320.66 195 321C194.01 321 193.02 321 192 321C192.33 320.67 192.66 320.34 193 320Z" fill="#038944"/>
<path d="M306 356C306.66 356 307.32 356 308 356C307.67 356.66 307.34 357.32 307 358C306.67 357.34 306.34 356.68 306 356Z" fill="#038944"/>
<path d="M193 307C196 308 196 308 196 308L193 307Z" fill="#038944"/>
<path d="M306 306C306.99 306.5 306.99 306.5 308 307C307.01 307.5 307.01 307.5 306 308C306 307.34 306 306.68 306 306Z" fill="#038944"/>
<path d="M181 278C181.33 278.66 181.66 279.32 182 280C181.34 279.67 180.68 279.34 180 279C180.33 278.67 180.66 278.34 181 278Z" fill="#038944"/>
<path d="M273 103C273.99 103.5 273.99 103.5 275 104C274.01 104.5 274.01 104.5 273 105C273 104.34 273 103.68 273 103Z" fill="#038944"/>
<path d="M269 89C269.99 89.5 269.99 89.5 271 90C270.01 90.5 270.01 90.5 269 91C269 90.34 269 89.68 269 89Z" fill="#038944"/>
<path d="M218 205C220 206 220 206 220 206L218 205Z" fill="#038944"/>
<path d="M283 192C285 193 285 193 285 193L283 192Z" fill="#038944"/>
<mask id="path-15-inside-1_161_2" fill="white">
<path d="M259 192C261 193 261 193 261 193L259 192Z"/>
</mask>
<path d="M259 192C261 193 261 193 261 193L259 192Z" fill="#038944"/>
<path d="M258.553 192.894C258.557 192.896 258.561 192.898 258.564 192.9C258.568 192.902 258.572 192.904 258.576 192.906C258.58 192.908 258.584 192.91 258.588 192.912C258.592 192.914 258.595 192.916 258.599 192.918C258.603 192.92 258.607 192.922 258.611 192.923C258.615 192.925 258.618 192.927 258.622 192.929C258.626 192.931 258.63 192.933 258.634 192.935C258.638 192.937 258.641 192.939 258.645 192.941C258.649 192.942 258.653 192.944 258.656 192.946C258.66 192.948 258.664 192.95 258.668 192.952C258.671 192.954 258.675 192.956 258.679 192.958C258.683 192.959 258.686 192.961 258.69 192.963C258.694 192.965 258.698 192.967 258.701 192.969C258.705 192.971 258.709 192.972 258.712 192.974C258.716 192.976 258.72 192.978 258.723 192.98C258.727 192.982 258.731 192.983 258.734 192.985C258.738 192.987 258.742 192.989 258.745 192.991C258.749 192.993 258.753 192.994 258.756 192.996C258.76 192.998 258.764 193 258.767 193.002C258.771 193.003 258.775 193.005 258.778 193.007C258.782 193.009 258.785 193.011 258.789 193.012C258.793 193.014 258.796 193.016 258.8 193.018C258.803 193.02 258.807 193.021 258.81 193.023C258.814 193.025 258.818 193.027 258.821 193.029C258.825 193.03 258.828 193.032 258.832 193.034C258.835 193.036 258.839 193.037 258.842 193.039C258.846 193.041 258.849 193.043 258.853 193.044C258.856 193.046 258.86 193.048 258.863 193.05C258.867 193.051 258.87 193.053 258.874 193.055C258.877 193.057 258.881 193.058 258.884 193.06C258.888 193.062 258.891 193.064 258.895 193.065C258.898 193.067 258.901 193.069 258.905 193.07C258.908 193.072 258.912 193.074 258.915 193.076C258.919 193.077 258.922 193.079 258.925 193.081C258.929 193.082 258.932 193.084 258.936 193.086C258.939 193.088 258.942 193.089 258.946 193.091C258.949 193.093 258.952 193.094 258.956 193.096C258.959 193.098 258.963 193.099 258.966 193.101C258.969 193.103 258.973 193.104 258.976 193.106C258.979 193.108 258.983 193.109 258.986 193.111C258.989 193.113 258.993 193.114 258.996 193.116C258.999 193.118 259.002 193.119 259.006 193.121C259.009 193.123 259.012 193.124 259.016 193.126C259.019 193.127 259.022 193.129 259.025 193.131C259.029 193.132 259.032 193.134 259.035 193.136C259.038 193.137 259.042 193.139 259.045 193.14C259.048 193.142 259.051 193.144 259.055 193.145C259.058 193.147 259.061 193.149 259.064 193.15C259.067 193.152 259.071 193.153 259.074 193.155C259.077 193.157 259.08 193.158 259.083 193.16C259.087 193.161 259.09 193.163 259.093 193.164C259.096 193.166 259.099 193.168 259.102 193.169C259.106 193.171 259.109 193.172 259.112 193.174C259.115 193.176 259.118 193.177 259.121 193.179C259.124 193.18 259.127 193.182 259.131 193.183C259.134 193.185 259.137 193.186 259.14 193.188C259.143 193.19 259.146 193.191 259.149 193.193C259.152 193.194 259.155 193.196 259.158 193.197C259.161 193.199 259.165 193.2 259.168 193.202C259.171 193.203 259.174 193.205 259.177 193.206C259.18 193.208 259.183 193.209 259.186 193.211C259.189 193.212 259.192 193.214 259.195 193.215C259.198 193.217 259.201 193.219 259.204 193.22C259.207 193.222 259.21 193.223 259.213 193.225C259.216 193.226 259.219 193.227 259.222 193.229C259.225 193.23 259.228 193.232 259.231 193.233C259.234 193.235 259.237 193.236 259.24 193.238C259.243 193.239 259.246 193.241 259.249 193.242C259.251 193.244 259.254 193.245 259.257 193.247C259.26 193.248 259.263 193.25 259.266 193.251C259.269 193.253 259.272 193.254 259.275 193.255C259.278 193.257 259.281 193.258 259.283 193.26C259.286 193.261 259.289 193.263 259.292 193.264C259.295 193.266 259.298 193.267 259.301 193.268C259.304 193.27 259.306 193.271 259.309 193.273C259.312 193.274 259.315 193.275 259.318 193.277C259.321 193.278 259.323 193.28 259.326 193.281C259.329 193.283 259.332 193.284 259.335 193.285C259.337 193.287 259.34 193.288 259.343 193.29C259.346 193.291 259.349 193.292 259.351 193.294C259.354 193.295 259.357 193.297 259.36 193.298C259.363 193.299 259.365 193.301 259.368 193.302C259.371 193.303 259.374 193.305 259.376 193.306C259.379 193.308 259.382 193.309 259.384 193.31C259.387 193.312 259.39 193.313 259.393 193.314C259.395 193.316 259.398 193.317 259.401 193.318C259.404 193.32 259.406 193.321 259.409 193.322C259.412 193.324 259.414 193.325 259.417 193.327C259.42 193.328 259.422 193.329 259.425 193.331C259.428 193.332 259.43 193.333 259.433 193.335C259.436 193.336 259.438 193.337 259.441 193.338C259.444 193.34 259.446 193.341 259.449 193.342C259.451 193.344 259.454 193.345 259.457 193.346C259.459 193.348 259.462 193.349 259.464 193.35C259.467 193.352 259.47 193.353 259.472 193.354C259.475 193.355 259.477 193.357 259.48 193.358C259.483 193.359 259.485 193.361 259.488 193.362C259.49 193.363 259.493 193.364 259.495 193.366C259.498 193.367 259.501 193.368 259.503 193.37C259.506 193.371 259.508 193.372 259.511 193.373C259.513 193.375 259.516 193.376 259.518 193.377C259.521 193.378 259.523 193.38 259.526 193.381C259.528 193.382 259.531 193.383 259.533 193.385C259.536 193.386 259.538 193.387 259.541 193.388C259.543 193.39 259.546 193.391 259.548 193.392C259.551 193.393 259.553 193.395 259.556 193.396C259.558 193.397 259.56 193.398 259.563 193.399C259.565 193.401 259.568 193.402 259.57 193.403C259.573 193.404 259.575 193.406 259.577 193.407C259.58 193.408 259.582 193.409 259.585 193.41C259.587 193.412 259.59 193.413 259.592 193.414C259.594 193.415 259.597 193.416 259.599 193.418C259.601 193.419 259.604 193.42 259.606 193.421C259.609 193.422 259.611 193.424 259.613 193.425C259.616 193.426 259.618 193.427 259.62 193.428C259.623 193.429 259.625 193.431 259.627 193.432C259.63 193.433 259.632 193.434 259.634 193.435C259.637 193.436 259.639 193.438 259.641 193.439C259.644 193.44 259.646 193.441 259.648 193.442C259.651 193.443 259.653 193.444 259.655 193.446C259.657 193.447 259.66 193.448 259.662 193.449C259.664 193.45 259.667 193.451 259.669 193.452C259.671 193.454 259.673 193.455 259.676 193.456C259.678 193.457 259.68 193.458 259.682 193.459C259.685 193.46 259.687 193.461 259.689 193.463C259.691 193.464 259.694 193.465 259.696 193.466C259.698 193.467 259.7 193.468 259.702 193.469C259.705 193.47 259.707 193.471 259.709 193.473C259.711 193.474 259.713 193.475 259.716 193.476C259.718 193.477 259.72 193.478 259.722 193.479C259.724 193.48 259.726 193.481 259.729 193.482C259.731 193.483 259.733 193.485 259.735 193.486C259.737 193.487 259.739 193.488 259.742 193.489C259.744 193.49 259.746 193.491 259.748 193.492C259.75 193.493 259.752 193.494 259.754 193.495C259.756 193.496 259.759 193.497 259.761 193.498C259.763 193.499 259.765 193.5 259.767 193.502C259.769 193.503 259.771 193.504 259.773 193.505C259.775 193.506 259.777 193.507 259.779 193.508C259.782 193.509 259.784 193.51 259.786 193.511C259.788 193.512 259.79 193.513 259.792 193.514C259.794 193.515 259.796 193.516 259.798 193.517C259.8 193.518 259.802 193.519 259.804 193.52C259.806 193.521 259.808 193.522 259.81 193.523C259.812 193.524 259.814 193.525 259.816 193.526C259.818 193.527 259.82 193.528 259.822 193.529C259.824 193.53 259.826 193.531 259.828 193.532C259.83 193.533 259.832 193.534 259.834 193.535C259.836 193.536 259.838 193.537 259.84 193.538C259.842 193.539 259.844 193.54 259.846 193.541C259.848 193.542 259.85 193.543 259.852 193.544C259.854 193.545 259.856 193.546 259.858 193.547C259.859 193.548 259.861 193.549 259.863 193.55C259.865 193.551 259.867 193.552 259.869 193.553C259.871 193.554 259.873 193.554 259.875 193.555C259.877 193.556 259.879 193.557 259.88 193.558C259.882 193.559 259.884 193.56 259.886 193.561C259.888 193.562 259.89 193.563 259.892 193.564C259.894 193.565 259.895 193.566 259.897 193.567C259.899 193.568 259.901 193.569 259.903 193.569C259.905 193.57 259.907 193.571 259.908 193.572C259.91 193.573 259.912 193.574 259.914 193.575C259.916 193.576 259.918 193.577 259.919 193.578C259.921 193.579 259.923 193.58 259.925 193.58C259.927 193.581 259.928 193.582 259.93 193.583C259.932 193.584 259.934 193.585 259.936 193.586C259.937 193.587 259.939 193.588 259.941 193.588C259.943 193.589 259.944 193.59 259.946 193.591C259.948 193.592 259.95 193.593 259.951 193.594C259.953 193.595 259.955 193.596 259.957 193.596C259.958 193.597 259.96 193.598 259.962 193.599C259.964 193.6 259.965 193.601 259.967 193.602C259.969 193.602 259.971 193.603 259.972 193.604C259.974 193.605 259.976 193.606 259.977 193.607C259.979 193.608 259.981 193.608 259.982 193.609C259.984 193.61 259.986 193.611 259.988 193.612C259.989 193.613 259.991 193.613 259.993 193.614C259.994 193.615 259.996 193.616 259.998 193.617C259.999 193.618 260.001 193.618 260.003 193.619C260.004 193.62 260.006 193.621 260.007 193.622C260.009 193.623 260.011 193.623 260.012 193.624C260.014 193.625 260.016 193.626 260.017 193.627C260.019 193.627 260.021 193.628 260.022 193.629C260.024 193.63 260.025 193.631 260.027 193.632C260.029 193.632 260.03 193.633 260.032 193.634C260.033 193.635 260.035 193.636 260.037 193.636C260.038 193.637 260.04 193.638 260.041 193.639C260.043 193.639 260.044 193.64 260.046 193.641C260.048 193.642 260.049 193.643 260.051 193.643C260.052 193.644 260.054 193.645 260.055 193.646C260.057 193.646 260.058 193.647 260.06 193.648C260.061 193.649 260.063 193.65 260.065 193.65C260.066 193.651 260.068 193.652 260.069 193.653C260.071 193.653 260.072 193.654 260.074 193.655C260.075 193.656 260.077 193.656 260.078 193.657C260.08 193.658 260.081 193.659 260.083 193.659C260.084 193.66 260.086 193.661 260.087 193.662C260.089 193.662 260.09 193.663 260.091 193.664C260.093 193.664 260.094 193.665 260.096 193.666C260.097 193.667 260.099 193.667 260.1 193.668C260.102 193.669 260.103 193.67 260.105 193.67C260.106 193.671 260.107 193.672 260.109 193.672C260.11 193.673 260.112 193.674 260.113 193.675C260.115 193.675 260.116 193.676 260.117 193.677C260.119 193.677 260.12 193.678 260.122 193.679C260.123 193.68 260.124 193.68 260.126 193.681C260.127 193.682 260.129 193.682 260.13 193.683C260.131 193.684 260.133 193.684 260.134 193.685C260.136 193.686 260.137 193.686 260.138 193.687C260.14 193.688 260.141 193.689 260.142 193.689C260.144 193.69 260.145 193.691 260.146 193.691C260.148 193.692 260.149 193.693 260.15 193.693C260.152 193.694 260.153 193.695 260.154 193.695C260.156 193.696 260.157 193.697 260.158 193.697C260.16 193.698 260.161 193.699 260.162 193.699C260.164 193.7 260.165 193.701 260.166 193.701C260.168 193.702 260.169 193.703 260.17 193.703C260.172 193.704 260.173 193.704 260.174 193.705C260.175 193.706 260.177 193.706 260.178 193.707C260.179 193.708 260.181 193.708 260.182 193.709C260.183 193.71 260.184 193.71 260.186 193.711C260.187 193.711 260.188 193.712 260.189 193.713C260.191 193.713 260.192 193.714 260.193 193.715C260.194 193.715 260.196 193.716 260.197 193.716C260.198 193.717 260.199 193.718 260.201 193.718C260.202 193.719 260.203 193.72 260.204 193.72C260.205 193.721 260.207 193.721 260.208 193.722C260.209 193.723 260.21 193.723 260.211 193.724C260.213 193.724 260.214 193.725 260.215 193.726C260.216 193.726 260.217 193.727 260.219 193.727C260.22 193.728 260.221 193.729 260.222 193.729C260.223 193.73 260.225 193.73 260.226 193.731C260.227 193.731 260.228 193.732 260.229 193.733C260.23 193.733 260.231 193.734 260.233 193.734C260.234 193.735 260.235 193.736 260.236 193.736C260.237 193.737 260.238 193.737 260.239 193.738C260.241 193.738 260.242 193.739 260.243 193.739C260.244 193.74 260.245 193.741 260.246 193.741C260.247 193.742 260.248 193.742 260.25 193.743C260.251 193.743 260.252 193.744 260.253 193.744C260.254 193.745 260.255 193.746 260.256 193.746C260.257 193.747 260.258 193.747 260.259 193.748C260.261 193.748 260.262 193.749 260.263 193.749C260.264 193.75 260.265 193.75 260.266 193.751C260.267 193.752 260.268 193.752 260.269 193.753C260.27 193.753 260.271 193.754 260.272 193.754C260.273 193.755 260.274 193.755 260.275 193.756C260.277 193.756 260.278 193.757 260.279 193.757C260.28 193.758 260.281 193.758 260.282 193.759C260.283 193.759 260.284 193.76 260.285 193.76C260.286 193.761 260.287 193.761 260.288 193.762C260.289 193.762 260.29 193.763 260.291 193.763C260.292 193.764 260.293 193.764 260.294 193.765C260.295 193.765 260.296 193.766 260.297 193.766C260.298 193.767 260.299 193.767 260.3 193.768C260.301 193.768 260.302 193.769 260.303 193.769C260.304 193.77 260.305 193.77 260.306 193.771C260.307 193.771 260.308 193.772 260.309 193.772C260.31 193.773 260.311 193.773 260.311 193.774C260.312 193.774 260.313 193.775 260.314 193.775C260.315 193.776 260.316 193.776 260.317 193.777C260.318 193.777 260.319 193.778 260.32 193.778C260.321 193.778 260.322 193.779 260.323 193.779C260.324 193.78 260.325 193.78 260.325 193.781C260.326 193.781 260.327 193.782 260.328 193.782C260.329 193.783 260.33 193.783 260.331 193.784C260.332 193.784 260.333 193.784 260.334 193.785C260.335 193.785 260.335 193.786 260.336 193.786C260.337 193.787 260.338 193.787 260.339 193.788C260.34 193.788 260.341 193.788 260.342 193.789C260.342 193.789 260.343 193.79 260.344 193.79C260.345 193.791 260.346 193.791 260.347 193.791C260.348 193.792 260.349 193.792 260.349 193.793C260.35 193.793 260.351 193.794 260.352 193.794C260.353 193.794 260.354 193.795 260.354 193.795C260.355 193.796 260.356 193.796 260.357 193.796C260.358 193.797 260.359 193.797 260.359 193.798C260.36 193.798 260.361 193.799 260.362 193.799C260.363 193.799 260.363 193.8 260.364 193.8C260.365 193.801 260.366 193.801 260.367 193.801C260.368 193.802 260.368 193.802 260.369 193.803C260.37 193.803 260.371 193.803 260.371 193.804C260.372 193.804 260.373 193.805 260.374 193.805C260.375 193.805 260.375 193.806 260.376 193.806C260.377 193.807 260.378 193.807 260.378 193.807C260.379 193.808 260.38 193.808 260.381 193.808C260.382 193.809 260.382 193.809 260.383 193.81C260.384 193.81 260.385 193.81 260.385 193.811C260.386 193.811 260.387 193.811 260.388 193.812C260.388 193.812 260.389 193.813 260.39 193.813C260.39 193.813 260.391 193.814 260.392 193.814C260.393 193.814 260.393 193.815 260.394 193.815C260.395 193.815 260.396 193.816 260.396 193.816C260.397 193.817 260.398 193.817 260.398 193.817C260.399 193.818 260.4 193.818 260.401 193.818C260.401 193.819 260.402 193.819 260.403 193.819C260.403 193.82 260.404 193.82 260.405 193.82C260.405 193.821 260.406 193.821 260.407 193.821C260.407 193.822 260.408 193.822 260.409 193.822C260.409 193.823 260.41 193.823 260.411 193.823C260.411 193.824 260.412 193.824 260.413 193.824C260.413 193.825 260.414 193.825 260.415 193.825C260.415 193.826 260.416 193.826 260.417 193.826C260.417 193.827 260.418 193.827 260.419 193.827C260.419 193.828 260.42 193.828 260.421 193.828C260.421 193.829 260.422 193.829 260.423 193.829C260.423 193.83 260.424 193.83 260.424 193.83C260.425 193.831 260.426 193.831 260.426 193.831C260.427 193.831 260.428 193.832 260.428 193.832C260.429 193.832 260.429 193.833 260.43 193.833C260.431 193.833 260.431 193.834 260.432 193.834C260.432 193.834 260.433 193.835 260.434 193.835C260.434 193.835 260.435 193.835 260.435 193.836C260.436 193.836 260.437 193.836 260.437 193.837C260.438 193.837 260.438 193.837 260.439 193.837C260.439 193.838 260.44 193.838 260.441 193.838C260.441 193.839 260.442 193.839 260.442 193.839C260.443 193.839 260.443 193.84 260.444 193.84C260.445 193.84 260.445 193.841 260.446 193.841C260.446 193.841 260.447 193.841 260.447 193.842C260.448 193.842 260.448 193.842 260.449 193.843C260.45 193.843 260.45 193.843 260.451 193.843C260.451 193.844 260.452 193.844 260.452 193.844C260.453 193.844 260.453 193.845 260.454 193.845C260.454 193.845 260.455 193.845 260.455 193.846C260.456 193.846 260.456 193.846 260.457 193.846C260.457 193.847 260.458 193.847 260.458 193.847C260.459 193.848 260.459 193.848 260.46 193.848C260.46 193.848 260.461 193.849 260.461 193.849C260.462 193.849 260.462 193.849 260.463 193.85C260.463 193.85 260.464 193.85 260.464 193.85C260.465 193.85 260.465 193.851 260.466 193.851C260.466 193.851 260.467 193.851 260.467 193.852C260.468 193.852 260.468 193.852 260.469 193.852C260.469 193.853 260.47 193.853 260.47 193.853C260.471 193.853 260.471 193.854 260.472 193.854C260.472 193.854 260.472 193.854 260.473 193.854C260.473 193.855 260.474 193.855 260.474 193.855C260.475 193.855 260.475 193.856 260.476 193.856C260.476 193.856 260.477 193.856 260.477 193.857C260.477 193.857 260.478 193.857 260.478 193.857C260.479 193.857 260.479 193.858 260.48 193.858C260.48 193.858 260.48 193.858 260.481 193.858C260.481 193.859 260.482 193.859 260.482 193.859C260.483 193.859 260.483 193.86 260.483 193.86C260.484 193.86 260.484 193.86 260.485 193.86C260.485 193.861 260.485 193.861 260.486 193.861C260.486 193.861 260.487 193.861 260.487 193.862C260.487 193.862 260.488 193.862 260.488 193.862C260.489 193.862 260.489 193.863 260.489 193.863C260.49 193.863 260.49 193.863 260.491 193.863C260.491 193.864 260.491 193.864 260.492 193.864C260.492 193.864 260.493 193.864 260.493 193.864C260.493 193.865 260.494 193.865 260.494 193.865C260.494 193.865 260.495 193.865 260.495 193.866C260.495 193.866 260.496 193.866 260.496 193.866C260.497 193.866 260.497 193.867 260.497 193.867C260.498 193.867 260.498 193.867 260.498 193.867C260.499 193.867 260.499 193.868 260.499 193.868C260.5 193.868 260.5 193.868 260.5 193.868C260.501 193.868 260.501 193.869 260.501 193.869C260.502 193.869 260.502 193.869 260.502 193.869C260.503 193.869 260.503 193.87 260.503 193.87C260.504 193.87 260.504 193.87 260.504 193.87C260.505 193.87 260.505 193.871 260.505 193.871C260.506 193.871 260.506 193.871 260.506 193.871C260.507 193.871 260.507 193.872 260.507 193.872C260.508 193.872 260.508 193.872 260.508 193.872C260.509 193.872 260.509 193.872 260.509 193.873C260.51 193.873 260.51 193.873 260.51 193.873C260.51 193.873 260.511 193.873 260.511 193.874C260.511 193.874 260.512 193.874 260.512 193.874C260.512 193.874 260.512 193.874 260.513 193.874C260.513 193.875 260.513 193.875 260.514 193.875C260.514 193.875 260.514 193.875 260.514 193.875C260.515 193.875 260.515 193.876 260.515 193.876C260.516 193.876 260.516 193.876 260.516 193.876C260.516 193.876 260.517 193.876 260.517 193.877C260.517 193.877 260.517 193.877 260.518 193.877C260.518 193.877 260.518 193.877 260.519 193.877C260.519 193.877 260.519 193.878 260.519 193.878C260.52 193.878 260.52 193.878 260.52 193.878C260.52 193.878 260.521 193.878 260.521 193.878C260.521 193.879 260.521 193.879 260.522 193.879C260.522 193.879 260.522 193.879 260.522 193.879C260.523 193.879 260.523 193.879 260.523 193.88C260.523 193.88 260.523 193.88 260.524 193.88C260.524 193.88 260.524 193.88 260.524 193.88C260.525 193.88 260.525 193.88 260.525 193.881C260.525 193.881 260.526 193.881 260.526 193.881C260.526 193.881 260.526 193.881 260.526 193.881C260.527 193.881 260.527 193.881 260.527 193.882C260.527 193.882 260.527 193.882 260.528 193.882C260.528 193.882 260.528 193.882 260.528 193.882C260.529 193.882 260.529 193.882 260.529 193.882C260.529 193.883 260.529 193.883 260.53 193.883C260.53 193.883 260.53 193.883 260.53 193.883C260.53 193.883 260.531 193.883 260.531 193.883C260.531 193.883 260.531 193.884 260.531 193.884C260.531 193.884 260.532 193.884 260.532 193.884C260.532 193.884 260.532 193.884 260.532 193.884C260.533 193.884 260.533 193.884 260.533 193.885C260.533 193.885 260.533 193.885 260.533 193.885C260.534 193.885 260.534 193.885 260.534 193.885C260.534 193.885 260.534 193.885 260.535 193.885C260.535 193.885 260.535 193.885 260.535 193.886C260.535 193.886 260.535 193.886 260.536 193.886C260.536 193.886 260.536 193.886 260.536 193.886C260.536 193.886 260.536 193.886 260.537 193.886C260.537 193.886 260.537 193.886 260.537 193.887C260.537 193.887 260.537 193.887 260.537 193.887C260.538 193.887 260.538 193.887 260.538 193.887C260.538 193.887 260.538 193.887 260.538 193.887C260.538 193.887 260.539 193.887 260.539 193.887C260.539 193.887 260.539 193.888 260.539 193.888C260.539 193.888 260.539 193.888 260.54 193.888C260.54 193.888 260.54 193.888 260.54 193.888C260.54 193.888 260.54 193.888 260.54 193.888C260.541 193.888 260.541 193.888 260.541 193.888C260.541 193.888 260.541 193.889 260.541 193.889C260.541 193.889 260.541 193.889 260.542 193.889C260.542 193.889 260.542 193.889 260.542 193.889C260.542 193.889 260.542 193.889 260.542 193.889C260.542 193.889 260.543 193.889 260.543 193.889C260.543 193.889 260.543 193.889 260.543 193.89C260.543 193.89 260.543 193.89 260.543 193.89C260.543 193.89 260.544 193.89 260.544 193.89C260.544 193.89 260.544 193.89 260.544 193.89C260.544 193.89 260.544 193.89 260.544 193.89C260.544 193.89 260.544 193.89 260.545 193.89C260.545 193.89 260.545 193.89 260.545 193.89C260.545 193.891 260.545 193.891 260.545 193.891C260.545 193.891 260.545 193.891 260.545 193.891C260.546 193.891 260.546 193.891 260.546 193.891C260.546 193.891 260.546 193.891 260.546 193.891C260.546 193.891 260.546 193.891 260.546 193.891C260.546 193.891 260.546 193.891 260.546 193.891C260.547 193.891 260.547 193.891 260.547 193.891C260.547 193.891 260.547 193.891 260.547 193.892C260.547 193.892 260.547 193.892 260.547 193.892C260.547 193.892 260.547 193.892 260.547 193.892C260.548 193.892 260.548 193.892 260.548 193.892C260.548 193.892 260.548 193.892 260.548 193.892C260.548 193.892 260.548 193.892 260.548 193.892C260.548 193.892 260.548 193.892 260.548 193.892C260.548 193.892 260.548 193.892 260.549 193.892C260.549 193.892 260.549 193.892 260.549 193.892C260.549 193.892 260.549 193.892 260.549 193.892C260.549 193.893 260.549 193.893 260.549 193.893C260.549 193.893 260.549 193.893 260.549 193.893C260.549 193.893 260.549 193.893 260.549 193.893C260.549 193.893 260.55 193.893 260.55 193.893C260.55 193.893 260.55 193.893 260.55 193.893C260.55 193.893 260.55 193.893 260.55 193.893C260.55 193.893 260.55 193.893 260.55 193.893C260.55 193.893 260.55 193.893 260.55 193.893C260.55 193.893 260.55 193.893 260.55 193.893C260.55 193.893 260.55 193.893 260.55 193.893C260.55 193.893 260.551 193.893 260.551 193.893C260.551 193.893 260.551 193.893 260.551 193.893C260.551 193.893 260.551 193.893 260.551 193.893C260.551 193.893 260.551 193.893 260.551 193.893C260.551 193.894 260.551 193.894 260.551 193.894C260.551 193.894 260.551 193.894 260.551 193.894C260.551 193.894 260.551 193.894 260.551 193.894C260.551 193.894 260.551 193.894 260.551 193.894C260.551 193.894 260.551 193.894 260.551 193.894C260.551 193.894 260.551 193.894 260.552 193.894C260.552 193.894 260.552 193.894 260.552 193.894C260.552 193.894 260.552 193.894 260.552 193.894C260.552 193.894 260.552 193.894 260.552 193.894C260.552 193.894 260.552 193.894 260.552 193.894C260.552 193.894 260.552 193.894 260.552 193.894C260.552 193.894 260.552 193.894 260.552 193.894C260.552 193.894 260.552 193.894 260.552 193.894C260.552 193.894 260.552 193.894 260.552 193.894C260.552 193.894 260.552 193.894 260.552 193.894C260.552 193.894 260.552 193.894 260.552 193.894C260.552 193.894 260.552 193.894 260.552 193.894C260.552 193.894 260.552 193.894 260.552 193.894C260.552 193.894 260.552 193.894 260.552 193.894C260.552 193.894 260.552 193.894 260.552 193.894C260.552 193.894 260.552 193.894 260.552 193.894C260.552 193.894 260.552 193.894 260.552 193.894C260.552 193.894 260.552 193.894 260.552 193.894C260.553 193.894 260.553 193.894 260.553 193.894C260.553 193.894 260.553 193.894 260.553 193.894C260.553 193.894 260.553 193.894 260.553 193.894C260.553 193.894 260.553 193.894 260.553 193.894C260.553 193.894 260.553 193.894 260.553 193.894C260.553 193.894 260.553 193.894 260.553 193.894C260.553 193.894 260.553 193.894 260.553 193.894C260.553 193.894 260.553 193.894 260.553 193.894C260.553 193.894 260.553 193.894 260.553 193.894C260.553 193.894 260.553 193.894 260.553 193.894C260.553 193.894 260.553 193.894 260.553 193.894C260.553 193.894 260.553 193.894 260.553 193.894C260.553 193.894 260.553 193.894 260.553 193.894C260.553 193.894 260.553 193.894 260.553 193.894C260.553 193.894 260.553 193.894 260.553 193.894C260.553 193.894 260.553 193.894 260.553 193.894C260.553 193.894 260.553 193.894 260.553 193.894C260.553 193.894 260.553 193.894 260.553 193.894C260.553 193.894 260.553 193.894 260.553 193.894C260.553 193.894 260.553 193.894 260.553 193.894C260.553 193.894 260.553 193.894 260.553 193.894C260.553 193.894 260.553 193.894 260.553 193.894C260.553 193.894 260.553 193.894 260.553 193.894C260.553 193.894 260.553 193.894 260.553 193.894C260.553 193.894 260.553 193.894 260.553 193.894C260.553 193.894 260.553 193.894 260.553 193.894C260.553 193.894 261 193 261 193C261 193 261.447 192.106 261.447 192.106C261.447 192.106 261.447 192.106 261.447 192.106C261.447 192.106 261.447 192.106 261.447 192.106C261.447 192.106 261.447 192.106 261.447 192.106C261.447 192.106 261.447 192.106 261.447 192.106C261.447 192.106 261.447 192.106 261.447 192.106C261.447 192.106 261.447 192.106 261.447 192.106C261.447 192.106 261.447 192.106 261.447 192.106C261.447 192.106 261.447 192.106 261.447 192.106C261.447 192.106 261.447 192.106 261.447 192.106C261.447 192.106 261.447 192.106 261.447 192.106C261.447 192.106 261.447 192.106 261.447 192.106C261.447 192.106 261.447 192.106 261.447 192.106C261.447 192.106 261.447 192.106 261.447 192.106C261.447 192.106 261.447 192.106 261.447 192.106C261.447 192.106 261.447 192.106 261.447 192.106C261.447 192.106 261.447 192.106 261.447 192.106C261.447 192.106 261.447 192.106 261.447 192.106C261.447 192.106 261.447 192.106 261.447 192.106C261.447 192.106 261.447 192.106 261.447 192.106C261.447 192.106 261.447 192.106 261.447 192.106C261.447 192.106 261.447 192.105 261.447 192.105C261.447 192.105 261.447 192.105 261.447 192.105C261.447 192.105 261.447 192.105 261.447 192.105C261.447 192.105 261.447 192.105 261.447 192.105C261.447 192.105 261.447 192.105 261.447 192.105C261.447 192.105 261.447 192.105 261.447 192.105C261.447 192.105 261.447 192.105 261.447 192.105C261.447 192.105 261.447 192.105 261.447 192.105C261.447 192.105 261.447 192.105 261.447 192.105C261.447 192.105 261.447 192.105 261.447 192.105C261.447 192.105 261.447 192.105 261.447 192.105C261.447 192.105 261.447 192.105 261.447 192.105C261.447 192.105 261.447 192.105 261.447 192.105C261.447 192.105 261.447 192.105 261.447 192.105C261.447 192.105 261.447 192.105 261.447 192.105C261.446 192.105 261.446 192.105 261.446 192.105C261.446 192.105 261.446 192.105 261.446 192.105C261.446 192.105 261.446 192.105 261.446 192.105C261.446 192.105 261.446 192.105 261.446 192.105C261.446 192.105 261.446 192.105 261.446 192.105C261.446 192.105 261.446 192.105 261.446 192.105C261.446 192.105 261.446 192.105 261.446 192.105C261.446 192.105 261.446 192.105 261.446 192.105C261.446 192.105 261.446 192.105 261.446 192.105C261.446 192.105 261.446 192.105 261.446 192.105C261.446 192.105 261.446 192.105 261.446 192.105C261.446 192.105 261.446 192.105 261.446 192.105C261.446 192.105 261.445 192.105 261.445 192.105C261.445 192.105 261.445 192.105 261.445 192.105C261.445 192.105 261.445 192.105 261.445 192.105C261.445 192.105 261.445 192.105 261.445 192.105C261.445 192.105 261.445 192.104 261.445 192.104C261.445 192.104 261.445 192.104 261.445 192.104C261.445 192.104 261.445 192.104 261.445 192.104C261.445 192.104 261.445 192.104 261.445 192.104C261.445 192.104 261.445 192.104 261.444 192.104C261.444 192.104 261.444 192.104 261.444 192.104C261.444 192.104 261.444 192.104 261.444 192.104C261.444 192.104 261.444 192.104 261.444 192.104C261.444 192.104 261.444 192.104 261.444 192.104C261.444 192.104 261.444 192.104 261.444 192.104C261.444 192.104 261.444 192.104 261.443 192.104C261.443 192.104 261.443 192.104 261.443 192.104C261.443 192.104 261.443 192.104 261.443 192.104C261.443 192.103 261.443 192.103 261.443 192.103C261.443 192.103 261.443 192.103 261.443 192.103C261.443 192.103 261.443 192.103 261.443 192.103C261.442 192.103 261.442 192.103 261.442 192.103C261.442 192.103 261.442 192.103 261.442 192.103C261.442 192.103 261.442 192.103 261.442 192.103C261.442 192.103 261.442 192.103 261.442 192.103C261.442 192.103 261.441 192.103 261.441 192.103C261.441 192.103 261.441 192.103 261.441 192.103C261.441 192.103 261.441 192.102 261.441 192.102C261.441 192.102 261.441 192.102 261.441 192.102C261.441 192.102 261.44 192.102 261.44 192.102C261.44 192.102 261.44 192.102 261.44 192.102C261.44 192.102 261.44 192.102 261.44 192.102C261.44 192.102 261.44 192.102 261.44 192.102C261.439 192.102 261.439 192.102 261.439 192.102C261.439 192.102 261.439 192.102 261.439 192.101C261.439 192.101 261.439 192.101 261.439 192.101C261.439 192.101 261.438 192.101 261.438 192.101C261.438 192.101 261.438 192.101 261.438 192.101C261.438 192.101 261.438 192.101 261.438 192.101C261.438 192.101 261.438 192.101 261.437 192.101C261.437 192.101 261.437 192.101 261.437 192.1C261.437 192.1 261.437 192.1 261.437 192.1C261.437 192.1 261.436 192.1 261.436 192.1C261.436 192.1 261.436 192.1 261.436 192.1C261.436 192.1 261.436 192.1 261.436 192.1C261.435 192.1 261.435 192.1 261.435 192.1C261.435 192.1 261.435 192.099 261.435 192.099C261.435 192.099 261.435 192.099 261.434 192.099C261.434 192.099 261.434 192.099 261.434 192.099C261.434 192.099 261.434 192.099 261.434 192.099C261.433 192.099 261.433 192.099 261.433 192.099C261.433 192.098 261.433 192.098 261.433 192.098C261.433 192.098 261.432 192.098 261.432 192.098C261.432 192.098 261.432 192.098 261.432 192.098C261.432 192.098 261.432 192.098 261.431 192.098C261.431 192.098 261.431 192.098 261.431 192.097C261.431 192.097 261.431 192.097 261.43 192.097C261.43 192.097 261.43 192.097 261.43 192.097C261.43 192.097 261.43 192.097 261.429 192.097C261.429 192.097 261.429 192.097 261.429 192.096C261.429 192.096 261.429 192.096 261.428 192.096C261.428 192.096 261.428 192.096 261.428 192.096C261.428 192.096 261.428 192.096 261.427 192.096C261.427 192.096 261.427 192.095 261.427 192.095C261.427 192.095 261.426 192.095 261.426 192.095C261.426 192.095 261.426 192.095 261.426 192.095C261.426 192.095 261.425 192.095 261.425 192.095C261.425 192.094 261.425 192.094 261.425 192.094C261.424 192.094 261.424 192.094 261.424 192.094C261.424 192.094 261.424 192.094 261.423 192.094C261.423 192.094 261.423 192.093 261.423 192.093C261.423 192.093 261.422 192.093 261.422 192.093C261.422 192.093 261.422 192.093 261.421 192.093C261.421 192.093 261.421 192.092 261.421 192.092C261.421 192.092 261.42 192.092 261.42 192.092C261.42 192.092 261.42 192.092 261.419 192.092C261.419 192.092 261.419 192.091 261.419 192.091C261.419 192.091 261.418 192.091 261.418 192.091C261.418 192.091 261.418 192.091 261.417 192.091C261.417 192.091 261.417 192.09 261.417 192.09C261.416 192.09 261.416 192.09 261.416 192.09C261.416 192.09 261.415 192.09 261.415 192.09C261.415 192.089 261.415 192.089 261.414 192.089C261.414 192.089 261.414 192.089 261.414 192.089C261.413 192.089 261.413 192.089 261.413 192.088C261.413 192.088 261.412 192.088 261.412 192.088C261.412 192.088 261.412 192.088 261.411 192.088C261.411 192.088 261.411 192.087 261.411 192.087C261.41 192.087 261.41 192.087 261.41 192.087C261.409 192.087 261.409 192.087 261.409 192.086C261.409 192.086 261.408 192.086 261.408 192.086C261.408 192.086 261.407 192.086 261.407 192.086C261.407 192.085 261.407 192.085 261.406 192.085C261.406 192.085 261.406 192.085 261.405 192.085C261.405 192.085 261.405 192.084 261.405 192.084C261.404 192.084 261.404 192.084 261.404 192.084C261.403 192.084 261.403 192.083 261.403 192.083C261.402 192.083 261.402 192.083 261.402 192.083C261.401 192.083 261.401 192.083 261.401 192.082C261.401 192.082 261.4 192.082 261.4 192.082C261.4 192.082 261.399 192.082 261.399 192.081C261.399 192.081 261.398 192.081 261.398 192.081C261.398 192.081 261.397 192.081 261.397 192.08C261.397 192.08 261.396 192.08 261.396 192.08C261.396 192.08 261.395 192.08 261.395 192.079C261.395 192.079 261.394 192.079 261.394 192.079C261.393 192.079 261.393 192.079 261.393 192.078C261.392 192.078 261.392 192.078 261.392 192.078C261.391 192.078 261.391 192.077 261.391 192.077C261.39 192.077 261.39 192.077 261.39 192.077C261.389 192.077 261.389 192.076 261.388 192.076C261.388 192.076 261.388 192.076 261.387 192.076C261.387 192.075 261.387 192.075 261.386 192.075C261.386 192.075 261.385 192.075 261.385 192.074C261.385 192.074 261.384 192.074 261.384 192.074C261.383 192.074 261.383 192.074 261.383 192.073C261.382 192.073 261.382 192.073 261.381 192.073C261.381 192.073 261.381 192.072 261.38 192.072C261.38 192.072 261.379 192.072 261.379 192.071C261.379 192.071 261.378 192.071 261.378 192.071C261.377 192.071 261.377 192.07 261.377 192.07C261.376 192.07 261.376 192.07 261.375 192.07C261.375 192.069 261.374 192.069 261.374 192.069C261.374 192.069 261.373 192.069 261.373 192.068C261.372 192.068 261.372 192.068 261.371 192.068C261.371 192.067 261.371 192.067 261.37 192.067C261.37 192.067 261.369 192.067 261.369 192.066C261.368 192.066 261.368 192.066 261.367 192.066C261.367 192.065 261.366 192.065 261.366 192.065C261.366 192.065 261.365 192.064 261.365 192.064C261.364 192.064 261.364 192.064 261.363 192.064C261.363 192.063 261.362 192.063 261.362 192.063C261.361 192.063 261.361 192.062 261.36 192.062C261.36 192.062 261.359 192.062 261.359 192.061C261.358 192.061 261.358 192.061 261.357 192.061C261.357 192.06 261.356 192.06 261.356 192.06C261.355 192.06 261.355 192.059 261.354 192.059C261.354 192.059 261.353 192.059 261.353 192.058C261.352 192.058 261.352 192.058 261.351 192.058C261.351 192.057 261.35 192.057 261.35 192.057C261.349 192.057 261.349 192.056 261.348 192.056C261.348 192.056 261.347 192.056 261.347 192.055C261.346 192.055 261.346 192.055 261.345 192.054C261.344 192.054 261.344 192.054 261.343 192.054C261.343 192.053 261.342 192.053 261.342 192.053C261.341 192.053 261.341 192.052 261.34 192.052C261.34 192.052 261.339 192.051 261.338 192.051C261.338 192.051 261.337 192.051 261.337 192.05C261.336 192.05 261.336 192.05 261.335 192.049C261.334 192.049 261.334 192.049 261.333 192.049C261.333 192.048 261.332 192.048 261.332 192.048C261.331 192.047 261.33 192.047 261.33 192.047C261.329 192.047 261.329 192.046 261.328 192.046C261.327 192.046 261.327 192.045 261.326 192.045C261.326 192.045 261.325 192.044 261.324 192.044C261.324 192.044 261.323 192.044 261.323 192.043C261.322 192.043 261.321 192.043 261.321 192.042C261.32 192.042 261.319 192.042 261.319 192.041C261.318 192.041 261.318 192.041 261.317 192.04C261.316 192.04 261.316 192.04 261.315 192.039C261.314 192.039 261.314 192.039 261.313 192.039C261.312 192.038 261.312 192.038 261.311 192.038C261.311 192.037 261.31 192.037 261.309 192.037C261.309 192.036 261.308 192.036 261.307 192.036C261.307 192.035 261.306 192.035 261.305 192.035C261.305 192.034 261.304 192.034 261.303 192.034C261.303 192.033 261.302 192.033 261.301 192.033C261.3 192.032 261.3 192.032 261.299 192.032C261.298 192.031 261.298 192.031 261.297 192.03C261.296 192.03 261.296 192.03 261.295 192.029C261.294 192.029 261.294 192.029 261.293 192.028C261.292 192.028 261.291 192.028 261.291 192.027C261.29 192.027 261.289 192.027 261.289 192.026C261.288 192.026 261.287 192.026 261.286 192.025C261.286 192.025 261.285 192.024 261.284 192.024C261.283 192.024 261.283 192.023 261.282 192.023C261.281 192.023 261.28 192.022 261.28 192.022C261.279 192.021 261.278 192.021 261.277 192.021C261.277 192.02 261.276 192.02 261.275 192.02C261.274 192.019 261.274 192.019 261.273 192.018C261.272 192.018 261.271 192.018 261.271 192.017C261.27 192.017 261.269 192.016 261.268 192.016C261.267 192.016 261.267 192.015 261.266 192.015C261.265 192.015 261.264 192.014 261.264 192.014C261.263 192.013 261.262 192.013 261.261 192.013C261.26 192.012 261.26 192.012 261.259 192.011C261.258 192.011 261.257 192.011 261.256 192.01C261.255 192.01 261.255 192.009 261.254 192.009C261.253 192.008 261.252 192.008 261.251 192.008C261.251 192.007 261.25 192.007 261.249 192.006C261.248 192.006 261.247 192.006 261.246 192.005C261.245 192.005 261.245 192.004 261.244 192.004C261.243 192.003 261.242 192.003 261.241 192.003C261.24 192.002 261.239 192.002 261.239 192.001C261.238 192.001 261.237 192 261.236 192C261.235 192 261.234 191.999 261.233 191.999C261.233 191.998 261.232 191.998 261.231 191.997C261.23 191.997 261.229 191.996 261.228 191.996C261.227 191.996 261.226 191.995 261.225 191.995C261.224 191.994 261.224 191.994 261.223 191.993C261.222 191.993 261.221 191.992 261.22 191.992C261.219 191.991 261.218 191.991 261.217 191.991C261.216 191.99 261.215 191.99 261.214 191.989C261.213 191.989 261.213 191.988 261.212 191.988C261.211 191.987 261.21 191.987 261.209 191.986C261.208 191.986 261.207 191.985 261.206 191.985C261.205 191.984 261.204 191.984 261.203 191.983C261.202 191.983 261.201 191.983 261.2 191.982C261.199 191.982 261.198 191.981 261.197 191.981C261.196 191.98 261.195 191.98 261.194 191.979C261.193 191.979 261.192 191.978 261.191 191.978C261.19 191.977 261.189 191.977 261.188 191.976C261.187 191.976 261.186 191.975 261.185 191.975C261.184 191.974 261.183 191.974 261.182 191.973C261.181 191.973 261.18 191.972 261.179 191.972C261.178 191.971 261.177 191.971 261.176 191.97C261.175 191.97 261.174 191.969 261.173 191.968C261.172 191.968 261.171 191.967 261.17 191.967C261.169 191.966 261.168 191.966 261.167 191.965C261.166 191.965 261.165 191.964 261.164 191.964C261.163 191.963 261.161 191.963 261.16 191.962C261.159 191.962 261.158 191.961 261.157 191.961C261.156 191.96 261.155 191.959 261.154 191.959C261.153 191.958 261.152 191.958 261.151 191.957C261.15 191.957 261.148 191.956 261.147 191.956C261.146 191.955 261.145 191.955 261.144 191.954C261.143 191.953 261.142 191.953 261.141 191.952C261.14 191.952 261.138 191.951 261.137 191.951C261.136 191.95 261.135 191.949 261.134 191.949C261.133 191.948 261.132 191.948 261.131 191.947C261.129 191.947 261.128 191.946 261.127 191.945C261.126 191.945 261.125 191.944 261.124 191.944C261.122 191.943 261.121 191.943 261.12 191.942C261.119 191.941 261.118 191.941 261.117 191.94C261.115 191.94 261.114 191.939 261.113 191.938C261.112 191.938 261.111 191.937 261.109 191.937C261.108 191.936 261.107 191.936 261.106 191.935C261.105 191.934 261.103 191.934 261.102 191.933C261.101 191.932 261.1 191.932 261.099 191.931C261.097 191.931 261.096 191.93 261.095 191.929C261.094 191.929 261.092 191.928 261.091 191.928C261.09 191.927 261.089 191.926 261.088 191.926C261.086 191.925 261.085 191.924 261.084 191.924C261.083 191.923 261.081 191.923 261.08 191.922C261.079 191.921 261.077 191.921 261.076 191.92C261.075 191.919 261.074 191.919 261.072 191.918C261.071 191.918 261.07 191.917 261.069 191.916C261.067 191.916 261.066 191.915 261.065 191.914C261.063 191.914 261.062 191.913 261.061 191.912C261.059 191.912 261.058 191.911 261.057 191.91C261.056 191.91 261.054 191.909 261.053 191.908C261.052 191.908 261.05 191.907 261.049 191.906C261.048 191.906 261.046 191.905 261.045 191.904C261.044 191.904 261.042 191.903 261.041 191.902C261.039 191.902 261.038 191.901 261.037 191.9C261.035 191.9 261.034 191.899 261.033 191.898C261.031 191.898 261.03 191.897 261.029 191.896C261.027 191.896 261.026 191.895 261.024 191.894C261.023 191.893 261.022 191.893 261.02 191.892C261.019 191.891 261.017 191.891 261.016 191.89C261.015 191.889 261.013 191.889 261.012 191.888C261.01 191.887 261.009 191.886 261.008 191.886C261.006 191.885 261.005 191.884 261.003 191.884C261.002 191.883 261 191.882 260.999 191.881C260.998 191.881 260.996 191.88 260.995 191.879C260.993 191.879 260.992 191.878 260.99 191.877C260.989 191.876 260.987 191.876 260.986 191.875C260.984 191.874 260.983 191.873 260.981 191.873C260.98 191.872 260.979 191.871 260.977 191.87C260.976 191.87 260.974 191.869 260.973 191.868C260.971 191.867 260.97 191.867 260.968 191.866C260.967 191.865 260.965 191.864 260.963 191.864C260.962 191.863 260.96 191.862 260.959 191.861C260.957 191.861 260.956 191.86 260.954 191.859C260.953 191.858 260.951 191.858 260.95 191.857C260.948 191.856 260.947 191.855 260.945 191.855C260.944 191.854 260.942 191.853 260.94 191.852C260.939 191.851 260.937 191.851 260.936 191.85C260.934 191.849 260.933 191.848 260.931 191.847C260.929 191.847 260.928 191.846 260.926 191.845C260.925 191.844 260.923 191.843 260.921 191.843C260.92 191.842 260.918 191.841 260.917 191.84C260.915 191.839 260.913 191.839 260.912 191.838C260.91 191.837 260.908 191.836 260.907 191.835C260.905 191.835 260.904 191.834 260.902 191.833C260.9 191.832 260.899 191.831 260.897 191.83C260.895 191.83 260.894 191.829 260.892 191.828C260.89 191.827 260.889 191.826 260.887 191.825C260.885 191.825 260.884 191.824 260.882 191.823C260.88 191.822 260.879 191.821 260.877 191.82C260.875 191.82 260.874 191.819 260.872 191.818C260.87 191.817 260.868 191.816 260.867 191.815C260.865 191.814 260.863 191.814 260.862 191.813C260.86 191.812 260.858 191.811 260.856 191.81C260.855 191.809 260.853 191.808 260.851 191.808C260.849 191.807 260.848 191.806 260.846 191.805C260.844 191.804 260.842 191.803 260.841 191.802C260.839 191.801 260.837 191.801 260.835 191.8C260.834 191.799 260.832 191.798 260.83 191.797C260.828 191.796 260.826 191.795 260.825 191.794C260.823 191.793 260.821 191.792 260.819 191.792C260.817 191.791 260.816 191.79 260.814 191.789C260.812 191.788 260.81 191.787 260.808 191.786C260.807 191.785 260.805 191.784 260.803 191.783C260.801 191.782 260.799 191.782 260.797 191.781C260.795 191.78 260.794 191.779 260.792 191.778C260.79 191.777 260.788 191.776 260.786 191.775C260.784 191.774 260.782 191.773 260.781 191.772C260.779 191.771 260.777 191.77 260.775 191.769C260.773 191.768 260.771 191.768 260.769 191.767C260.767 191.766 260.765 191.765 260.764 191.764C260.762 191.763 260.76 191.762 260.758 191.761C260.756 191.76 260.754 191.759 260.752 191.758C260.75 191.757 260.748 191.756 260.746 191.755C260.744 191.754 260.742 191.753 260.74 191.752C260.738 191.751 260.736 191.75 260.734 191.749C260.732 191.748 260.731 191.747 260.729 191.746C260.727 191.745 260.725 191.744 260.723 191.743C260.721 191.742 260.719 191.741 260.717 191.74C260.715 191.739 260.713 191.738 260.711 191.737C260.709 191.736 260.707 191.735 260.705 191.734C260.703 191.733 260.701 191.732 260.699 191.731C260.696 191.73 260.694 191.729 260.692 191.728C260.69 191.727 260.688 191.726 260.686 191.725C260.684 191.724 260.682 191.723 260.68 191.722C260.678 191.721 260.676 191.72 260.674 191.719C260.672 191.718 260.67 191.717 260.668 191.716C260.666 191.715 260.664 191.714 260.661 191.713C260.659 191.712 260.657 191.711 260.655 191.71C260.653 191.708 260.651 191.707 260.649 191.706C260.647 191.705 260.645 191.704 260.642 191.703C260.64 191.702 260.638 191.701 260.636 191.7C260.634 191.699 260.632 191.698 260.63 191.697C260.627 191.696 260.625 191.695 260.623 191.694C260.621 191.692 260.619 191.691 260.617 191.69C260.614 191.689 260.612 191.688 260.61 191.687C260.608 191.686 260.606 191.685 260.603 191.684C260.601 191.683 260.599 191.681 260.597 191.68C260.595 191.679 260.592 191.678 260.59 191.677C260.588 191.676 260.586 191.675 260.584 191.674C260.581 191.673 260.579 191.671 260.577 191.67C260.575 191.669 260.572 191.668 260.57 191.667C260.568 191.666 260.566 191.665 260.563 191.664C260.561 191.662 260.559 191.661 260.556 191.66C260.554 191.659 260.552 191.658 260.55 191.657C260.547 191.656 260.545 191.654 260.543 191.653C260.54 191.652 260.538 191.651 260.536 191.65C260.534 191.649 260.531 191.648 260.529 191.646C260.527 191.645 260.524 191.644 260.522 191.643C260.52 191.642 260.517 191.641 260.515 191.639C260.512 191.638 260.51 191.637 260.508 191.636C260.505 191.635 260.503 191.633 260.501 191.632C260.498 191.631 260.496 191.63 260.494 191.629C260.491 191.628 260.489 191.626 260.486 191.625C260.484 191.624 260.482 191.623 260.479 191.622C260.477 191.62 260.474 191.619 260.472 191.618C260.47 191.617 260.467 191.616 260.465 191.614C260.462 191.613 260.46 191.612 260.457 191.611C260.455 191.609 260.452 191.608 260.45 191.607C260.448 191.606 260.445 191.604 260.443 191.603C260.44 191.602 260.438 191.601 260.435 191.6C260.433 191.598 260.43 191.597 260.428 191.596C260.425 191.595 260.423 191.593 260.42 191.592C260.418 191.591 260.415 191.59 260.413 191.588C260.41 191.587 260.408 191.586 260.405 191.585C260.403 191.583 260.4 191.582 260.398 191.581C260.395 191.579 260.392 191.578 260.39 191.577C260.387 191.576 260.385 191.574 260.382 191.573C260.38 191.572 260.377 191.57 260.374 191.569C260.372 191.568 260.369 191.567 260.367 191.565C260.364 191.564 260.362 191.563 260.359 191.561C260.356 191.56 260.354 191.559 260.351 191.558C260.348 191.556 260.346 191.555 260.343 191.554C260.341 191.552 260.338 191.551 260.335 191.55C260.333 191.548 260.33 191.547 260.327 191.546C260.325 191.544 260.322 191.543 260.319 191.542C260.317 191.54 260.314 191.539 260.311 191.538C260.309 191.536 260.306 191.535 260.303 191.534C260.301 191.532 260.298 191.531 260.295 191.53C260.293 191.528 260.29 191.527 260.287 191.526C260.284 191.524 260.282 191.523 260.279 191.521C260.276 191.52 260.273 191.519 260.271 191.517C260.268 191.516 260.265 191.515 260.262 191.513C260.26 191.512 260.257 191.51 260.254 191.509C260.251 191.508 260.249 191.506 260.246 191.505C260.243 191.504 260.24 191.502 260.237 191.501C260.235 191.499 260.232 191.498 260.229 191.497C260.226 191.495 260.223 191.494 260.221 191.492C260.218 191.491 260.215 191.489 260.212 191.488C260.209 191.487 260.207 191.485 260.204 191.484C260.201 191.482 260.198 191.481 260.195 191.48C260.192 191.478 260.189 191.477 260.187 191.475C260.184 191.474 260.181 191.472 260.178 191.471C260.175 191.469 260.172 191.468 260.169 191.467C260.166 191.465 260.163 191.464 260.16 191.462C260.158 191.461 260.155 191.459 260.152 191.458C260.149 191.456 260.146 191.455 260.143 191.453C260.14 191.452 260.137 191.45 260.134 191.449C260.131 191.448 260.128 191.446 260.125 191.445C260.122 191.443 260.119 191.442 260.116 191.44C260.113 191.439 260.11 191.437 260.107 191.436C260.104 191.434 260.101 191.433 260.098 191.431C260.095 191.43 260.092 191.428 260.089 191.427C260.086 191.425 260.083 191.424 260.08 191.422C260.077 191.421 260.074 191.419 260.071 191.418C260.068 191.416 260.065 191.414 260.062 191.413C260.059 191.411 260.056 191.41 260.053 191.408C260.05 191.407 260.047 191.405 260.044 191.404C260.04 191.402 260.037 191.401 260.034 191.399C260.031 191.398 260.028 191.396 260.025 191.394C260.022 191.393 260.019 191.391 260.016 191.39C260.013 191.388 260.009 191.387 260.006 191.385C260.003 191.384 260 191.382 259.997 191.38C259.994 191.379 259.99 191.377 259.987 191.376C259.984 191.374 259.981 191.372 259.978 191.371C259.975 191.369 259.971 191.368 259.968 191.366C259.965 191.364 259.962 191.363 259.959 191.361C259.955 191.36 259.952 191.358 259.949 191.356C259.946 191.355 259.943 191.353 259.939 191.352C259.936 191.35 259.933 191.348 259.93 191.347C259.926 191.345 259.923 191.343 259.92 191.342C259.917 191.34 259.913 191.339 259.91 191.337C259.907 191.335 259.903 191.334 259.9 191.332C259.897 191.33 259.894 191.329 259.89 191.327C259.887 191.325 259.884 191.324 259.88 191.322C259.877 191.32 259.874 191.319 259.87 191.317C259.867 191.315 259.864 191.314 259.86 191.312C259.857 191.31 259.854 191.309 259.85 191.307C259.847 191.305 259.843 191.304 259.84 191.302C259.837 191.3 259.833 191.299 259.83 191.297C259.827 191.295 259.823 191.294 259.82 191.292C259.816 191.29 259.813 191.288 259.81 191.287C259.806 191.285 259.803 191.283 259.799 191.282C259.796 191.28 259.792 191.278 259.789 191.276C259.785 191.275 259.782 191.273 259.779 191.271C259.775 191.27 259.772 191.268 259.768 191.266C259.765 191.264 259.761 191.263 259.758 191.261C259.754 191.259 259.751 191.257 259.747 191.256C259.744 191.254 259.74 191.252 259.737 191.25C259.733 191.249 259.73 191.247 259.726 191.245C259.723 191.243 259.719 191.241 259.715 191.24C259.712 191.238 259.708 191.236 259.705 191.234C259.701 191.233 259.698 191.231 259.694 191.229C259.691 191.227 259.687 191.225 259.683 191.224C259.68 191.222 259.676 191.22 259.673 191.218C259.669 191.216 259.665 191.215 259.662 191.213C259.658 191.211 259.654 191.209 259.651 191.207C259.647 191.206 259.644 191.204 259.64 191.202C259.636 191.2 259.633 191.198 259.629 191.196C259.625 191.195 259.622 191.193 259.618 191.191C259.614 191.189 259.611 191.187 259.607 191.185C259.603 191.184 259.599 191.182 259.596 191.18C259.592 191.178 259.588 191.176 259.585 191.174C259.581 191.172 259.577 191.171 259.573 191.169C259.57 191.167 259.566 191.165 259.562 191.163C259.558 191.161 259.555 191.159 259.551 191.157C259.547 191.156 259.543 191.154 259.54 191.152C259.536 191.15 259.532 191.148 259.528 191.146C259.524 191.144 259.521 191.142 259.517 191.14C259.513 191.138 259.509 191.136 259.505 191.135C259.501 191.133 259.498 191.131 259.494 191.129C259.49 191.127 259.486 191.125 259.482 191.123C259.478 191.121 259.474 191.119 259.471 191.117C259.467 191.115 259.463 191.113 259.459 191.111C259.455 191.109 259.451 191.108 259.447 191.106L258.553 192.894ZM261.447 192.106L259.447 191.106L258.553 192.894L260.553 193.894L261.447 192.106Z" fill="white" mask="url(#path-15-inside-1_161_2)"/>
</svg>
