<svg width="400" height="400" viewBox="0 0 564 442" fill="none" xmlns="http://www.w3.org/2000/svg">
<path d="M165.313 39.3124C166.402 39.2718 167.492 39.2312 168.615 39.1894C176.798 39.1549 181.209 41.2649 187 46.9999C188 47.9999 188 47.9999 188.098 50.0663C188.086 50.89 188.074 51.7138 188.063 52.5624C188.053 53.3887 188.044 54.215 188.035 55.0663C188.024 55.7044 188.012 56.3425 188 56.9999C188.848 56.8388 189.696 56.6777 190.57 56.5116C198.306 55.3575 206.397 55.1739 213.914 57.4882C218.499 58.6129 223.301 58.7023 228 58.9999C228 59.6599 228 60.3199 228 60.9999C231.3 60.9999 234.6 60.9999 238 60.9999C238 61.6599 238 62.3199 238 62.9999C239.32 62.9999 240.64 62.9999 242 62.9999C242 63.6599 242 64.3199 242 64.9999C242.62 65.0811 243.24 65.1623 243.879 65.246C246 65.9999 246 65.9999 247.152 67.7851C249.036 73.2471 249.008 75.7846 246.582 80.957C245.458 84.904 247.406 88.3975 249 91.9999C250.201 95.0021 251.298 97.8401 252 101C252.66 101 253.32 101 254 101C254 101.66 254 102.32 254 103C254.66 103 255.32 103 256 103C259 107.385 259 107.385 259 110C259.66 110 260.32 110 261 110C263.577 114.9 263.282 119.679 263.261 125.07C263.265 126.092 263.268 127.115 263.272 128.169C263.283 131.601 263.279 135.034 263.275 138.466C263.279 140.925 263.284 143.384 263.29 145.843C263.302 151.832 263.305 157.822 263.302 163.811C263.301 168.681 263.302 173.551 263.307 178.422C263.307 179.115 263.308 179.808 263.308 180.523C263.31 181.931 263.311 183.34 263.312 184.748C263.323 197.959 263.321 211.17 263.315 224.38C263.309 236.457 263.321 248.533 263.34 260.609C263.359 273.016 263.367 285.423 263.364 297.829C263.362 304.792 263.364 311.754 263.378 318.717C263.392 325.267 263.389 331.817 263.376 338.367C263.374 340.769 263.376 343.171 263.385 345.573C263.395 348.856 263.387 352.139 263.374 355.422C263.382 356.369 263.389 357.316 263.397 358.292C263.337 365.594 262.092 371.862 258 378C257.34 378 256.68 378 256 378C256 378.66 256 379.32 256 380C255.34 380 254.68 380 254 380C254 380.99 254 381.98 254 383C252.35 383.66 250.7 384.32 249 385C249 386.32 249 387.64 249 389C248.34 389 247.68 389 247 389C247 389.99 247 390.98 247 392C245.546 392.681 245.546 392.681 244.063 393.375C240.929 394.658 240.929 394.658 240 397C237.69 397 235.38 397 233 397C233 397.66 233 398.32 233 399C228.38 399 223.76 399 219 399C219 399.66 219 400.32 219 401C218.371 401.025 217.743 401.05 217.095 401.076C198.865 401.721 198.865 401.721 180.696 403.265C173.025 404.087 165.515 403.986 157.813 403.687C155.86 403.618 155.86 403.618 153.867 403.547C143.475 403.154 133.134 402.373 122.781 401.402C119.174 401.072 115.626 400.909 112 401C112 400.67 112 400.34 112 400C108.04 399.67 104.08 399.34 100 399C100 398.34 100 397.68 100 397C98.2056 397.093 98.2056 397.093 96.375 397.187C92.265 397.209 89.5522 396.131 86 394C86 393.34 86 392.68 86 392C84.68 391.67 83.36 391.34 82 391C82 389.02 82 387.04 82 385C81.2163 384.917 80.4325 384.835 79.625 384.75C77 384 77 384 75.6875 381.937C75.4606 381.298 75.2338 380.659 75 380C74.34 380 73.68 380 73 380C68.7616 372.87 67.2703 367.29 67.3651 359.043C67.3573 357.985 67.3495 356.927 67.3415 355.837C67.3216 352.317 67.3373 348.797 67.353 345.276C67.3463 342.743 67.3374 340.209 67.3265 337.676C67.3061 331.524 67.309 325.373 67.3236 319.221C67.3349 314.221 67.3364 309.222 67.3309 304.222C67.3302 303.509 67.3294 302.796 67.3286 302.061C67.327 300.613 67.3254 299.164 67.3238 297.716C67.3095 284.154 67.3259 270.592 67.3528 257.029C67.3751 245.397 67.3712 233.765 67.3482 222.133C67.3214 208.611 67.3109 195.09 67.3262 181.568C67.3278 180.126 67.3294 178.685 67.3309 177.243C67.3317 176.533 67.3325 175.824 67.3333 175.093C67.3376 170.099 67.3303 165.104 67.3185 160.109C67.303 153.388 67.3141 146.668 67.343 139.947C67.3496 137.479 67.3477 135.011 67.3367 132.543C67.3231 129.178 67.3401 125.814 67.3651 122.449C67.3539 121.469 67.3428 120.49 67.3313 119.48C67.3958 115.008 67.5752 111.928 70.4147 108.347C73 106 73 106 75 106C75.4022 104.948 75.4022 104.948 75.8125 103.875C79.3425 95.3287 79.3425 95.3287 82 93.9999C82 91.6899 82 89.3799 82 86.9999C82.99 86.9999 83.98 86.9999 85 86.9999C84.8144 86.3812 84.6288 85.7624 84.4375 85.1249C84 82.9999 84 82.9999 85 80.9999C83.515 80.5049 83.515 80.5049 82 79.9999C81.9456 78.417 81.9071 76.8335 81.875 75.2499C81.8518 74.3682 81.8286 73.4865 81.8047 72.5781C82.0164 69.7839 82.4306 68.3099 84 65.9999C89.3314 61.8963 94.4301 60.5567 101 59.9999C101.576 59.6661 102.152 59.3322 102.746 58.9882C106.026 57.5502 109.239 57.7886 112.75 57.8749C113.796 57.8885 113.796 57.8885 114.863 57.9023C116.576 57.9257 118.288 57.9616 120 57.9999C120.33 57.3399 120.66 56.6799 121 55.9999C127.27 55.9999 133.54 55.9999 140 55.9999C140.33 54.3499 140.66 52.6999 141 50.9999C141.66 50.9999 142.32 50.9999 143 50.9999C143 49.6799 143 48.3599 143 46.9999C143.99 46.9999 144.98 46.9999 146 46.9999C146.33 46.0099 146.66 45.0199 147 43.9999C152.412 38.9383 158.185 39.2999 165.313 39.3124ZM155 51.9999C155 52.6599 155 53.3199 155 53.9999C154.34 53.9999 153.68 53.9999 153 53.9999C154.21 57.6309 154.871 58.765 158 60.9999C163.484 62.1069 168.547 62.2964 174 60.9999C174 60.0099 174 59.0199 174 57.9999C174.66 57.9999 175.32 57.9999 176 57.9999C176 56.6799 176 55.3599 176 53.9999C175.34 53.9999 174.68 53.9999 174 53.9999C174 53.3399 174 52.6799 174 51.9999C166.959 49.3176 161.991 49.7629 155 51.9999ZM109.688 69.4374C108.881 69.5596 108.075 69.6817 107.245 69.8075C103.518 70.418 100.266 70.9776 97 72.9999C97 73.6599 97 74.3199 97 74.9999C99.97 74.9999 102.94 74.9999 106 74.9999C106 75.6599 106 76.3199 106 76.9999C106.964 77.0605 107.928 77.1211 108.922 77.1835C110.185 77.2673 111.448 77.3511 112.75 77.4374C114.629 77.5592 114.629 77.5592 116.547 77.6835C120.071 78.0064 122.848 78.4238 126 79.9999C127.449 80.0833 128.901 80.1073 130.352 80.0976C131.202 80.0944 132.053 80.0911 132.93 80.0878C134.264 80.0752 134.264 80.0752 135.625 80.0624C136.522 80.0579 137.419 80.0534 138.344 80.0488C140.563 80.037 142.781 80.0205 145 79.9999C145 79.3399 145 78.6799 145 77.9999C144.34 77.9999 143.68 77.9999 143 77.9999C143.33 77.0924 143.66 76.1849 144 75.2499C145.196 71.9295 145.196 71.9295 145 67.9999C133.156 66.2608 121.454 67.6284 109.688 69.4374ZM186 67.9999C186 71.9599 186 75.9199 186 79.9999C188.896 80.0541 191.791 80.0937 194.688 80.1249C195.504 80.1417 196.321 80.1584 197.162 80.1757C201.707 80.2125 204.785 79.7831 209 77.9999C211.763 77.6195 214.527 77.4944 217.313 77.3749C218.053 77.3363 218.794 77.2976 219.557 77.2577C221.371 77.1641 223.185 77.081 225 76.9999C225 76.6699 225 76.3399 225 75.9999C229.455 75.5049 229.455 75.5049 234 74.9999C233.34 74.6699 232.68 74.3399 232 73.9999C231.505 73.0099 231.505 73.0099 231 71.9999C230.34 72.3299 229.68 72.6599 229 72.9999C229 72.3399 229 71.6799 229 70.9999C219.208 68.4376 209.387 67.7482 199.313 67.3124C198.236 67.2641 197.16 67.2157 196.052 67.1659C195.041 67.1279 194.03 67.0899 192.988 67.0507C191.62 66.9991 191.62 66.9991 190.224 66.9465C187.959 66.8431 187.959 66.8431 186 67.9999ZM155 71.9999C159 72.9999 159 72.9999 159 72.9999L155 71.9999ZM160 71.9999C164 72.9999 164 72.9999 164 72.9999L160 71.9999ZM169 71.9999C173 72.9999 173 72.9999 173 72.9999L169 71.9999ZM96 85.9999C94.4262 89.5973 92.9268 93.1705 91.625 96.8749C90.1931 100.84 88.1487 104.275 85.8906 107.824C84.7609 110.584 85.1904 112.181 86 115C88.1035 115.195 90.2078 115.381 92.3125 115.562C93.4843 115.667 94.656 115.771 95.8633 115.879C99.0303 116.186 99.0303 116.186 102 115C102.33 115.66 102.66 116.32 103 117C106.52 117.199 110.041 117.382 113.563 117.562C114.553 117.618 115.544 117.675 116.564 117.732C121.883 117.997 126.762 117.992 132 117C132 117.66 132 118.32 132 119C139.624 119.82 147.144 120.148 154.809 120.133C155.897 120.134 156.985 120.135 158.105 120.136C160.39 120.136 162.675 120.134 164.96 120.13C168.425 120.125 171.889 120.13 175.354 120.137C177.589 120.136 179.824 120.135 182.059 120.133C183.078 120.135 184.097 120.137 185.147 120.139C193.461 120.112 201.909 120.055 210 118C212.063 117.981 214.126 118.006 216.188 118.062C220.971 118.105 225.068 117.733 229.668 116.496C233.531 115.674 237.459 115.651 241.398 115.539C244.152 115.235 244.152 115.235 245.852 112.961C246.231 112.314 246.61 111.667 247 111C245.625 109.458 245.625 109.458 244 108C243.34 108 242.68 108 242 108C242 106.68 242 105.36 242 104C241.34 104 240.68 104 240 104C239.727 102.805 239.727 102.805 239.449 101.586C238.13 96.024 236.889 90.9527 234 85.9999C232.604 86.1429 231.208 86.2894 229.813 86.4374C229.035 86.5186 228.258 86.5998 227.457 86.6835C225.022 86.9649 225.022 86.9649 222.734 87.4726C181.812 95.3647 136.881 92.0862 96 85.9999ZM79 124C77.0928 125.907 77.8689 128.73 77.8569 131.269C77.8578 132.178 77.8587 133.088 77.8596 134.026C77.8566 134.985 77.8536 135.944 77.8506 136.932C77.8418 140.171 77.8404 143.411 77.8389 146.651C77.8343 148.963 77.8292 151.275 77.8238 153.587C77.8107 159.889 77.8043 166.191 77.7998 172.493C77.7969 176.428 77.7928 180.363 77.7883 184.298C77.7762 195.192 77.7658 206.086 77.7625 216.979C77.7622 217.677 77.762 218.375 77.7618 219.094C77.7616 219.793 77.7613 220.493 77.7611 221.214C77.7607 222.631 77.7602 224.049 77.7598 225.466C77.7596 226.169 77.7593 226.872 77.7591 227.597C77.7552 238.979 77.7377 250.361 77.7144 261.743C77.6907 273.427 77.6785 285.112 77.6771 296.796C77.676 303.357 77.6701 309.918 77.6523 316.478C77.6358 322.653 77.6336 328.828 77.6424 335.003C77.6432 337.268 77.6388 339.534 77.6289 341.799C77.6162 344.895 77.6221 347.99 77.6325 351.085C77.6245 351.979 77.6164 352.874 77.6081 353.795C77.6625 360.705 78.7054 366.411 83.4375 371.75C84.706 372.864 84.706 372.864 86 374C87.0828 375.145 87.0828 375.145 88.1875 376.312C89.8312 378.227 89.8312 378.227 92 378C92.99 381.465 92.99 381.465 94 385C95.65 385 97.3 385 99 385C99 385.66 99 386.32 99 387C120.588 390.779 142.028 392.389 163.938 392.312C164.945 392.312 165.952 392.311 166.989 392.31C190.31 392.266 214.524 391.841 237 385C237.041 384.072 237.083 383.144 237.125 382.187C238 379 238 379 241.063 377.125C242.032 376.754 243.001 376.382 244 376C244 375.01 244 374.02 244 373C244.66 373 245.32 373 246 373C246 372.34 246 371.68 246 371C246.99 370.67 247.98 370.34 249 370C252.232 364.082 252.425 357.573 252.361 350.996C252.363 350.029 252.366 349.061 252.369 348.065C252.373 344.845 252.357 341.626 252.341 338.406C252.34 336.089 252.34 333.773 252.342 331.456C252.343 325.182 252.325 318.908 252.304 312.634C252.285 306.072 252.284 299.509 252.28 292.947C252.272 281.937 252.253 270.928 252.226 259.918C252.199 248.582 252.178 237.245 252.165 225.908C252.164 225.209 252.163 224.509 252.162 223.788C252.158 220.279 252.155 216.769 252.151 213.259C252.12 184.173 252.067 155.086 252 126C251.01 126 250.02 126 249 126C249 125.34 249 124.68 249 124C248.399 124.132 247.798 124.264 247.179 124.4C240.984 125.708 234.869 126.534 228.563 127.062C227.145 127.187 227.145 127.187 225.699 127.314C218.587 127.919 211.473 128.359 204.342 128.658C203.264 128.706 203.264 128.706 202.164 128.754C201.243 128.79 201.243 128.79 200.303 128.826C198.36 128.973 196.426 129.228 194.497 129.508C188.967 130.213 183.446 130.143 177.879 130.117C176.704 130.114 175.529 130.111 174.319 130.108C161.783 130.043 149.259 129.692 136.732 129.255C132.881 129.123 129.029 129.005 125.178 128.887C122.69 128.803 120.202 128.718 117.715 128.633C116.582 128.599 115.45 128.566 114.283 128.531C108.435 128.314 102.909 127.775 97.1983 126.47C94.1884 125.826 91.1734 125.522 88.1133 125.223C86.0603 125.006 84.0378 124.703 82 124.375C80.515 124.189 80.515 124.189 79 124Z" fill="white"/>
<path d="M404 89.0001C406.73 88.8917 409.456 88.8126 412.188 88.7501C412.956 88.7166 413.725 88.683 414.518 88.6485C418.571 88.5789 420.456 88.6315 423.906 90.9688C424.597 91.6391 425.288 92.3095 426 93.0001C428.182 93.7784 428.182 93.7784 430 94.0001C430 95.3201 430 96.6401 430 98.0001C430.99 98.3301 431.98 98.6601 433 99.0001C432.67 100.32 432.34 101.64 432 103C432.804 102.979 433.609 102.959 434.438 102.938C437 103 437 103 438 104C440.526 104.241 443.03 104.424 445.562 104.563C446.6 104.627 446.6 104.627 447.658 104.693C451.227 104.903 454.764 105.01 458.34 104.965C462 105 462 105 465 106C465 106.66 465 107.32 465 108C468.3 108 471.6 108 475 108C475 108.66 475 109.32 475 110C476.176 110.124 476.176 110.124 477.375 110.25C480 111 480 111 481.312 113.063C481.653 114.022 481.653 114.022 482 115C482.66 115 483.32 115 484 115C484 117.97 484 120.94 484 124C483.34 124 482.68 124 482 124C482.144 124.603 482.289 125.207 482.438 125.828C482.623 126.627 482.809 127.427 483 128.25C483.186 129.039 483.371 129.828 483.562 130.641C484 133 484 133 484 137C484.66 137 485.32 137 486 137C489 142.75 489 142.75 489 145C489.66 145 490.32 145 491 145C491 145.99 491 146.98 491 148C491.66 148 492.32 148 493 148C493 148.66 493 149.32 493 150C493.99 150.33 494.98 150.66 496 151C496.747 156.989 497.144 162.811 497.127 168.842C497.129 169.685 497.13 170.527 497.132 171.396C497.136 174.193 497.133 176.991 497.129 179.789C497.131 181.805 497.133 183.822 497.135 185.838C497.139 191.296 497.137 196.755 497.134 202.214C497.132 207.935 497.134 213.656 497.136 219.378C497.138 228.984 497.135 238.591 497.13 248.197C497.125 259.293 497.127 270.388 497.132 281.484C497.137 291.022 497.137 300.56 497.135 310.099C497.133 315.79 497.133 321.482 497.136 327.173C497.139 332.525 497.137 337.876 497.131 343.228C497.13 345.188 497.13 347.149 497.133 349.109C497.135 351.792 497.132 354.475 497.127 357.158C497.129 357.927 497.131 358.696 497.134 359.489C497.115 364.725 496.648 369.803 496 375C495.34 375 494.68 375 494 375C493.814 376.145 493.814 376.145 493.625 377.313C493 380 493 380 491 383C490.34 383 489.68 383 489 383C489 383.66 489 384.32 489 385C488.34 385 487.68 385 487 385C486.67 385.99 486.34 386.98 486 388C483.723 391.415 481.147 394.365 478 397C474.688 397.313 474.688 397.313 472 397C472 397.66 472 398.32 472 399C468.37 399 464.74 399 461 399C461 399.66 461 400.32 461 401C460.441 401.025 459.883 401.05 459.307 401.076C456.725 401.194 454.144 401.316 451.562 401.438C450.684 401.477 449.806 401.516 448.9 401.557C443.96 401.794 439.076 402.176 434.164 402.757C425.608 403.718 416.846 404.539 408.305 403.25C405.352 402.93 402.47 403.01 399.5 403.063C389.054 403.159 378.68 402.109 368.284 401.184C366.05 400.973 366.05 400.973 364 401C364 400.34 364 399.68 364 399C363.18 399.023 362.36 399.046 361.516 399.07C360.438 399.088 359.36 399.106 358.25 399.125C357.183 399.148 356.115 399.171 355.016 399.195C352.022 399.002 350.532 398.51 348 397C346.339 396.32 344.673 395.651 343 395C343 394.34 343 393.68 343 393C342.34 393 341.68 393 341 393C340.505 391.515 340.505 391.515 340 390C340.33 389.34 340.66 388.68 341 388C339.35 387.67 337.7 387.34 336 387C336 386.34 336 385.68 336 385C335.34 385 334.68 385 334 385C331 380.615 331 380.615 331 378C330.34 378 329.68 378 329 378C329 375.69 329 373.38 329 371C328.34 371 327.68 371 327 371C327 299.72 327 228.44 327 155C327.66 155 328.32 155 329 155C329 153.35 329 151.7 329 150C329.66 150 330.32 150 331 150C331.33 149.01 331.66 148.02 332 147C333.333 145.667 334.667 144.333 336 143C336 142.34 336 141.68 336 141C336.66 140.34 337.32 139.68 338 139C339.954 135.782 340.494 132.707 341 129C341.66 129 342.32 129 343 129C342.427 126.133 342.139 125.139 340 123C339.73 120.312 339.913 117.709 340 115C340.99 115 341.98 115 343 115C343 114.01 343 113.02 343 112C346 110 346 110 350 110C350 109.34 350 108.68 350 108C352.97 108 355.94 108 359 108C359 107.34 359 106.68 359 106C359.932 105.939 360.864 105.879 361.824 105.816C368.259 105.394 374.693 104.964 381.125 104.5C382.138 104.428 383.151 104.356 384.195 104.281C386.852 104.015 389.394 103.573 392 103C392 101.02 392 99.0401 392 97.0001C392.99 96.6701 393.98 96.3401 395 96.0001C395 95.3401 395 94.6801 395 94.0001C395.66 94.0001 396.32 94.0001 397 94.0001C397 93.3401 397 92.6801 397 92.0001C400.465 91.5051 400.465 91.5051 404 91.0001C404 90.3401 404 89.6801 404 89.0001ZM409 99.0001C409 99.6601 409 100.32 409 101C407.35 101 405.7 101 404 101C404 101.99 404 102.98 404 104C403.01 104.495 403.01 104.495 402 105C404.021 107.905 405.298 108.058 408.875 108.75C412.098 109.041 414.891 109.037 418 108C418.33 107.34 418.66 106.68 419 106C421.062 105.375 421.062 105.375 423 105C422.34 103.68 421.68 102.36 421 101C419.35 101 417.7 101 416 101C416 100.34 416 99.6801 416 99.0001C413.69 99.0001 411.38 99.0001 409 99.0001ZM430 114C429.67 117.63 429.34 121.26 429 125C439.424 125.269 439.424 125.269 449.633 123.504C453.793 122.618 458.037 122.542 462.277 122.344C465.144 122.264 465.144 122.264 467 120C467.99 119.34 468.98 118.68 470 118C469.175 117.876 468.35 117.753 467.5 117.625C464 117 464 117 460.555 116C454.977 114.588 449.351 114.541 443.625 114.375C442.533 114.336 441.441 114.298 440.316 114.258C435.159 114.069 435.159 114.069 430 114ZM367 115C367 115.66 367 116.32 367 117C366.154 116.794 365.309 116.588 364.438 116.375C360.464 115.942 357.754 116.724 354 118C354 118.33 354 118.66 354 119C355.207 119.186 355.207 119.186 356.438 119.375C357.706 119.684 357.706 119.684 359 120C359.33 120.66 359.66 121.32 360 122C362.414 122.51 362.414 122.51 365.25 122.688C366.204 122.774 367.158 122.86 368.141 122.949C370.934 122.999 373.293 122.657 376 122C376 122.66 376 123.32 376 124C378.249 124.196 380.5 124.381 382.75 124.563C384.629 124.719 384.629 124.719 386.547 124.879C390.403 125.062 390.403 125.062 394 124C395.159 120.522 394.708 118.541 394 115C384.784 114.051 376.196 113.686 367 115ZM470 129C470 129.66 470 130.32 470 131C469.357 130.977 468.714 130.954 468.051 130.93C462.947 130.828 458.156 131.05 453.125 131.938C446.209 133.119 439.334 133.413 432.334 133.658C428.791 133.788 425.384 133.936 421.883 134.52C418.187 135.136 414.547 135.146 410.812 135.125C410.102 135.129 409.391 135.133 408.658 135.137C405.504 135.131 403.013 135.005 400 134C398.489 133.876 396.973 133.799 395.457 133.754C394.105 133.706 394.105 133.706 392.725 133.658C391.764 133.627 390.803 133.595 389.812 133.563C382.885 133.3 376.056 132.888 369.188 131.938C361.108 130.775 361.108 130.775 353 131C350.955 132.869 350.955 132.869 350 136C349.664 136.821 349.327 137.642 348.98 138.488C348.259 140.25 347.554 142.018 346.867 143.793C346 146 346 146 345 148C345.33 148.66 345.66 149.32 346 150C345.01 150 344.02 150 343 150C342.67 151.32 342.34 152.64 342 154C346.84 155.459 351.868 155.427 356.883 155.719C360 156 360 156 362 157C365.76 157.368 369.539 157.469 373.312 157.625C374.882 157.702 374.882 157.702 376.482 157.781C377.495 157.825 378.508 157.869 379.551 157.914C380.475 157.955 381.4 157.996 382.353 158.038C385.026 158 387.402 157.608 390 157C390 157.66 390 158.32 390 159C390.66 158.67 391.32 158.34 392 158C394 157.96 396 157.957 398 158C398 158.33 398 158.66 398 159C402.093 159.025 406.187 159.043 410.28 159.055C411.673 159.06 413.066 159.067 414.459 159.076C416.46 159.088 418.46 159.093 420.461 159.098C421.665 159.103 422.87 159.108 424.111 159.114C426.941 159.201 426.941 159.201 429 158C431.529 157.952 434.035 157.958 436.562 158C442.87 158.054 449.14 157.927 455.438 157.563C456.165 157.523 456.892 157.484 457.641 157.443C461.447 157.249 461.447 157.249 465 156C467.546 155.768 470.074 155.581 472.625 155.438C473.331 155.394 474.038 155.351 474.766 155.307C476.51 155.201 478.255 155.1 480 155C479.67 154.01 479.34 153.02 479 152C479.99 151.67 480.98 151.34 482 151C481.361 150.423 480.721 149.845 480.062 149.25C478.018 147.019 477.418 145.926 477 143C476.34 143 475.68 143 475 143C475.041 142.113 475.082 141.226 475.125 140.313C475 136.987 474.374 134.99 473 132C472.67 131.01 472.34 130.02 472 129C471.34 129 470.68 129 470 129ZM338 164C337.799 190.33 337.616 216.659 337.453 242.989C337.378 255.215 337.296 267.44 337.201 279.666C337.118 290.322 337.046 300.978 336.987 311.634C336.955 317.276 336.918 322.918 336.868 328.559C336.821 333.872 336.789 339.183 336.767 344.496C336.757 346.444 336.741 348.391 336.72 350.339C336.691 353.003 336.682 355.667 336.677 358.331C336.665 359.098 336.652 359.865 336.639 360.654C336.657 366.04 337.88 370.046 340 375C340.99 375 341.98 375 343 375C343 375.99 343 376.98 343 378C343.66 378 344.32 378 345 378C345 378.66 345 379.32 345 380C345.99 380 346.98 380 348 380C348.289 380.949 348.577 381.898 348.875 382.875C349.768 386.052 349.768 386.052 352 388C357.517 389.705 362.83 390.356 368.582 390.754C371 391 371 391 374 392C375.509 392.136 377.022 392.224 378.535 392.281C379.874 392.337 379.874 392.337 381.24 392.395C382.172 392.429 383.103 392.464 384.062 392.5C389.29 392.701 394.47 392.912 399.664 393.555C406.152 394.243 412.634 393.938 419.139 393.703C421.298 393.626 423.456 393.558 425.615 393.492C437.12 393.124 448.601 392.674 459.938 390.563C460.639 390.441 461.341 390.319 462.064 390.193C466.176 389.451 470.148 388.639 474 387C475.225 383.992 475.225 383.992 476 381C476.99 380.67 477.98 380.34 479 380C479 379.34 479 378.68 479 378C479.99 378 480.98 378 482 378C482 377.01 482 376.02 482 375C482.66 375 483.32 375 484 375C487.403 370.809 487.418 366.747 487.361 361.578C487.363 360.733 487.366 359.887 487.369 359.016C487.373 356.185 487.357 353.354 487.341 350.522C487.34 348.492 487.34 346.462 487.342 344.431C487.343 338.919 487.325 333.408 487.304 327.896C487.285 322.135 487.284 316.375 487.28 310.615C487.271 299.707 487.246 288.799 487.216 277.891C487.183 265.473 487.166 253.055 487.151 240.636C487.12 215.091 487.067 189.546 487 164C484.792 163.973 482.583 163.954 480.375 163.938C479.145 163.926 477.915 163.914 476.648 163.902C473.316 163.992 470.268 164.38 467 165C465.13 165.199 463.257 165.377 461.383 165.535C460.364 165.622 459.346 165.709 458.297 165.799C457.25 165.886 456.203 165.973 455.125 166.063C454.055 166.153 452.985 166.244 451.883 166.338C449.255 166.561 446.628 166.781 444 167C444 167.66 444 168.32 444 169C443.01 168.505 443.01 168.505 442 168C440.101 167.904 438.198 167.872 436.297 167.871C435.102 167.868 433.908 167.864 432.677 167.861C430.733 167.864 430.733 167.864 428.75 167.867C427.412 167.867 426.075 167.866 424.737 167.864C421.933 167.863 419.129 167.865 416.324 167.87C412.726 167.875 409.128 167.872 405.53 167.866C402.767 167.863 400.005 167.864 397.243 167.866C395.27 167.867 393.296 167.864 391.323 167.861C390.129 167.864 388.934 167.867 387.703 167.871C386.648 167.871 385.592 167.872 384.505 167.873C382.002 167.832 382.002 167.832 380 169C380 168.34 380 167.68 380 167C379.228 166.945 378.456 166.889 377.661 166.832C374.169 166.58 370.678 166.321 367.188 166.063C365.973 165.976 364.758 165.889 363.506 165.799C362.342 165.712 361.179 165.625 359.98 165.535C358.907 165.457 357.833 165.378 356.727 165.297C354 165 354 165 351 164C348.772 163.931 346.542 163.916 344.312 163.938C343.133 163.947 341.954 163.956 340.738 163.965C339.383 163.982 339.383 163.982 338 164Z" fill="white"/>
<path d="M483 143C488.154 144.364 491.066 147.726 494 152C494 152.66 494 153.32 494 154C494.66 154 495.32 154 496 154C496.966 158.848 497.141 163.557 497.127 168.482C497.129 169.322 497.13 170.161 497.132 171.027C497.136 173.834 497.133 176.641 497.129 179.448C497.131 181.464 497.133 183.48 497.135 185.496C497.139 190.967 497.137 196.438 497.134 201.909C497.132 207.639 497.134 213.368 497.136 219.097C497.138 228.722 497.135 238.346 497.13 247.971C497.125 259.089 497.127 270.206 497.132 281.324C497.137 290.875 497.137 300.426 497.135 309.976C497.133 315.678 497.133 321.38 497.136 327.081C497.139 332.445 497.137 337.809 497.131 343.173C497.13 345.138 497.13 347.103 497.133 349.069C497.135 351.758 497.132 354.448 497.127 357.138C497.129 357.909 497.131 358.68 497.134 359.475C497.115 364.715 496.649 369.799 496 375C495.34 375 494.68 375 494 375C493.814 376.145 493.814 376.145 493.625 377.312C493 380 493 380 491 383C490.34 383 489.68 383 489 383C489 383.66 489 384.32 489 385C488.34 385 487.68 385 487 385C486.67 385.99 486.34 386.98 486 388C483.723 391.415 481.147 394.365 478 397C474.688 397.312 474.688 397.312 472 397C472 397.66 472 398.32 472 399C468.37 399 464.74 399 461 399C461 399.66 461 400.32 461 401C460.441 401.025 459.883 401.05 459.307 401.076C456.725 401.193 454.144 401.315 451.562 401.438C450.684 401.477 449.806 401.516 448.9 401.557C443.96 401.794 439.076 402.176 434.164 402.757C425.608 403.718 416.846 404.539 408.305 403.25C405.352 402.93 402.47 403.01 399.5 403.062C389.054 403.159 378.68 402.109 368.284 401.184C366.05 400.973 366.05 400.973 364 401C364 400.34 364 399.68 364 399C363.18 399.023 362.36 399.046 361.516 399.07C360.438 399.088 359.36 399.106 358.25 399.125C357.183 399.148 356.115 399.171 355.016 399.195C352.022 399.001 350.532 398.51 348 397C346.339 396.32 344.673 395.651 343 395C343 394.34 343 393.68 343 393C342.34 393 341.68 393 341 393C340.67 392.01 340.34 391.02 340 390C340.495 389.01 340.495 389.01 341 388C339.35 387.67 337.7 387.34 336 387C336 386.34 336 385.68 336 385C335.34 385 334.68 385 334 385C333.34 383.68 332.68 382.36 332 381C334.64 380.01 337.28 379.02 340 378C339.67 376.35 339.34 374.7 339 373C340.32 373.66 341.64 374.32 343 375C343 375.99 343 376.98 343 378C343.66 378 344.32 378 345 378C345 378.66 345 379.32 345 380C345.99 380 346.98 380 348 380C348.495 381.114 348.99 382.227 349.5 383.375C351.361 386.591 351.863 386.947 355.562 388.375C359.861 389.127 364.231 389.453 368.582 389.754C371 390 371 390 374 391C375.509 391.135 377.022 391.224 378.535 391.281C379.874 391.337 379.874 391.337 381.24 391.395C382.172 391.429 383.103 391.464 384.062 391.5C389.29 391.701 394.47 391.912 399.664 392.555C406.152 393.243 412.634 392.938 419.139 392.703C421.298 392.626 423.456 392.558 425.615 392.492C437.128 392.123 448.605 391.686 459.938 389.5C461.342 389.239 462.747 388.979 464.152 388.719C466.057 388.363 466.057 388.363 468 388C469.999 387.661 471.999 387.326 474 387C474.33 385.02 474.66 383.04 475 381C476.32 380.67 477.64 380.34 479 380C479 379.34 479 378.68 479 378C479.99 378 480.98 378 482 378C482 377.01 482 376.02 482 375C482.66 375 483.32 375 484 375C484.144 374.361 484.289 373.721 484.438 373.062C485 371 485 371 486 370C486.098 367.357 486.13 364.74 486.12 362.097C486.121 361.259 486.122 360.421 486.123 359.558C486.125 356.728 486.119 353.898 486.114 351.068C486.113 349.048 486.113 347.028 486.114 345.009C486.114 339.507 486.108 334.005 486.101 328.503C486.095 322.76 486.095 317.017 486.093 311.274C486.09 300.391 486.082 289.508 486.072 278.625C486.061 266.238 486.055 253.851 486.05 241.464C486.04 215.976 486.022 190.488 486 165C483.958 164.973 481.917 164.953 479.875 164.938C478.738 164.926 477.601 164.914 476.43 164.902C473.181 164.995 470.189 165.401 467 166C459.326 166.86 451.717 167.137 444 167C444 167.66 444 168.32 444 169C422.88 169 401.76 169 380 169C380 168.34 380 167.68 380 167C379.296 167.012 378.592 167.023 377.867 167.035C357.659 167.22 357.659 167.22 351 165C349.146 164.956 347.291 164.961 345.438 165C340.222 165.111 340.222 165.111 338 164C338 232.31 338 300.62 338 371C335.472 367.208 335.724 364.199 335.753 359.808C335.75 358.963 335.748 358.118 335.745 357.247C335.74 354.405 335.748 351.563 335.757 348.721C335.756 346.688 335.754 344.654 335.751 342.621C335.746 337.09 335.754 331.559 335.764 326.028C335.773 320.247 335.771 314.466 335.771 308.685C335.772 298.975 335.781 289.264 335.794 279.553C335.81 268.319 335.815 257.085 335.814 245.851C335.814 235.056 335.819 224.26 335.827 213.464C335.831 208.865 335.833 204.266 335.833 199.667C335.834 194.252 335.84 188.837 335.85 183.423C335.853 181.433 335.854 179.443 335.854 177.453C335.853 174.742 335.859 172.031 335.866 169.319C335.864 168.132 335.864 168.132 335.862 166.92C335.892 160.087 335.892 160.087 337 157C342.194 153.537 347.177 153.897 353.25 154.375C355.083 154.51 355.083 154.51 356.953 154.648C360 155 360 155 362 156C363.68 156.153 365.365 156.249 367.051 156.316C368.059 156.358 369.068 156.4 370.107 156.443C371.165 156.483 372.223 156.522 373.312 156.562C374.359 156.606 375.405 156.649 376.482 156.693C382.129 156.931 382.129 156.931 387.778 156.949C390 157 390 157 391 158C391 157.67 391 157.34 391 157C393.97 157 396.94 157 400 157C400 157.33 400 157.66 400 158C407.26 158 414.52 158 422 158C422 157.67 422 157.34 422 157C422.638 157.005 423.276 157.01 423.933 157.016C439.911 157.137 439.911 157.137 455.875 156.562C456.925 156.504 456.925 156.504 457.996 156.444C461.62 156.224 461.62 156.224 465 155C466.521 154.916 468.047 154.893 469.57 154.902C470.466 154.906 471.362 154.909 472.285 154.912C473.222 154.92 474.159 154.929 475.125 154.938C476.07 154.942 477.015 154.947 477.988 154.951C480.326 154.963 482.663 154.979 485 155C484.499 154.08 483.997 153.159 483.48 152.211C481.783 148.529 481.992 146.85 483 143Z" fill="white"/>
<path d="M75 106C73.8906 109.487 72.7366 112.775 71 116C70.34 116 69.68 116 69 116C69.0591 147.712 69.1335 179.425 69.229 211.137C69.2403 214.882 69.2514 218.627 69.2625 222.372C69.2658 223.49 69.2658 223.49 69.2691 224.631C69.3045 236.699 69.3294 248.767 69.3504 260.834C69.3721 273.219 69.4052 285.604 69.4487 297.989C69.4752 305.63 69.4929 313.27 69.4994 320.911C69.5052 326.772 69.5269 332.633 69.5543 338.495C69.5631 340.897 69.5668 343.3 69.565 345.702C69.5634 348.984 69.5801 352.265 69.6013 355.547C69.5964 356.496 69.5916 357.446 69.5866 358.424C69.6491 364.284 70.6324 368.628 73 374C74.32 373.67 75.64 373.34 77 373C77.9379 367.95 77.9379 367.95 77 363C76.911 361.63 76.8763 360.256 76.877 358.883C76.875 358.041 76.873 357.199 76.8709 356.331C76.8738 355.406 76.8768 354.481 76.8798 353.528C76.8789 352.545 76.8781 351.563 76.8772 350.55C76.8755 347.243 76.881 343.936 76.8865 340.628C76.8868 338.263 76.8866 335.898 76.886 333.533C76.8858 327.769 76.8901 322.004 76.8965 316.239C76.9036 309.532 76.9051 302.825 76.9063 296.118C76.9085 284.157 76.9151 272.196 76.9246 260.235C76.9338 248.615 76.9408 236.994 76.9451 225.374C76.9453 224.658 76.9456 223.942 76.9459 223.204C76.9472 219.612 76.9485 216.02 76.9497 212.427C76.9601 182.618 76.9778 152.809 77 123C78.32 123.33 79.64 123.66 81 124C80.34 124.33 79.68 124.66 79 125C78.9316 154.929 78.8785 184.858 78.8468 214.786C78.8431 218.321 78.8392 221.856 78.8352 225.391C78.8344 226.094 78.8336 226.798 78.8328 227.523C78.8198 238.912 78.7961 250.3 78.7686 261.689C78.7405 273.378 78.7238 285.067 78.7178 296.756C78.7138 303.32 78.7046 309.884 78.6828 316.448C78.6625 322.627 78.6562 328.806 78.6607 334.984C78.6599 337.252 78.6539 339.519 78.6424 341.786C78.6275 344.884 78.6311 347.981 78.6393 351.078C78.6305 351.973 78.6218 352.868 78.6128 353.79C78.6599 360.406 79.5524 366.264 84.125 371.375C85.0531 372.179 85.0531 372.179 86 373C86.33 373.66 86.66 374.32 87 375C87.99 375.33 88.98 375.66 90 376C90 376.66 90 377.32 90 378C90.66 378 91.32 378 92 378C94 382.75 94 382.75 94 385C95.65 385 97.3 385 99 385C99 385.66 99 386.32 99 387C99.5504 387.049 100.101 387.098 100.668 387.148C107.301 387.745 113.932 388.369 120.563 389C121.436 389.083 122.31 389.166 123.21 389.251C124.07 389.333 124.93 389.415 125.816 389.5C126.574 389.572 127.331 389.644 128.112 389.719C129.807 389.884 131.501 390.056 133.194 390.247C139.189 390.899 145.105 391.173 151.133 391.203C152.076 391.21 153.019 391.217 153.991 391.224C157.036 391.241 160.08 391.247 163.125 391.25C164.684 391.253 164.684 391.253 166.275 391.255C201.292 391.831 201.292 391.831 235 384C235.66 384.33 236.32 384.66 237 385C237 383.02 237 381.04 237 379C238.207 378.567 238.207 378.567 239.438 378.125C242.133 377.267 242.133 377.267 243 375C243 375.99 243 376.98 243 378C242.01 378.66 241.02 379.32 240 380C239.67 380.99 239.34 381.98 239 383C240.65 382.67 242.3 382.34 244 382C244 382.99 244 383.98 244 385C243.34 385 242.68 385 242 385C242 386.65 242 388.3 242 390C243.65 389.67 245.3 389.34 247 389C247 389.99 247 390.98 247 392C245.546 392.681 245.546 392.681 244.063 393.375C240.929 394.658 240.929 394.658 240 397C237.69 397 235.38 397 233 397C233 397.66 233 398.32 233 399C228.38 399 223.76 399 219 399C219 399.66 219 400.32 219 401C218.371 401.025 217.743 401.05 217.095 401.076C198.865 401.721 198.865 401.721 180.696 403.265C173.025 404.087 165.515 403.986 157.813 403.688C155.86 403.618 155.86 403.618 153.867 403.547C143.475 403.154 133.134 402.373 122.781 401.402C119.174 401.072 115.626 400.909 112 401C112 400.67 112 400.34 112 400C108.04 399.67 104.08 399.34 100 399C100 398.34 100 397.68 100 397C98.2056 397.093 98.2056 397.093 96.375 397.188C92.265 397.209 89.5522 396.131 86 394C86 393.34 86 392.68 86 392C84.68 391.67 83.36 391.34 82 391C82 389.02 82 387.04 82 385C81.2163 384.917 80.4325 384.835 79.625 384.75C77 384 77 384 75.6875 381.938C75.4606 381.298 75.2338 380.659 75 380C74.34 380 73.68 380 73 380C68.7616 372.87 67.2703 367.29 67.3651 359.043C67.3573 357.985 67.3495 356.927 67.3415 355.837C67.3216 352.317 67.3373 348.797 67.353 345.276C67.3463 342.743 67.3374 340.209 67.3265 337.676C67.3061 331.524 67.309 325.373 67.3236 319.221C67.3349 314.221 67.3364 309.222 67.3309 304.222C67.3302 303.509 67.3294 302.796 67.3286 302.061C67.327 300.613 67.3254 299.164 67.3238 297.716C67.3095 284.154 67.3259 270.592 67.3528 257.029C67.3751 245.397 67.3712 233.765 67.3482 222.133C67.3214 208.611 67.3109 195.09 67.3262 181.568C67.3278 180.126 67.3294 178.685 67.3309 177.243C67.3317 176.533 67.3325 175.824 67.3333 175.093C67.3376 170.099 67.3303 165.104 67.3185 160.109C67.303 153.388 67.3141 146.668 67.343 139.947C67.3496 137.479 67.3477 135.011 67.3367 132.544C67.3231 129.178 67.3401 125.814 67.3651 122.449C67.3539 121.469 67.3428 120.49 67.3313 119.481C67.3958 115.008 67.5752 111.928 70.4147 108.347C73 106 73 106 75 106Z" fill="white"/>
<path d="M333 149C334.32 149 335.64 149 337 149C337 149.66 337 150.32 337 151C337.66 151 338.32 151 339 151C339.33 152.65 339.66 154.3 340 156C339.01 156.33 338.02 156.66 337 157C337.33 157.99 337.66 158.98 338 160C337.67 160.33 337.34 160.66 337 161C336.902 163.706 336.87 166.386 336.88 169.093C336.878 170.38 336.878 170.38 336.877 171.694C336.875 174.593 336.881 177.492 336.886 180.391C336.887 182.46 336.887 184.529 336.886 186.598C336.886 192.234 336.892 197.87 336.899 203.507C336.905 209.39 336.905 215.273 336.907 221.156C336.91 232.305 336.918 243.453 336.928 254.602C336.939 267.291 336.945 279.98 336.95 292.669C336.96 318.78 336.978 344.89 337 371C337.66 371 338.32 371 339 371C339 372.98 339 374.96 339 377C339.66 377.33 340.32 377.66 341 378C337.356 380.429 335.288 380.162 331 380C331 379.34 331 378.68 331 378C330.34 378 329.68 378 329 378C329 375.69 329 373.38 329 371C328.34 371 327.68 371 327 371C327 299.72 327 228.44 327 155C327.99 155 328.98 155 330 155C330.309 154.196 330.619 153.391 330.938 152.562C332 150 332 150 333 149Z" fill="white"/>
<path d="M339 373C340.32 373.66 341.64 374.32 343 375C343 375.99 343 376.98 343 378C343.66 378 344.32 378 345 378C345 378.66 345 379.32 345 380C345.99 380 346.98 380 348 380C348.495 381.114 348.99 382.227 349.5 383.375C351.361 386.591 351.863 386.947 355.562 388.375C359.861 389.127 364.231 389.453 368.582 389.754C371 390 371 390 374 391C375.509 391.135 377.022 391.224 378.535 391.281C379.874 391.337 379.874 391.337 381.24 391.395C382.637 391.447 382.637 391.447 384.062 391.5C389.29 391.701 394.47 391.912 399.664 392.555C406.152 393.243 412.634 392.938 419.139 392.703C421.298 392.626 423.456 392.558 425.615 392.492C437.128 392.123 448.605 391.686 459.938 389.5C461.342 389.239 462.747 388.979 464.152 388.719C465.422 388.482 466.692 388.244 468 388C469.999 387.661 471.999 387.326 474 387C474.33 385.02 474.66 383.04 475 381C476.32 380.67 477.64 380.34 479 380C478.34 380.99 477.68 381.98 477 383C476.181 385.512 476.181 385.512 476 388C476.99 388.99 476.99 388.99 478 390C478.99 389.67 479.98 389.34 481 389C481 388.34 481 387.68 481 387C480.01 386.505 480.01 386.505 479 386C480.65 386.33 482.3 386.66 484 387C483.702 390.477 482.988 392.015 480.812 394.812C477.541 397.357 476.039 397.47 472 397C472 397.66 472 398.32 472 399C468.37 399 464.74 399 461 399C461 399.66 461 400.32 461 401C460.441 401.025 459.883 401.05 459.307 401.076C456.725 401.193 454.144 401.315 451.562 401.438C450.245 401.496 450.245 401.496 448.9 401.557C443.96 401.794 439.076 402.176 434.164 402.757C425.608 403.718 416.846 404.539 408.305 403.25C405.352 402.93 402.47 403.01 399.5 403.062C389.054 403.159 378.68 402.109 368.284 401.184C366.05 400.973 366.05 400.973 364 401C364 400.34 364 399.68 364 399C362.77 399.035 362.77 399.035 361.516 399.07C359.899 399.097 359.899 399.097 358.25 399.125C357.183 399.148 356.115 399.171 355.016 399.195C352.022 399.001 350.532 398.51 348 397C346.339 396.32 344.673 395.651 343 395C343 394.34 343 393.68 343 393C342.34 393 341.68 393 341 393C340.67 392.01 340.34 391.02 340 390C340.33 389.34 340.66 388.68 341 388C339.35 387.67 337.7 387.34 336 387C336 386.34 336 385.68 336 385C335.34 385 334.68 385 334 385C333.34 383.68 332.68 382.36 332 381C334.64 380.01 337.28 379.02 340 378C339.67 376.35 339.34 374.7 339 373Z" fill="white"/>
<path d="M100 171C100.33 171 100.66 171 101 171C103.41 176.717 103.403 182.271 103.562 188.375C103.738 194.189 103.96 199.876 104.757 205.643C105.385 211.732 105.405 217.884 105.562 224C105.583 224.777 105.604 225.554 105.626 226.355C107.439 295.363 107.439 295.363 104 319C103.74 323.231 103.611 327.468 103.482 331.705C103.29 336.491 102.825 340.5 101 345C100.34 344.67 99.68 344.34 99 344C98.4023 341.199 98.4023 341.199 97.9375 337.688C97.4293 333.439 97.4293 333.439 96.4885 329.281C95.7809 325.977 95.783 322.677 95.7188 319.312C95.7003 318.573 95.6819 317.833 95.663 317.072C95.5846 313.917 95.5167 310.763 95.4478 307.608C95.3959 305.301 95.3387 302.994 95.2812 300.688C95.2609 299.622 95.2609 299.622 95.2401 298.534C95.1687 294.799 95.1687 294.799 94.4962 291.141C93.875 288.461 93.8728 285.989 93.8706 283.238C93.8675 282.08 93.8643 280.922 93.8611 279.729C93.8631 278.485 93.8651 277.24 93.8672 275.957C93.8662 274.678 93.8653 273.398 93.8643 272.08C93.8628 269.378 93.865 266.675 93.8696 263.973C93.8753 260.502 93.872 257.032 93.8661 253.562C93.8616 250.256 93.8647 246.95 93.8672 243.645C93.8652 242.394 93.8631 241.143 93.8611 239.854C93.8642 238.705 93.8674 237.557 93.8706 236.374C93.8714 235.358 93.8722 234.342 93.873 233.295C94 231 94 231 95 230C95.1589 228.07 95.2514 226.135 95.3164 224.199C95.3583 222.993 95.4002 221.787 95.4434 220.545C95.4827 219.272 95.522 217.999 95.5625 216.688C95.6057 215.457 95.6489 214.227 95.6934 212.959C95.9186 206.192 96.0337 199.447 95.9238 192.676C96.0325 188.858 96.7249 185.222 97.4922 181.488C97.942 179.284 98.2808 177.106 98.5625 174.875C99 172 99 172 100 171Z" fill="white"/>
<path d="M355 202C355.99 202.33 356.98 202.66 358 203C358.921 209.46 359.27 215.857 359.5 222.375C359.228 234.512 359.228 234.512 362 246C362.097 248.046 362.131 250.096 362.133 252.145C362.135 253.996 362.135 253.996 362.137 255.885C362.133 257.181 362.129 258.477 362.125 259.812C362.129 261.097 362.133 262.382 362.137 263.705C362.135 264.943 362.134 266.181 362.133 267.457C362.132 268.591 362.131 269.725 362.129 270.894C362.011 273.724 361.599 276.24 361 279C360.87 282.515 360.962 285.752 361.496 289.23C362.02 293.152 362.191 296.989 362.187 300.938C362.188 301.674 362.189 302.411 362.189 303.169C362.136 308.901 361.538 314.448 360.709 320.112C360.071 324.688 359.954 329.073 360.062 333.688C360.191 340.814 358.936 347.165 357 354C356.34 353.67 355.68 353.34 355 353C354.402 350.348 354.402 350.348 353.937 347.062C353.419 342.891 353.419 342.891 352 339C351.927 337.47 351.916 335.937 351.937 334.406C351.946 333.466 351.954 332.526 351.963 331.557C351.975 330.548 351.987 329.539 352 328.5C352.047 320.861 351.983 313.254 351.562 305.625C351.523 304.865 351.484 304.105 351.443 303.322C351.515 299.866 351.515 299.866 350 297C349.641 290.906 350.055 285.024 351 279C351.127 275.897 351.047 273.234 350.437 270.188C350.058 267.423 350.086 265.615 350.441 262.906C351.024 258.044 351.293 253.203 351.5 248.312C351.541 247.414 351.583 246.516 351.625 245.59C351.844 240.794 352.039 235.997 352.215 231.199C352.592 221.327 353.111 211.72 355 202ZM351 263C352 265 352 265 352 265L351 263Z" fill="white"/>
<path d="M404 89.0001C406.73 88.8917 409.456 88.8126 412.188 88.7501C412.956 88.7166 413.725 88.683 414.518 88.6485C418.571 88.5789 420.456 88.6315 423.906 90.9688C424.597 91.6391 425.288 92.3095 426 93.0001C428.182 93.7784 428.182 93.7784 430 94.0001C430 95.3201 430 96.6401 430 98.0001C430.99 98.3301 431.98 98.6601 433 99.0001C432.67 100.32 432.34 101.64 432 103C432.804 102.979 433.609 102.959 434.438 102.938C437 103 437 103 438 104C440.526 104.241 443.03 104.424 445.562 104.563C446.254 104.606 446.946 104.649 447.658 104.693C451.227 104.903 454.764 105.01 458.34 104.965C462 105 462 105 465 106C465 106.66 465 107.32 465 108C468.3 108 471.6 108 475 108C475 108.66 475 109.32 475 110C476.176 110.124 476.176 110.124 477.375 110.25C480 111 480 111 481.312 113.063C481.539 113.702 481.766 114.341 482 115C482.66 115 483.32 115 484 115C484 117.97 484 120.94 484 124C483.34 124 482.68 124 482 124C482 121.69 482 119.38 482 117C480.515 117.495 480.515 117.495 479 118C478.34 117.67 477.68 117.34 477 117C476.67 118.98 476.34 120.96 476 123C475.34 123 474.68 123 474 123C474 122.34 474 121.68 474 121C469.545 121.495 469.545 121.495 465 122C465.33 121.01 465.66 120.02 466 119C466.99 118.505 466.99 118.505 468 118C467.301 117.939 466.603 117.879 465.883 117.816C464.973 117.733 464.063 117.649 463.125 117.563C462.22 117.481 461.315 117.4 460.383 117.316C458 117 458 117 456 116C454.211 115.859 452.418 115.774 450.625 115.719C449.558 115.681 448.49 115.644 447.391 115.606C446.272 115.571 445.153 115.536 444 115.5C441.792 115.431 439.583 115.359 437.375 115.281C436.393 115.251 435.41 115.221 434.398 115.19C432 115 432 115 430 114C430 117.3 430 120.6 430 124C433.96 124 437.92 124 442 124C442 124.66 442 125.32 442 126C436.72 126 431.44 126 426 126C426.66 124.68 427.32 123.36 428 122C428.168 119.333 428.168 119.333 428 117C427.34 117 426.68 117 426 117C425.67 117.66 425.34 118.32 425 119C417.74 119 410.48 119 403 119C403 118.01 403 117.02 403 116C404.12 116.035 405.24 116.07 406.395 116.106C407.867 116.134 409.34 116.161 410.812 116.188C411.55 116.213 412.288 116.238 413.049 116.264C417.32 116.381 417.32 116.381 421.012 114.488C421.501 113.752 421.501 113.752 422 113C421.34 112.01 420.68 111.02 420 110C417.303 109.749 417.303 109.749 414.25 110C409.397 110.111 405.974 110.115 402 107C401.125 104.313 401.125 104.313 401 102C405.07 98.7725 407.894 97.8783 413.062 98.0001C416.673 98.1563 416.673 98.1563 420 97.0001C420 96.0101 420 95.0201 420 94.0001C420.99 94.0001 421.98 94.0001 423 94.0001C423 93.3401 423 92.6801 423 92.0001C421.298 92.2785 421.298 92.2785 419.562 92.5626C417.799 92.7791 417.799 92.7791 416 93.0001C415.67 92.6701 415.34 92.3401 415 92.0001C413.151 91.7664 411.295 91.587 409.438 91.4376C408.426 91.3538 407.414 91.27 406.371 91.1837C405.197 91.0928 405.197 91.0928 404 91.0001C404 90.3401 404 89.6801 404 89.0001ZM409 99.0001C409 99.6601 409 100.32 409 101C407.35 101 405.7 101 404 101C404 101.99 404 102.98 404 104C403.01 104.495 403.01 104.495 402 105C404.021 107.905 405.298 108.058 408.875 108.75C412.098 109.041 414.891 109.037 418 108C418.33 107.34 418.66 106.68 419 106C421.062 105.375 421.062 105.375 423 105C422.34 103.68 421.68 102.36 421 101C419.35 101 417.7 101 416 101C416 100.34 416 99.6801 416 99.0001C413.69 99.0001 411.38 99.0001 409 99.0001Z" fill="white"/>
<path d="M231 171C231.66 171 232.32 171 233 171C234.532 177.127 235.35 182.998 235.754 189.301C235.904 191.864 235.904 191.864 236.491 193.734C237.622 198.769 237.44 204.069 237.613 209.217C237.687 211.361 237.778 213.505 237.869 215.648C237.918 217.023 237.965 218.398 238.012 219.773C238.058 221.015 238.104 222.257 238.151 223.537C237.996 227.082 237.216 229.689 236 233C235.645 236.816 235.498 240.613 235.344 244.441C235.026 247.726 234.407 250.043 233 253C230 252 230 252 228 249C227.805 245.645 227.805 245.645 227.875 241.812C227.893 240.54 227.911 239.268 227.93 237.957C227.953 236.981 227.976 236.005 228 235C227.34 235 226.68 235 226 235C224.849 227.682 224.852 220.459 224.875 213.062C224.871 211.839 224.867 210.615 224.863 209.354C224.883 191.117 224.883 191.117 227 189C227.237 186.474 227.422 183.969 227.562 181.438C227.606 180.727 227.649 180.016 227.693 179.283C227.8 177.522 227.9 175.761 228 174C228.66 174 229.32 174 230 174C230.33 173.01 230.66 172.02 231 171Z" fill="white"/>
<path d="M404 91.0001C403.443 91.4126 402.886 91.8251 402.312 92.2501C401.549 92.8276 400.786 93.4051 400 94.0001C398.701 94.8354 398.701 94.8354 397.375 95.6876C394.2 98.7787 393.441 101.65 393 106C393.369 108.769 393.369 108.769 394 111C393.67 111.66 393.34 112.32 393 113C393.66 113 394.32 113 395 113C395 115.64 395 118.28 395 121C394.67 121 394.34 121 394 121C394 119.02 394 117.04 394 115C385.09 115 376.18 115 367 115C367 115.66 367 116.32 367 117C363.37 117.33 359.74 117.66 356 118C357.32 118.66 358.64 119.32 360 120C360 120.66 360 121.32 360 122C362.31 122 364.62 122 367 122C367 122.33 367 122.66 367 123C360.666 123.346 355.897 122.294 350 120C351.375 118.5 351.375 118.5 353 117C353.66 117 354.32 117 355 117C355 116.34 355 115.68 355 115C353.025 115.348 353.025 115.348 351 116C350.67 116.66 350.34 117.32 350 118C349.01 118 348.02 118 347 118C346.34 118.66 345.68 119.32 345 120C345 119.34 345 118.68 345 118C344.34 118 343.68 118 343 118C343.186 118.908 343.371 119.815 343.562 120.75C343.957 123.683 343.947 125.265 343 128C342.505 126.515 342.505 126.515 342 125C341.34 124.34 340.68 123.68 340 123C339.73 120.312 339.913 117.709 340 115C340.99 115 341.98 115 343 115C343 114.01 343 113.02 343 112C346 110 346 110 350 110C350 109.34 350 108.68 350 108C352.97 108 355.94 108 359 108C359 107.34 359 106.68 359 106C359.932 105.94 360.864 105.879 361.824 105.817C368.259 105.394 374.693 104.964 381.125 104.5C382.138 104.428 383.151 104.356 384.195 104.281C386.852 104.015 389.394 103.573 392 103C392 101.02 392 99.0401 392 97.0001C392.99 96.6701 393.98 96.3401 395 96.0001C395 95.3401 395 94.6801 395 94.0001C395.66 94.0001 396.32 94.0001 397 94.0001C397 93.3401 397 92.6801 397 92.0001C399.463 90.7687 401.279 90.9285 404 91.0001Z" fill="white"/>
<path d="M468 202C470.626 203.313 470.695 204.324 471.625 207.062C472.614 210.171 473.16 212.804 473.063 216.062C472.81 219.976 472.81 219.976 474 223.5C476.787 233.734 475.05 245.419 473.712 255.796C473.143 260.243 472.906 264.515 473 269C471.515 269.495 471.515 269.495 470 270C469.267 272.015 469.267 272.015 469 274C467 271 467 271 467 268C466.34 268 465.68 268 465 268C465 260.74 465 253.48 465 246C464.34 246 463.68 246 463 246C463.186 245.257 463.371 244.515 463.563 243.75C464.009 240.941 463.731 239.679 463 237C462.962 235 462.955 232.999 463 231C463.66 231 464.32 231 465 231C464.965 229.828 464.93 228.656 464.895 227.449C464.712 218.499 464.847 210.521 468 202ZM464 235C465 237 465 237 465 237L464 235Z" fill="white"/>
<path d="M248 123C249.65 123 251.3 123 253 123C253.068 153.583 253.122 184.166 253.153 214.748C253.157 218.36 253.161 221.971 253.165 225.582C253.166 226.301 253.166 227.02 253.167 227.76C253.18 239.399 253.204 251.037 253.231 262.675C253.26 274.618 253.276 286.561 253.282 298.504C253.286 305.212 253.295 311.92 253.317 318.628C253.338 324.94 253.344 331.253 253.339 337.565C253.34 339.883 253.346 342.201 253.358 344.518C253.373 347.682 253.369 350.845 253.361 354.009C253.37 354.926 253.378 355.844 253.387 356.789C253.333 364.559 251.462 370.185 246 376C245.34 376 244.68 376 244 376C244 375.01 244 374.02 244 373C244.66 373 245.32 373 246 373C246 372.34 246 371.68 246 371C246.66 370.67 247.32 370.34 248 370C250.816 364.135 251.43 358.345 251.354 351.935C251.357 350.635 251.357 350.635 251.36 349.308C251.362 346.428 251.343 343.548 251.325 340.667C251.322 338.591 251.321 336.516 251.321 334.44C251.318 329.98 251.306 325.519 251.287 321.058C251.255 313.986 251.245 306.915 251.238 299.843C251.223 288.637 251.194 277.432 251.16 266.227C251.098 246.213 251.06 226.198 251.028 206.183C251.016 199.173 250.998 192.163 250.974 185.153C250.96 180.763 250.951 176.372 250.942 171.981C250.937 169.967 250.93 167.954 250.921 165.941C250.864 152.595 251.246 139.325 252 126C251.01 126 250.02 126 249 126C248.67 125.01 248.34 124.02 248 123Z" fill="white"/>
<path d="M409.375 90.875C410.779 90.8711 410.779 90.8711 412.211 90.8672C414.911 90.9958 417.361 91.4439 420 92C420.99 92 421.98 92 423 92C423 92.66 423 93.32 423 94C422.01 94 421.02 94 420 94C419.67 95.65 419.34 97.3 419 99C418.276 98.9652 417.551 98.9304 416.805 98.8945C411.06 98.7337 406.987 98.7653 402 102C402.106 104.452 402.106 104.452 403 107C406.809 109.042 410.043 109.219 414.312 109.125C415.381 109.107 416.45 109.089 417.551 109.07C418.763 109.036 418.763 109.036 420 109C420.33 109.99 420.66 110.98 421 112C421.66 112.33 422.32 112.66 423 113C420.618 116.034 419.515 116.935 415.617 117.426C413.765 117.37 413.765 117.37 411.875 117.312C410.635 117.288 409.395 117.264 408.117 117.238C405 117 405 117 403 116C402.67 116.99 402.34 117.98 402 119C402 117.68 402 116.36 402 115C400.02 115 398.04 115 396 115C395.67 115.66 395.34 116.32 395 117C395 115.68 395 114.36 395 113C394.34 113 393.68 113 393 113C391.888 107.661 391.567 103.028 394 98C398.511 92.8794 402.527 90.8562 409.375 90.875Z" fill="white"/>
<path d="M336 162C344.813 161.969 344.813 161.969 348 162.5C349.485 162.747 349.485 162.747 351 163C351 163.33 351 163.66 351 164C349.209 164.194 347.417 164.38 345.625 164.562C344.128 164.719 344.128 164.719 342.602 164.879C340 165 340 165 338 164C338 232.31 338 300.62 338 371C335.473 367.209 335.727 364.208 335.76 359.818C335.758 358.975 335.756 358.131 335.754 357.262C335.751 354.424 335.762 351.587 335.773 348.749C335.774 346.719 335.773 344.689 335.772 342.659C335.772 337.139 335.783 331.619 335.797 326.098C335.81 320.333 335.811 314.567 335.813 308.801C335.82 297.879 335.836 286.957 335.856 276.035C335.878 263.602 335.889 251.169 335.899 238.737C335.92 213.158 335.955 187.579 336 162Z" fill="white"/>
<path d="M75 106C73.8906 109.487 72.7366 112.775 71 116C70.34 116 69.68 116 69 116C69.0363 147.678 69.093 179.357 69.1779 211.035C69.188 214.777 69.1978 218.52 69.2075 222.262C69.2095 223.007 69.2114 223.752 69.2134 224.52C69.2444 236.573 69.2614 248.626 69.2732 260.68C69.2856 273.054 69.3132 285.427 69.3546 297.801C69.3797 305.432 69.3931 313.063 69.3914 320.695C69.3914 326.553 69.4124 332.411 69.4412 338.269C69.4497 340.667 69.4514 343.066 69.4458 345.464C69.4392 348.745 69.4571 352.025 69.481 355.306C69.4733 356.25 69.4655 357.194 69.4575 358.166C69.5744 367.264 72.6385 374.724 78 382C77.01 382 76.02 382 75 382C75 381.34 75 380.68 75 380C74.34 380 73.68 380 73 380C68.7616 372.87 67.2703 367.29 67.3651 359.043C67.3573 357.985 67.3495 356.927 67.3415 355.837C67.3216 352.317 67.3373 348.797 67.353 345.276C67.3463 342.743 67.3374 340.209 67.3265 337.676C67.3061 331.524 67.309 325.373 67.3236 319.221C67.3349 314.221 67.3364 309.222 67.3309 304.222C67.3302 303.509 67.3294 302.796 67.3286 302.061C67.327 300.613 67.3254 299.164 67.3238 297.716C67.3095 284.154 67.3259 270.592 67.3528 257.029C67.3751 245.397 67.3712 233.765 67.3482 222.133C67.3214 208.611 67.3109 195.09 67.3262 181.568C67.3278 180.126 67.3294 178.685 67.3309 177.243C67.3317 176.533 67.3325 175.824 67.3333 175.093C67.3376 170.099 67.3303 165.104 67.3185 160.109C67.303 153.388 67.3141 146.668 67.343 139.947C67.3496 137.479 67.3477 135.011 67.3367 132.544C67.3231 129.178 67.3401 125.814 67.3651 122.449C67.3539 121.469 67.3428 120.49 67.3313 119.481C67.3958 115.008 67.5752 111.928 70.4147 108.347C73 106 73 106 75 106Z" fill="white"/>
<path d="M341 129C341.66 129 342.32 129 343 129C343 130.32 343 131.64 343 133C343.66 133 344.32 133 345 133C345 132.34 345 131.68 345 131C349.592 129.171 352.974 128.875 357.875 129.375C359.027 129.486 360.18 129.597 361.367 129.711C362.236 129.806 363.105 129.902 364 130C363.34 130.66 362.68 131.32 362 132C359.836 131.977 359.836 131.977 357.375 131.625C356.558 131.514 355.74 131.403 354.898 131.289C354.272 131.194 353.645 131.098 353 131C352.818 131.58 352.636 132.16 352.449 132.758C350.954 137.404 349.228 141.646 347 146C346.314 148.235 346.314 148.235 346 150C345.01 150 344.02 150 343 150C343 150.66 343 151.32 343 152C343.66 152.33 344.32 152.66 345 153C344.67 153.66 344.34 154.32 344 155C342.35 155 340.7 155 339 155C339 153.68 339 152.36 339 151C338.34 151 337.68 151 337 151C337 150.34 337 149.68 337 149C333.086 150.269 331.209 151.512 329 155C329 153.35 329 151.7 329 150C329.66 150 330.32 150 331 150C331.33 149.01 331.66 148.02 332 147C334 145 334 145 336 143C336 142.34 336 141.68 336 141C336.66 140.34 337.32 139.68 338 139C339.954 135.781 340.494 132.707 341 129Z" fill="white"/>
<path d="M230 85C231.98 85 233.96 85 236 85C236.41 86.1434 236.82 87.2868 237.242 88.4648C237.786 89.9559 238.33 91.4467 238.875 92.9375C239.144 93.6922 239.414 94.447 239.691 95.2246C240.916 99.351 240.916 99.351 244 102C244.124 100.783 244.248 99.5662 244.375 98.3125C244.789 94.9352 245.546 92.1024 247 89C250.236 92.2359 250.989 96.621 252 101C252.66 101 253.32 101 254 101C254 101.66 254 102.32 254 103C254.66 103 255.32 103 256 103C259 107.385 259 107.385 259 110C259.66 110 260.32 110 261 110C260.67 110.99 260.34 111.98 260 113C258.02 110.69 256.04 108.38 254 106C251.702 109.851 251.702 109.851 252 114C249.291 115.354 246.991 115.065 244 115C244.33 114.01 244.66 113.02 245 112C244.611 109.857 244.611 109.857 244 108C243.34 108 242.68 108 242 108C242 106.68 242 105.36 242 104C241.34 104 240.68 104 240 104C239.734 103.192 239.469 102.384 239.195 101.551C238.842 100.482 238.489 99.4135 238.125 98.3125C237.777 97.2568 237.429 96.201 237.07 95.1133C235.556 89.6034 235.556 89.6034 231.875 85.6875C231.256 85.4606 230.637 85.2338 230 85Z" fill="white"/>
<path d="M488 162C488 229.98 488 297.96 488 368C487.67 368 487.34 368 487 368C486.67 301.01 486.34 234.02 486 165C482.04 165 478.08 165 474 165C473.67 164.34 473.34 163.68 473 163C474.75 162.831 476.5 162.665 478.25 162.5C479.225 162.407 480.199 162.314 481.203 162.219C483.463 162.042 485.733 162 488 162Z" fill="white"/>
<path d="M481 124C481.33 124 481.66 124 482 124C482.339 125.415 482.671 126.832 483 128.25C483.278 129.433 483.278 129.433 483.562 130.641C484 133 484 133 484 137C484.66 137 485.32 137 486 137C489 142.75 489 142.75 489 145C489.66 145 490.32 145 491 145C491 145.99 491 146.98 491 148C491.66 148 492.32 148 493 148C493 148.66 493 149.32 493 150C493.99 150.33 494.98 150.66 496 151C495.67 151.99 495.34 152.98 495 154C492.427 151.427 489.856 148.853 487.312 146.25C485.214 143.981 485.214 143.981 483 143C483.186 143.598 483.371 144.196 483.562 144.812C484 147 484 147 483 150C483.879 152.657 483.879 152.657 485 155C483.35 155 481.7 155 480 155C479 152 479 152 479 151C478.67 150.402 478.34 149.804 478 149.188C477 147 477 147 477 143C476.34 143 475.68 143 475 143C474.327 140.668 473.662 138.335 473 136C472.752 135.237 472.505 134.474 472.25 133.688C472.167 133.131 472.085 132.574 472 132C472.66 131.34 473.32 130.68 474 130C474.33 131.32 474.66 132.64 475 134C477.064 133.513 477.064 133.513 479 132C479.742 128.475 479.742 128.475 480 125C480.33 124.67 480.66 124.34 481 124Z" fill="white"/>
<path d="M337 162C343.93 162.495 343.93 162.495 351 163C351 163.33 351 163.66 351 164C349.209 164.195 347.417 164.381 345.625 164.562C344.128 164.719 344.128 164.719 342.602 164.879C340 165 340 165 338 164C338 225.71 338 287.42 338 351C337.67 351 337.34 351 337 351C337 288.63 337 226.26 337 162Z" fill="white"/>
<path d="M96 210C96.33 210 96.66 210 97 210C96.9978 210.93 96.9956 211.86 96.9933 212.817C96.9727 221.712 96.9579 230.607 96.9482 239.502C96.943 244.072 96.9361 248.641 96.9246 253.211C96.8583 280.195 97.3448 307.059 99 334C95.8054 329.208 95.8267 324.963 95.7188 319.312C95.6911 318.203 95.6911 318.203 95.663 317.072C95.5846 313.917 95.5167 310.763 95.4478 307.608C95.3959 305.301 95.3387 302.994 95.2812 300.688C95.2677 299.977 95.2541 299.266 95.2401 298.534C95.1687 294.799 95.1687 294.799 94.4962 291.141C93.875 288.461 93.8728 285.989 93.8706 283.238C93.8675 282.08 93.8643 280.922 93.8611 279.729C93.8631 278.485 93.8651 277.24 93.8672 275.957C93.8662 274.678 93.8653 273.398 93.8643 272.08C93.8628 269.378 93.865 266.675 93.8696 263.973C93.8753 260.502 93.872 257.032 93.8661 253.562C93.8616 250.256 93.8647 246.95 93.8672 243.645C93.8652 242.394 93.8631 241.143 93.8611 239.854C93.8642 238.705 93.8674 237.557 93.8706 236.374C93.8714 235.358 93.8722 234.342 93.873 233.295C94 231 94 231 95 230C95.1566 228.514 95.2507 227.021 95.3164 225.527C95.3583 224.628 95.4002 223.729 95.4434 222.803C95.4827 221.857 95.522 220.912 95.5625 219.938C95.6273 218.513 95.6273 218.513 95.6934 217.061C95.7998 214.707 95.9018 212.354 96 210Z" fill="#E8E7E8"/>
<path d="M79 368C82.8511 369.284 85.1742 371.348 87 375C87.99 375.33 88.98 375.66 90 376C90 376.66 90 377.32 90 378C87.525 377.01 87.525 377.01 85 376C84.67 376.66 84.34 377.32 84 378C83.01 378 82.02 378 81 378C81 378.66 81 379.32 81 380C81.99 379.67 82.98 379.34 84 379C84.1031 379.639 84.2062 380.279 84.3125 380.938C84.5394 381.618 84.7662 382.299 85 383C85.99 383.33 86.98 383.66 88 384C87.67 385.65 87.34 387.3 87 389C86.34 389 85.68 389 85 389C85.33 389.99 85.66 390.98 86 392C84.68 391.67 83.36 391.34 82 391C82 389.02 82 387.04 82 385C80.35 384.67 78.7 384.34 77 384C76.8969 383.443 76.7938 382.886 76.6875 382.312C76.065 379.849 76.065 379.849 74.375 377.375C73.9212 376.591 73.4675 375.808 73 375C73.33 374.34 73.66 373.68 74 373C74.99 373 75.98 373 77 373C77.66 371.35 78.32 369.7 79 368Z" fill="white"/>
<path d="M339 373C340.32 373.66 341.64 374.32 343 375C343 375.99 343 376.98 343 378C343.66 378 344.32 378 345 378C345 378.66 345 379.32 345 380C345.99 380 346.98 380 348 380C349.32 382.64 350.64 385.28 352 388C351.01 387.67 350.02 387.34 349 387C349 386.34 349 385.68 349 385C347.68 384.67 346.36 384.34 345 384C344.222 386.333 343.576 388.614 343 391C344.98 392.32 346.96 393.64 349 395C348.34 395.66 347.68 396.32 347 397C345.68 396.34 344.36 395.68 343 395C343 394.34 343 393.68 343 393C342.34 393 341.68 393 341 393C340.67 392.01 340.34 391.02 340 390C340.33 389.34 340.66 388.68 341 388C339.35 387.67 337.7 387.34 336 387C336 386.34 336 385.68 336 385C335.34 385 334.68 385 334 385C333.34 383.68 332.68 382.36 332 381C334.64 380.01 337.28 379.02 340 378C339.67 376.35 339.34 374.7 339 373Z" fill="white"/>
<path d="M467 108C469.64 108 472.28 108 475 108C475 108.66 475 109.32 475 110C475.784 110.083 476.567 110.165 477.375 110.25C480 111 480 111 481.312 113.062C481.653 114.022 481.653 114.022 482 115C482.66 115 483.32 115 484 115C484 117.97 484 120.94 484 124C483.34 124 482.68 124 482 124C482 121.69 482 119.38 482 117C481.01 117.33 480.02 117.66 479 118C478.34 117.67 477.68 117.34 477 117C476.67 118.98 476.34 120.96 476 123C475.34 123 474.68 123 474 123C474 122.34 474 121.68 474 121C469.545 121.495 469.545 121.495 465 122C465.33 121.01 465.66 120.02 466 119C468 118 468 118 471 117C471 116.34 471 115.68 471 115C470.34 115 469.68 115 469 115C469 114.34 469 113.68 469 113C469.66 113 470.32 113 471 113C471 111.68 471 110.36 471 109C469.68 108.67 468.36 108.34 467 108Z" fill="white"/>
<path d="M341 129C341.66 129 342.32 129 343 129C343 130.32 343 131.64 343 133C343.66 133 344.32 133 345 133C345 132.34 345 131.68 345 131C349.592 129.171 352.974 128.875 357.875 129.375C359.027 129.486 360.18 129.597 361.367 129.711C362.236 129.806 363.105 129.902 364 130C363.34 130.66 362.68 131.32 362 132C359.836 131.977 359.836 131.977 357.375 131.625C356.558 131.514 355.74 131.403 354.898 131.289C354.272 131.194 353.645 131.098 353 131C352.752 131.784 352.505 132.567 352.25 133.375C350.792 136.436 349.92 136.587 347 138C346.195 140.05 346.195 140.05 346 142C345.237 142.124 344.474 142.248 343.688 142.375C340.797 142.881 340.797 142.881 338 145C337.75 138.375 337.75 138.375 340 135C340.39 133.01 340.732 131.01 341 129Z" fill="white"/>
<path d="M351 164C351.803 164.06 352.606 164.12 353.433 164.182C375.377 165.774 397.183 166.264 419.179 166.137C423.244 166.116 427.308 166.108 431.373 166.098C439.249 166.077 447.124 166.043 455 166C455 166.33 455 166.66 455 167C451.37 167 447.74 167 444 167C444 167.66 444 168.32 444 169C422.88 169 401.76 169 380 169C380 168.34 380 167.68 380 167C378.944 167.017 378.944 167.017 377.867 167.035C355.854 167.236 355.854 167.236 351 164Z" fill="white"/>
<path d="M75 106C73.8906 109.487 72.7366 112.775 71 116C70.34 116 69.68 116 69 116C69 148.01 69 180.02 69 213C68.67 213 68.34 213 68 213C67.8841 199.935 67.7953 186.87 67.7409 173.805C67.7148 167.738 67.6795 161.671 67.6228 155.604C67.5685 149.75 67.5386 143.895 67.5256 138.04C67.5164 135.806 67.4983 133.573 67.4713 131.339C67.435 128.21 67.4301 125.082 67.4324 121.953C67.4144 121.03 67.3964 120.107 67.3779 119.156C67.4129 114.784 67.636 111.873 70.4105 108.378C73 106 73 106 75 106Z" fill="#787777"/>
<path d="M352 241C352.33 241 352.66 241 353 241C353 265.75 353 290.5 353 316C352.67 316 352.34 316 352 316C351.939 314.712 351.879 313.424 351.816 312.098C351.732 310.419 351.647 308.741 351.562 307.062C351.523 306.212 351.484 305.362 351.443 304.486C351.401 303.677 351.36 302.869 351.316 302.035C351.28 301.286 351.243 300.537 351.205 299.766C351.182 297.975 351.182 297.975 350 297C349.641 290.906 350.055 285.024 351 279C351.127 275.897 351.047 273.234 350.437 270.188C349.992 266.944 350.247 264.153 350.676 260.922C351.118 256.934 351.338 252.942 351.562 248.938C351.606 248.162 351.65 247.387 351.695 246.589C351.798 244.726 351.899 242.863 352 241ZM351 263C352 265 352 265 352 265L351 263Z" fill="white"/>
<path d="M353 324C353.33 324 353.66 324 354 324C354.33 327.96 354.66 331.92 355 336C355.99 336 356.98 336 358 336C358 332.37 358 328.74 358 325C358.66 325.33 359.32 325.66 360 326C360.369 335.881 359.717 344.411 357 354C356.34 353.67 355.68 353.34 355 353C354.402 350.348 354.402 350.348 353.938 347.062C353.419 342.891 353.419 342.891 352 339C351.903 337.023 351.87 335.042 351.875 333.062C351.872 332.002 351.87 330.941 351.867 329.848C352 327 352 327 353 324Z" fill="white"/>
<path d="M377 157C379.146 156.973 381.292 156.954 383.438 156.938C384.632 156.926 385.827 156.914 387.059 156.902C390 157 390 157 391 158C391 157.67 391 157.34 391 157C393.97 157 396.94 157 400 157C400 157.33 400 157.66 400 158C407.26 158 414.52 158 422 158C422 157.67 422 157.34 422 157C429.755 156.901 437.311 156.939 445 158C445 158.33 445 158.66 445 159C434.414 160.089 423.883 160.154 413.252 160.13C410.374 160.125 407.495 160.13 404.617 160.137C382.909 160.148 382.909 160.148 378 159C377.67 158.34 377.34 157.68 377 157Z" fill="white"/>
<path d="M355 202C355.99 202.33 356.98 202.66 358 203C358.857 209.167 359.287 215.282 359.562 221.5C359.606 222.418 359.649 223.336 359.693 224.281C359.798 226.521 359.9 228.76 360 231C359.34 231 358.68 231 358 231C357.939 230.241 357.879 229.481 357.816 228.699C357.733 227.705 357.649 226.711 357.562 225.688C357.481 224.701 357.4 223.715 357.316 222.699C357.082 219.906 357.082 219.906 356 217C355.34 223.93 354.68 230.86 354 238C353.34 237.67 352.68 237.34 352 237C352.781 213.418 352.781 213.418 355 202Z" fill="white"/>
<path d="M134 401C154.46 401 174.92 401 196 401C196 401.33 196 401.66 196 402C195.189 402.061 194.378 402.121 193.543 402.184C192.436 402.267 191.328 402.351 190.188 402.438C189.109 402.519 188.03 402.6 186.918 402.684C184.82 402.853 182.722 403.032 180.63 403.271C172.652 404.142 164.822 403.942 156.812 403.625C155.498 403.581 154.184 403.537 152.83 403.492C146.497 403.262 140.269 402.94 134 402C134 401.67 134 401.34 134 401Z" fill="white"/>
<path d="M100 171C100.33 171 100.66 171 101 171C103.241 176.382 103.237 181.157 103.125 186.875C103.116 187.754 103.107 188.633 103.098 189.539C103.074 191.693 103.038 193.846 103 196C102.67 196 102.34 196 102 196C101.939 195.218 101.879 194.435 101.816 193.629C101.733 192.617 101.649 191.605 101.562 190.562C101.481 189.553 101.4 188.544 101.316 187.504C101.268 185.064 101.268 185.064 100 184C98.7932 189.077 98.6719 194.19 98.4824 199.381C98.216 204.784 98.216 204.784 96 207C95.7971 197.385 95.9275 188.438 98 179C98.201 177.627 98.3904 176.252 98.5625 174.875C99 172 99 172 100 171Z" fill="#C2C1C2"/>
<path d="M383 401C402.14 401 421.28 401 441 401C441 401.33 441 401.66 441 402C418.677 404.841 418.677 404.841 408.371 403.254C405.053 402.899 401.774 402.97 398.438 403C393.169 403.042 388.195 402.848 383 402C383 401.67 383 401.34 383 401Z" fill="white"/>
<path d="M378 133C400.44 133 422.88 133 446 133C446 133.33 446 133.66 446 134C445.395 134.025 444.791 134.05 444.167 134.076C441.403 134.193 438.639 134.315 435.875 134.438C434.924 134.477 433.972 134.516 432.992 134.557C428.235 134.771 423.699 135.216 419 136C416.259 136.091 413.551 136.14 410.812 136.125C410.102 136.129 409.391 136.133 408.658 136.137C405.504 136.131 403.013 136.004 400 135C398.301 134.852 396.598 134.753 394.895 134.684C393.42 134.621 393.42 134.621 391.916 134.557C390.892 134.517 389.868 134.478 388.812 134.438C387.777 134.394 386.741 134.351 385.674 134.307C383.116 134.201 380.558 134.098 378 134C378 133.67 378 133.34 378 133Z" fill="white"/>
<path d="M467 207C467.33 207 467.66 207 468 207C468.075 210.896 467.95 214.243 467 218C466.849 220.907 466.744 223.795 466.684 226.703C466.663 227.541 466.642 228.379 466.621 229.242C466.555 231.911 466.496 234.581 466.438 237.25C466.394 239.063 466.351 240.875 466.307 242.688C466.2 247.125 466.098 251.562 466 256C465.67 256 465.34 256 465 256C465 252.7 465 249.4 465 246C464.34 246 463.68 246 463 246C463.186 245.257 463.371 244.515 463.563 243.75C464.009 240.941 463.731 239.679 463 237C462.962 235 462.955 232.999 463 231C463.66 231 464.32 231 465 231C464.977 229.77 464.954 228.54 464.93 227.273C464.911 225.641 464.893 224.008 464.875 222.375C464.858 221.567 464.842 220.759 464.824 219.926C464.786 215.199 465.173 211.446 467 207ZM464 235C465 237 465 237 465 237L464 235Z" fill="white"/>
<path d="M102 318C102.66 318.33 103.32 318.66 104 319C103.889 322.209 103.759 325.417 103.625 328.625C103.594 329.529 103.563 330.432 103.531 331.363C103.317 336.254 102.876 340.408 101 345C100.34 344.67 99.68 344.34 99 344C97.2953 338.266 97.996 331.832 99 326C99.66 325.34 100.32 324.68 101 324C101.398 322.012 101.738 320.011 102 318Z" fill="#838282"/>
<path d="M465 257C465.66 257 466.32 257 467 257C467 258.65 467 260.3 467 262C468.65 261.34 470.3 260.68 472 260C472.911 263.073 473.089 265.801 473 269C472.01 269.33 471.02 269.66 470 270C469.267 272.015 469.267 272.015 469 274C467 271 467 271 467 268C466.34 268 465.68 268 465 268C465 264.37 465 260.74 465 257Z" fill="white"/>
<path d="M227 189C227.33 189 227.66 189 228 189C228 204.18 228 219.36 228 235C227.34 235 226.68 235 226 235C224.849 227.682 224.852 220.459 224.875 213.062C224.871 211.839 224.867 210.615 224.863 209.354C224.883 191.117 224.883 191.117 227 189Z" fill="#EAEAEA"/>
<path d="M84 375C90.7692 378.446 90.7692 378.446 91.9375 381.25C91.9581 381.827 91.9787 382.405 92 383C91.34 383 90.68 383 90 383C90 383.99 90 384.98 90 386C90.66 386.33 91.32 386.66 92 387C91.34 387 90.68 387 90 387C90 387.66 90 388.32 90 389C88.35 389.33 86.7 389.66 85 390C85.66 388.02 86.32 386.04 87 384C85.7103 382.624 84.3731 381.292 83 380C82.34 380 81.68 380 81 380C81 379.34 81 378.68 81 378C81.99 378 82.98 378 84 378C84 377.01 84 376.02 84 375Z" fill="white"/>
<path d="M472 220C477.859 231.719 475.014 246.482 473 259C472.67 259 472.34 259 472 259C472 246.13 472 233.26 472 220Z" fill="white"/>
<path d="M360 286C360.33 286 360.66 286 361 286C361.821 291.04 362.192 295.951 362.187 301.062C362.188 301.793 362.189 302.524 362.189 303.277C362.122 310.302 361.228 317.081 360 324C359.67 324 359.34 324 359 324C358.794 296.836 358.794 296.836 360 286Z" fill="white"/>
<path d="M244 376C244.99 376.33 245.98 376.66 247 377C246.814 377.619 246.629 378.238 246.438 378.875C245.763 381.042 245.763 381.042 247 383C247.04 385 247.043 387 247 389C245.35 389.33 243.7 389.66 242 390C241.957 388.334 241.959 386.666 242 385C242.33 384.67 242.66 384.34 243 384C241.68 383.67 240.36 383.34 239 383C239.381 380.237 239.836 379.159 241.875 377.188C242.576 376.796 243.277 376.404 244 376Z" fill="white"/>
<path d="M359 234C359.33 234 359.66 234 360 234C360.061 234.699 360.121 235.397 360.184 236.117C360.267 237.027 360.351 237.937 360.438 238.875C360.519 239.78 360.6 240.685 360.684 241.617C360.87 244.011 360.87 244.011 362 246C362.245 250.641 362.185 255.291 362.188 259.938C362.2 261.239 362.212 262.54 362.225 263.881C362.227 265.125 362.228 266.37 362.23 267.652C362.235 268.797 362.239 269.942 362.243 271.121C362 274 362 274 360 277C360.005 276.431 360.01 275.862 360.016 275.275C360.037 272.663 360.05 270.05 360.063 267.438C360.071 266.542 360.079 265.647 360.088 264.725C360.106 259.696 359.738 254.983 359 250C358.886 247.186 358.904 244.378 358.938 241.562C358.942 240.831 358.947 240.099 358.951 239.346C358.963 237.564 358.981 235.782 359 234Z" fill="white"/>
<path d="M96 289C96.33 289 96.66 289 97 289C97.0251 289.724 97.0501 290.447 97.0759 291.193C97.575 305.472 98.1238 319.739 99 334C95.6067 328.91 95.8642 324.282 95.9024 318.297C95.9038 317.459 95.9052 316.621 95.9066 315.758C95.9122 313.089 95.9248 310.419 95.9375 307.75C95.9425 305.938 95.9471 304.125 95.9512 302.312C95.9622 297.875 95.9794 293.437 96 289Z" fill="#D6D5D6"/>
<path d="M143 47C143.99 47.33 144.98 47.66 146 48C145.691 48.5362 145.381 49.0725 145.062 49.625C143.657 52.4977 143.657 52.4977 143 58C134.42 58.33 125.84 58.66 117 59C117.99 58.67 118.98 58.34 120 58C120.33 57.34 120.66 56.68 121 56C127.27 56 133.54 56 140 56C140.33 54.35 140.66 52.7 141 51C141.66 51 142.32 51 143 51C143 49.68 143 48.36 143 47Z" fill="#F7F7F7"/>
<path d="M85 381C85 381.66 85 382.32 85 383C85.99 383.33 86.98 383.66 88 384C87.67 385.65 87.34 387.3 87 389C86.34 389 85.68 389 85 389C85.33 389.99 85.66 390.98 86 392C84.68 391.67 83.36 391.34 82 391C82 389.02 82 387.04 82 385C80.35 384.67 78.7 384.34 77 384C78 382 78 382 79.875 381.375C82 381 82 381 85 381Z" fill="white"/>
<path d="M351 164C355.498 164.264 359.997 164.531 364.495 164.8C366.02 164.89 367.546 164.981 369.071 165.07C377.729 165.579 386.369 166.131 395 167C391.533 168.876 389.215 169.219 385.25 169.125C384.265 169.107 383.28 169.089 382.266 169.07C381.144 169.036 381.144 169.036 380 169C380 168.34 380 167.68 380 167C378.944 167.017 378.944 167.017 377.867 167.035C355.854 167.236 355.854 167.236 351 164Z" fill="white"/>
<path d="M138 67C140.64 67 143.28 67 146 67C146.061 67.6755 146.121 68.3509 146.184 69.0469C146.309 70.3849 146.309 70.3849 146.438 71.75C146.559 73.0726 146.559 73.0726 146.684 74.4219C146.979 77.2621 146.979 77.2621 148 81C141.4 81 134.8 81 128 81C128 80.67 128 80.34 128 80C133.93 79.0296 139.064 79.1068 145 80C145 79.34 145 78.68 145 78C144.34 78 143.68 78 143 78C142.78 74.1435 143.396 71.5078 145 68C142.69 68 140.38 68 138 68C138 67.67 138 67.34 138 67Z" fill="#D2D2D2"/>
<path d="M404 91.0001C403.443 91.4126 402.886 91.8251 402.312 92.2501C401.549 92.8276 400.786 93.4051 400 94.0001C398.701 94.8354 398.701 94.8354 397.375 95.6876C394.071 98.9042 393.823 101.51 393 106C388.38 106 383.76 106 379 106C379 105.67 379 105.34 379 105C380.825 104.784 380.825 104.784 382.688 104.563C385.827 104.172 388.908 103.677 392 103C392 101.02 392 99.0401 392 97.0001C392.99 96.6701 393.98 96.3401 395 96.0001C395 95.3401 395 94.6801 395 94.0001C395.66 94.0001 396.32 94.0001 397 94.0001C397 93.3401 397 92.6801 397 92.0001C399.463 90.7687 401.28 90.9285 404 91.0001Z" fill="white"/>
<path d="M235 192C235.99 192.495 235.99 192.495 237 193C237.193 197.768 237.371 202.537 237.537 207.307C237.595 208.929 237.658 210.55 237.724 212.172C237.818 214.505 237.899 216.838 237.977 219.172C238.025 220.256 238.025 220.256 238.074 221.363C238.185 225.107 238.103 227.827 236 231C235.67 231 235.34 231 235 231C235 218.13 235 205.26 235 192Z" fill="#EAE9EA"/>
<path d="M230 85C231.98 85 233.96 85 236 85C236.375 86.039 236.75 87.078 237.137 88.1484C240.009 96.0091 242.995 103.628 247 111C246.01 110.67 245.02 110.34 244 110C244 109.34 244 108.68 244 108C243.34 108 242.68 108 242 108C242 106.68 242 105.36 242 104C241.34 104 240.68 104 240 104C239.734 103.192 239.469 102.384 239.195 101.551C238.842 100.482 238.489 99.4135 238.125 98.3125C237.777 97.2568 237.429 96.201 237.07 95.1133C235.556 89.6034 235.556 89.6034 231.875 85.6875C231.256 85.4606 230.637 85.2338 230 85Z" fill="#EDEDED"/>
<path d="M338 140C339.765 143.088 340 144.233 340 148C337 150 337 150 334.5 150.375C331.385 151.154 330.642 152.321 329 155C329 153.35 329 151.7 329 150C329.66 150 330.32 150 331 150C331.33 149.01 331.66 148.02 332 147C333.333 145.667 334.667 144.333 336 143C336 142.34 336 141.68 336 141C336.66 140.67 337.32 140.34 338 140Z" fill="white"/>
<path d="M97 75C99.97 75 102.94 75 106 75C106 75.66 106 76.32 106 77C107.192 76.9652 108.385 76.9304 109.613 76.8945C111.18 76.8664 112.746 76.8391 114.312 76.8125C115.098 76.7874 115.884 76.7622 116.693 76.7363C117.451 76.7267 118.208 76.717 118.988 76.707C120.033 76.6835 120.033 76.6835 121.099 76.6594C123.545 77.0976 124.427 78.1344 126 80C115.969 79.6266 106.725 78.6477 97 76C97 75.67 97 75.34 97 75Z" fill="#D9D9D9"/>
<path d="M154 70C154.722 70.1444 155.444 70.2887 156.188 70.4375C157.58 70.7159 157.58 70.7159 159 71C159.804 71.1856 160.609 71.3713 161.438 71.5625C166.236 72.3818 169.735 72.4372 174 70C174.66 70 175.32 70 176 70C176 71.32 176 72.64 176 74C168.74 74 161.48 74 154 74C154 72.68 154 71.36 154 70ZM155 72C159 73 159 73 159 73L155 72Z" fill="#E4E3E4"/>
<path d="M419.273 99.0193C419.843 99.3429 420.413 99.6664 421 99.9998C421 100.33 421 100.66 421 101C419.35 101 417.7 101 416 101C416 100.34 416 99.6798 416 98.9998C413.69 98.9998 411.38 98.9998 409 98.9998C409 99.6598 409 100.32 409 101C407.35 101 405.7 101 404 101C404.33 103.31 404.66 105.62 405 108C403.68 107.34 402.36 106.68 401 106C401.125 103.687 401.125 103.687 402 101C406.984 97.3864 413.59 96.4704 419.273 99.0193Z" fill="white"/>
<path d="M394 109C400.27 109 406.54 109 413 109C413 109.99 413 110.98 413 112C406.73 112 400.46 112 394 112C394 111.01 394 110.02 394 109Z" fill="white"/>
<path d="M404 88.9998C406.751 88.8916 409.498 88.8124 412.25 88.7498C413.027 88.7162 413.805 88.6827 414.605 88.6482C420.43 88.5486 420.43 88.5486 423.547 91.0154C424.026 91.6702 424.506 92.3251 425 92.9998C423.521 93.0267 422.042 93.0461 420.562 93.0623C419.327 93.0797 419.327 93.0797 418.066 93.0974C416 92.9998 416 92.9998 415 91.9998C413.151 91.7661 411.295 91.5867 409.438 91.4373C408.426 91.3535 407.414 91.2697 406.371 91.1834C405.197 91.0925 405.197 91.0925 404 90.9998C404 90.3398 404 89.6798 404 88.9998Z" fill="white"/>
<path d="M171 39.9999C174.966 39.4093 176.975 39.3584 180.434 41.5233C183.053 43.5769 185.644 45.6437 188 47.9999C188.041 49.666 188.043 51.3338 188 52.9999C187.443 52.2574 186.886 51.5149 186.312 50.7499C181.803 45.3875 177.508 43.206 171 40.9999C171 40.6699 171 40.3399 171 39.9999Z" fill="#E8E8E8"/>
<path d="M480 126C480 128.31 480 130.62 480 133C478.35 133.66 476.7 134.32 475 135C474 134 474 134 473.688 131.625C474 129 474 129 475.875 127.188C478 126 478 126 480 126Z" fill="white"/>
<path d="M421 101C421.99 101.33 422.98 101.66 424 102C424 103.32 424 104.64 424 106C418.451 109.306 414.482 110.659 408 110C407.01 109.34 406.02 108.68 405 108C409.29 108 413.58 108 418 108C418.33 107.01 418.66 106.02 419 105C420.32 105 421.64 105 423 105C422.34 104.67 421.68 104.34 421 104C421 103.01 421 102.02 421 101Z" fill="white"/>
<path d="M75 106C73.8906 109.487 72.7366 112.775 71 116C70.34 116 69.68 116 69 116C69 118.64 69 121.28 69 124C68.67 124 68.34 124 68 124C67.1392 112.178 67.1392 112.178 70.375 108.25C73 106 73 106 75 106Z" fill="#A5A3A4"/>
<path d="M238 394C238.99 394.33 239.98 394.66 241 395C240.67 395.66 240.34 396.32 240 397C237.69 397 235.38 397 233 397C233 397.66 233 398.32 233 399C228.71 399 224.42 399 220 399C220 398.67 220 398.34 220 398C221.132 397.795 222.264 397.59 223.43 397.379C224.911 397.107 226.393 396.835 227.875 396.562C228.621 396.428 229.368 396.293 230.137 396.154C234.185 395.455 234.185 395.455 238 394Z" fill="white"/>
<path d="M358 325C358.66 325.33 359.32 325.66 360 326C360.055 328.354 360.094 330.708 360.125 333.062C360.148 334.373 360.171 335.684 360.195 337.035C359.994 341.118 359.272 344.15 358 348C357.67 348 357.34 348 357 348C357.33 340.41 357.66 332.82 358 325Z" fill="white"/>
<path d="M484 137C484.66 137 485.32 137 486 137C489 142.75 489 142.75 489 145C489.66 145 490.32 145 491 145C491 145.99 491 146.98 491 148C491.66 148 492.32 148 493 148C493 148.66 493 149.32 493 150C493.99 150.33 494.98 150.66 496 151C495.67 151.99 495.34 152.98 495 154C490.175 149.743 486.941 144.711 484 139C484 138.34 484 137.68 484 137Z" fill="white"/>
<path d="M250 108C252 110 252 110 252 114C249.291 115.354 246.991 115.065 244 115C245 112 245 112 247 109C247.99 108.67 248.98 108.34 250 108Z" fill="white"/>
<path d="M185 67C185.99 67.33 186.98 67.66 188 68C187.34 68 186.68 68 186 68C186 71.96 186 75.92 186 80C187.072 79.7938 188.145 79.5875 189.25 79.375C193 79 193 79 197 81C192.05 81 187.1 81 182 81C182.66 79.35 183.32 77.7 184 76C184.443 73.5679 184.443 73.5679 184.625 71.1875C184.7 70.3973 184.775 69.6071 184.852 68.793C184.901 68.2013 184.95 67.6096 185 67Z" fill="#EDECED"/>
<path d="M248 123C249.65 123 251.3 123 253 123C253 130.92 253 138.84 253 147C252.67 147 252.34 147 252 147C252 140.07 252 133.14 252 126C251.01 126 250.02 126 249 126C248.67 125.01 248.34 124.02 248 123Z" fill="#F4F4F4"/>
<path d="M353 117C355.504 117.835 357.668 118.794 360 120C360 120.66 360 121.32 360 122C362.31 122 364.62 122 367 122C367 122.33 367 122.66 367 123C360.666 123.345 355.897 122.293 350 120C350.99 119.01 351.98 118.02 353 117Z" fill="white"/>
<path d="M211.012 76.7071C211.769 76.7168 212.526 76.7265 213.307 76.7364C214.092 76.7616 214.878 76.7867 215.688 76.8126C216.883 76.8329 216.883 76.8329 218.104 76.8536C220.069 76.8889 222.035 76.9427 224 77.0001C224 77.3301 224 77.6601 224 78.0001C217.258 79.2585 210.865 80.2641 204 80.0001C206.264 77.3153 207.506 76.6281 211.012 76.7071Z" fill="white"/>
<path d="M227 189C227.33 189 227.66 189 228 189C228.106 195.412 228.171 201.679 227 208C226.34 208.33 225.68 208.66 225 209C224.879 202.573 225.09 196.369 226 190C226.33 189.67 226.66 189.34 227 189Z" fill="#D8D8D8"/>
<path d="M455 166C455 166.33 455 166.66 455 167C451.37 167 447.74 167 444 167C444 167.66 444 168.32 444 169C438.72 168.67 433.44 168.34 428 168C428 167.67 428 167.34 428 167C437.037 166.057 445.926 165.888 455 166Z" fill="white"/>
<path d="M474 388C470.545 390.303 467.635 390.653 463.625 391.125C462.318 391.293 461.011 391.46 459.664 391.633C456.733 391.927 453.939 392.08 451 392C454.522 389.652 456.886 389.452 461.062 388.938C472.404 387.521 472.404 387.521 474 388Z" fill="white"/>
<path d="M465 257C465.66 257 466.32 257 467 257C467.33 261.29 467.66 265.58 468 270C468.66 270 469.32 270 470 270C469.67 271.32 469.34 272.64 469 274C467 271 467 271 467 268C466.34 268 465.68 268 465 268C465 264.37 465 260.74 465 257Z" fill="white"/>
<path d="M368 122C370.64 122 373.28 122 376 122C376 122.66 376 123.32 376 124C380.29 124 384.58 124 389 124C389 124.33 389 124.66 389 125C386.437 125.027 383.875 125.047 381.312 125.062C380.231 125.075 380.231 125.075 379.127 125.088C375.284 125.105 371.734 124.935 368 124C368 123.34 368 122.68 368 122Z" fill="white"/>
<path d="M447 105C449.438 104.973 451.875 104.953 454.312 104.937C455.003 104.929 455.693 104.921 456.404 104.912C459.548 104.897 461.994 104.998 465 106C465 106.66 465 107.32 465 108C459.06 107.67 453.12 107.34 447 107C447 106.34 447 105.68 447 105Z" fill="white"/>
<path d="M345 384C347.125 384.375 347.125 384.375 349 385C348.67 386.65 348.34 388.3 348 390C344.25 391.125 344.25 391.125 342 390C342.573 387.133 342.861 386.139 345 384Z" fill="white"/>
<path d="M143 47C143.99 47.33 144.98 47.66 146 48C145.691 48.5362 145.381 49.0725 145.062 49.625C143.822 52.3985 143.409 55.0004 143 58C140.36 58 137.72 58 135 58C135 57.67 135 57.34 135 57C136.65 56.67 138.3 56.34 140 56C140.33 54.35 140.66 52.7 141 51C141.66 51 142.32 51 143 51C143 49.68 143 48.36 143 47Z" fill="#E2E2E2"/>
<path d="M351 129C355.29 129.33 359.58 129.66 364 130C363.34 130.66 362.68 131.32 362 132C359.836 131.977 359.836 131.977 357.375 131.625C356.558 131.514 355.74 131.403 354.898 131.289C354.272 131.194 353.645 131.098 353 131C352.34 132.65 351.68 134.3 351 136C350 133 350 133 351 129Z" fill="white"/>
<path d="M467 108C469.64 108 472.28 108 475 108C475 108.66 475 109.32 475 110C475.784 110.083 476.567 110.165 477.375 110.25C480 111 480 111 481.164 113.047C481.578 114.014 481.578 114.014 482 115C480.25 114.209 478.5 113.417 476.75 112.625C475.775 112.184 474.801 111.743 473.797 111.289C471.507 110.234 469.246 109.145 467 108Z" fill="white"/>
<path d="M172 51C176.75 51.75 176.75 51.75 179 54C178.875 55.9375 178.875 55.9375 178 58C175.938 59.75 175.938 59.75 174 61C174 60.01 174 59.02 174 58C174.66 58 175.32 58 176 58C176 56.68 176 55.36 176 54C175.34 54 174.68 54 174 54C174 53.34 174 52.68 174 52C173.34 51.67 172.68 51.34 172 51Z" fill="#F0EFEF"/>
<path d="M252 101C252.66 101 253.32 101 254 101C254 101.66 254 102.32 254 103C254.66 103 255.32 103 256 103C259 107.385 259 107.385 259 110C259.66 110 260.32 110 261 110C260.67 110.99 260.34 111.98 260 113C258.661 111.38 257.329 109.754 256 108.125C255.257 107.22 254.515 106.315 253.75 105.383C252 103 252 103 252 101Z" fill="white"/>
<path d="M146 77C146.66 78.32 147.32 79.64 148 81C141.4 81 134.8 81 128 81C128 80.67 128 80.34 128 80C133.72 79.1679 139.222 78.8796 145 79C145.33 78.34 145.66 77.68 146 77Z" fill="#DADADA"/>
<path d="M467 207C467.33 207 467.66 207 468 207C468.257 212.913 467.298 218.239 466 224C465.67 224 465.34 224 465 224C464.631 212.478 464.631 212.478 467 207Z" fill="white"/>
<path d="M475 137C476.543 139.314 477.9 141.546 479.188 144C479.552 144.681 479.917 145.361 480.293 146.062C481 148 481 148 480 151C477.376 147.939 477 147.268 477 143C476.34 143 475.68 143 475 143C475 141.02 475 139.04 475 137Z" fill="white"/>
<path d="M80 368C85.875 372.75 85.875 372.75 87 375C87.99 375.33 88.98 375.66 90 376C90 376.66 90 377.32 90 378C84.9834 376.567 82.9855 374.094 80 370C80 369.34 80 368.68 80 368Z" fill="white"/>
<path d="M80 94C80.66 94 81.32 94 82 94C82.33 95.65 82.66 97.3 83 99C82.3813 99.0619 81.7625 99.1238 81.125 99.1875C78.7288 99.8174 78.7288 99.8174 77.875 102.5C77.5863 103.325 77.2975 104.15 77 105C76.01 105.495 76.01 105.495 75 106C76.4499 102.208 78.1854 98.6293 80 95C80 94.67 80 94.34 80 94Z" fill="#BAB9B9"/>
<path d="M468 117C470.438 117.375 470.438 117.375 473 118C473.33 118.66 473.66 119.32 474 120C470.629 121.498 468.796 122 465 122C465.33 121.01 465.66 120.02 466 119C466.66 118.67 467.32 118.34 468 118C468 117.67 468 117.34 468 117Z" fill="white"/>
<path d="M86 106C87.2135 109.64 87.2135 111.36 86 115C84.35 115 82.7 115 81 115C82.4984 111.888 84.1993 108.947 86 106Z" fill="#E5E4E5"/>
<path d="M333 380C334.149 380.954 335.294 381.914 336.438 382.875C337.395 383.676 337.395 383.676 338.371 384.492C340 386 340 386 341 388C339.35 387.67 337.7 387.34 336 387C336 386.34 336 385.68 336 385C335.34 385 334.68 385 334 385C333.34 383.68 332.68 382.36 332 381C332.33 380.67 332.66 380.34 333 380Z" fill="white"/>
<path d="M250 366C250.812 367.625 250.812 367.625 251 370C248.688 373.25 248.688 373.25 246 376C245.34 376 244.68 376 244 376C244 375.01 244 374.02 244 373C244.66 373 245.32 373 246 373C246 372.34 246 371.68 246 371C246.66 370.67 247.32 370.34 248 370C249.134 367.983 249.134 367.983 250 366Z" fill="white"/>
<path d="M404 91.0001C400.765 93.4888 397.407 95.7543 394 98.0001C393.67 97.3401 393.34 96.6801 393 96.0001C393.66 96.0001 394.32 96.0001 395 96.0001C395 95.3401 395 94.6801 395 94.0001C395.66 94.0001 396.32 94.0001 397 94.0001C397 93.3401 397 92.6801 397 92.0001C399.463 90.7687 401.28 90.9285 404 91.0001Z" fill="white"/>
<path d="M88 383C89.32 384.32 90.64 385.64 92 387C91.34 387 90.68 387 90 387C90 387.66 90 388.32 90 389C88.35 389.33 86.7 389.66 85 390C85.99 387.69 86.98 385.38 88 383Z" fill="white"/>
<path d="M261 366C262.271 369.813 261.454 371.327 260 375C259.01 376.485 259.01 376.485 258 378C257.34 377.67 256.68 377.34 256 377C257.65 373.37 259.3 369.74 261 366Z" fill="white"/>
<path d="M115 77C120.957 76.707 120.957 76.707 123 77C123.99 77.99 124.98 78.98 126 80C122.04 79.67 118.08 79.34 114 79C114.33 78.34 114.66 77.68 115 77Z" fill="#F1F1F1"/>
<path d="M341 389C346.75 393.75 346.75 393.75 349 396C348.01 396.495 348.01 396.495 347 397C344.875 396.062 344.875 396.062 343 395C343 394.34 343 393.68 343 393C342.34 393 341.68 393 341 393C340.67 392.01 340.34 391.02 340 390C340.33 389.67 340.66 389.34 341 389Z" fill="white"/>
<path d="M345 380C345.99 380 346.98 380 348 380C349.32 382.64 350.64 385.28 352 388C351.01 387.67 350.02 387.34 349 387C349 386.34 349 385.68 349 385C348.01 384.67 347.02 384.34 346 384C345.312 381.938 345.312 381.938 345 380Z" fill="white"/>
<path d="M255 373C255.99 373.33 256.98 373.66 258 374C257.34 375.98 256.68 377.96 256 380C255.34 380 254.68 380 254 380C253.67 378.35 253.34 376.7 253 375C253.66 375 254.32 375 255 375C255 374.34 255 373.68 255 373Z" fill="white"/>
<path d="M96 323C96.66 323 97.32 323 98 323C99.2832 326.85 99.0664 329.947 99 334C96.4338 330.151 96.449 327.565 96 323Z" fill="#E1E1E1"/>
<path d="M483 143C485.475 143.99 485.475 143.99 488 145C487.67 146.65 487.34 148.3 487 150C484 148 484 148 483.312 145.375C483.209 144.591 483.106 143.808 483 143Z" fill="white"/>
<path d="M403 116C407.29 116.66 411.58 117.32 416 118C416 118.33 416 118.66 416 119C411.71 119 407.42 119 403 119C403 118.01 403 117.02 403 116Z" fill="white"/>
<path d="M84 68C85 70 85 70 84.5 73.4375C83.7371 76.9531 83.7371 76.9531 85 80C84.01 80 83.02 80 82 80C81.946 78.3754 81.9072 76.7502 81.875 75.125C81.8518 74.2201 81.8286 73.3152 81.8047 72.3828C82 70 82 70 84 68Z" fill="white"/>
<path d="M242 375C242.66 375.66 243.32 376.32 244 377C243.216 377.763 242.433 378.526 241.625 379.312C238.927 381.909 238.927 381.909 237 385C237 383.02 237 381.04 237 379C238.65 378.34 240.3 377.68 242 377C242 376.34 242 375.68 242 375Z" fill="white"/>
<path d="M79 372C79.66 372.66 80.32 373.32 81 374C80.67 374.99 80.34 375.98 80 377C79.01 377.33 78.02 377.66 77 378C76.34 377.67 75.68 377.34 75 377C76.75 373.125 76.75 373.125 79 372Z" fill="white"/>
<path d="M481 150C481.66 150 482.32 150 483 150C483.66 151.65 484.32 153.3 485 155C483.35 155 481.7 155 480 155C479.67 154.01 479.34 153.02 479 152C479.66 151.34 480.32 150.68 481 150Z" fill="white"/>
<path d="M395 121C398 124.875 398 124.875 398 126C395.69 126 393.38 126 391 126C390.67 125.34 390.34 124.68 390 124C391.32 124 392.64 124 394 124C394.33 123.01 394.66 122.02 395 121Z" fill="white"/>
<path d="M94 385C95.65 385 97.3 385 99 385C99 385.66 99 386.32 99 387C100.65 387 102.3 387 104 387C104 387.33 104 387.66 104 388C101.03 388 98.06 388 95 388C94.67 387.01 94.34 386.02 94 385Z" fill="white"/>
<path d="M238 73C238.66 73.66 239.32 74.32 240 75C239.34 75 238.68 75 238 75C238 74.34 238 73.68 238 73ZM235 75C235.99 75 236.98 75 238 75C237.188 76.9375 237.188 76.9375 236 79C235.01 79.33 234.02 79.66 233 80C233.66 78.35 234.32 76.7 235 75Z" fill="white"/>
<path d="M102 72C102 72.33 102 72.66 102 73C100.35 73 98.7 73 97 73C97 73.66 97 74.32 97 75C95.68 75 94.36 75 93 75C93 74.34 93 73.68 93 73C96.4263 71.382 98.3806 70.6594 102 72Z" fill="#E4E2E3"/>
<path d="M339 373C340.98 373.99 340.98 373.99 343 375C343 375.99 343 376.98 343 378C343.66 378 344.32 378 345 378C344.67 378.66 344.34 379.32 344 380C341.5 378.75 341.5 378.75 339 377C339 375.68 339 374.36 339 373Z" fill="white"/>
<path d="M152 54C153.485 54.99 153.485 54.99 155 56C155 56.66 155 57.32 155 58C155.99 58.33 156.98 58.66 158 59C158 59.66 158 60.32 158 61C155.562 60.3125 155.562 60.3125 153 59C152.188 56.375 152.188 56.375 152 54Z" fill="#F2F2F2"/>
<path d="M200 117C202 118 202 118 202 118L200 117Z" fill="white"/>
</svg>
