<svg width="88" height="84" viewBox="0 0 88 84" fill="none" xmlns="http://www.w3.org/2000/svg">
<path fill-rule="evenodd" clip-rule="evenodd" d="M74.4821 12.1439C70.4519 8.27893 65.664 5.21623 60.394 3.1321C55.1239 1.04797 49.4759 -0.0164274 43.775 0.00019165C19.85 0.00019165 0.373646 18.5758 0.363916 41.4119C0.353332 48.6834 2.35299 55.8278 6.15932 62.1178L0 83.5698L23.0123 77.8113C29.3822 81.1191 36.5129 82.8503 43.7575 82.8479H43.775C67.6981 82.8479 87.1724 64.2704 87.1841 41.4362C87.1986 35.9902 86.0831 30.596 83.9024 25.5671C81.7218 20.5383 78.5196 15.9754 74.4821 12.1439ZM43.775 75.8582H43.7594C37.3011 75.8601 30.9603 74.2034 25.3963 71.0605L24.0788 70.3143L10.4232 73.7317L14.0682 61.0302L13.21 59.7245C9.59879 54.2443 7.68553 47.8937 7.69283 41.4119C7.69283 22.4353 23.8861 6.99541 43.7886 6.99541C53.336 6.97907 62.4993 10.5985 69.2629 17.0576C76.0265 23.5167 79.8366 32.2864 79.8552 41.438C79.8474 60.4165 63.6619 75.8582 43.775 75.8582ZM63.5646 50.0804C62.4807 49.5618 57.1426 47.0584 56.154 46.7134C55.1654 46.3683 54.4356 46.1948 53.7136 47.2319C52.9916 48.2691 50.9112 50.5896 50.2788 51.2892C49.6463 51.9887 49.0138 52.0652 47.9299 51.5466C46.8459 51.028 43.3488 49.9367 39.2056 46.4112C35.981 43.6672 33.8053 40.2796 33.1728 39.2443C32.5403 38.209 33.1047 37.6475 33.6476 37.1327C34.1361 36.6682 34.7316 35.9239 35.2745 35.3195C35.8175 34.7151 35.9985 34.2824 36.3585 33.5922C36.7185 32.902 36.5395 32.2976 36.269 31.7809C35.9985 31.2642 33.8286 26.1698 32.9256 24.0973C32.0441 22.079 31.1508 22.3532 30.4852 22.3215C29.8528 22.2916 29.123 22.2842 28.4049 22.2842C27.8559 22.2979 27.3158 22.4199 26.8182 22.6426C26.3207 22.8654 25.8764 23.184 25.513 23.5788C24.5186 24.6159 21.7162 27.123 21.7162 32.2118C21.7162 37.3006 25.6084 42.2252 26.1455 42.9154C26.6826 43.6056 33.7936 54.0574 44.6741 58.5399C46.6945 59.3693 48.7589 60.0966 50.8587 60.7187C53.4567 61.5059 55.8212 61.3959 57.6894 61.1291C59.7737 60.8325 64.1115 58.6258 65.0125 56.2082C65.9135 53.7907 65.9155 51.7201 65.645 51.2892C65.3745 50.8583 64.6505 50.5971 63.5646 50.0804Z" fill="#196237"/>
</svg>
