<svg width="100" height="100" viewBox="0 0 100 100" fill="none" xmlns="http://www.w3.org/2000/svg">
<g clip-path="url(#clip0_169_551)">
<path d="M42.7773 3.88889C47.6565 3.80863 52.4931 4.05338 57.3607 4.375C58.1029 4.4192 58.845 4.46332 59.5872 4.50738C60.2991 4.55393 61.0109 4.60048 61.7444 4.64844C62.3833 4.68917 63.0223 4.7299 63.6807 4.77186C68.4914 5.35737 68.4914 5.35737 70.448 6.90552C70.6853 7.21127 70.9226 7.51701 71.1671 7.83203C71.4366 8.1773 71.706 8.52257 71.9836 8.87831C73.3219 10.7696 74.5634 12.7061 75.7635 14.6875C76.0134 15.0939 76.2633 15.5003 76.5208 15.9191C77.1279 16.9071 77.7308 17.8977 78.3329 18.8889C80.4475 18.5157 82.4174 17.9292 84.444 17.2222C82.3375 20.9487 80.1697 24.5654 77.6515 28.0295C76.3231 29.9372 75.1074 31.91 73.8885 33.8889C71.4925 33.811 69.0967 33.7288 66.701 33.6458C66.0274 33.624 65.3539 33.6021 64.6599 33.5796C61.0413 33.4522 57.4803 33.2389 53.8885 32.7778C54.7963 31.8287 55.4824 31.1475 56.6662 30.5556C56.3487 27.9216 55.5943 25.8883 54.4332 23.5091C54.2666 23.1654 54.1 22.8218 53.9284 22.4677C53.5769 21.7445 53.2233 21.0223 52.8678 20.301C52.3294 19.2084 51.7971 18.1131 51.2658 17.0171C48.6031 10.714 48.6031 10.714 44.3051 5.625C43.801 5.23542 43.2968 4.84583 42.7773 4.44444C42.7773 4.26111 42.7773 4.07778 42.7773 3.88889Z" fill="#196237"/>
<path d="M62.2225 62.7778C62.4058 62.7778 62.5892 62.7778 62.7781 62.7778C62.9614 64.2444 63.1447 65.7111 63.3336 67.2222C66.7233 67.2636 70.1129 67.2938 73.5027 67.3138C74.6542 67.3221 75.8057 67.3335 76.9571 67.3479C78.6189 67.3683 80.2806 67.3777 81.9426 67.385C82.4514 67.3936 82.9603 67.4022 83.4846 67.411C86.8711 67.4119 89.6381 66.8236 92.7781 65.5555C91.981 67.6923 90.991 69.6137 89.8527 71.5885C89.4954 72.2087 89.138 72.8289 88.7698 73.4679C88.5837 73.7885 88.3976 74.1092 88.2058 74.4396C87.6461 75.4047 87.0903 76.372 86.5346 77.3394C85.4815 79.1609 84.4131 80.9718 83.3336 82.7778C83.0382 83.278 82.7428 83.7782 82.4384 84.2936C80.8408 86.866 79.6635 88.4827 76.6669 89.4444C75.1096 89.7634 73.561 89.9517 71.9794 90.1042C71.3752 90.1724 71.3752 90.1724 70.7587 90.242C68.2707 90.508 65.8351 90.5984 63.3336 90.5555C63.1503 92.7555 62.9669 94.9555 62.7781 97.2222C60.4094 94.8535 58.8417 92.0286 57.1269 89.1737C56.7041 88.4738 56.2767 87.7766 55.8449 87.0822C55.2198 86.0771 54.6086 85.0646 53.9998 84.0495C53.6322 83.4462 53.2646 82.8429 52.8859 82.2214C52.2225 80.5555 52.2225 80.5555 52.5475 79.1615C52.8069 78.7049 53.0663 78.2482 53.3336 77.7778C53.6248 77.239 53.9159 76.7003 54.2159 76.1453C54.5557 75.5582 54.8954 74.9712 55.2455 74.3663C55.5186 73.8933 55.5186 73.8933 55.7973 73.4107C56.1797 72.7491 56.5631 72.088 56.9473 71.4274C57.537 70.4132 58.1238 69.3973 58.7101 68.3811C61.5841 63.4162 61.5841 63.4162 62.2225 62.7778Z" fill="#196237"/>
<path d="M2.77824 36.1111C9.27899 36.0225 15.7334 36.2977 22.2227 36.6667C22.3764 36.991 22.5302 37.3153 22.6886 37.6495C23.4007 39.1509 24.1138 40.6518 24.8269 42.1528C25.0686 42.6627 25.3103 43.1726 25.5593 43.6979C27.184 47.116 28.8503 50.5105 30.556 53.8889C30.006 54.1639 30.006 54.1639 29.4449 54.4444C28.5112 54.0943 27.5849 53.7234 26.6671 53.3333C26.3005 53.3333 25.9338 53.3333 25.556 53.3333C25.4056 53.7437 25.2552 54.154 25.1003 54.5768C24.4723 56.047 23.7888 57.1523 22.8477 58.4375C20.8997 61.1745 18.9759 63.9255 17.0838 66.7014C16.7953 67.1144 16.5068 67.5274 16.2095 67.9529C14.5373 70.4205 13.3952 72.7112 12.5835 75.5847C12.2227 76.6667 12.2227 76.6667 11.1116 78.3333C9.85957 75.8616 8.6223 73.383 7.39277 70.9001C6.88491 69.8813 6.37256 68.8648 5.85686 67.8499C5.00646 66.1753 4.16944 64.4945 3.3338 62.8125C3.06001 62.2804 2.78622 61.7482 2.50413 61.1999C0.929918 57.9956 -0.18804 55.2525 0.556021 51.6667C1.21522 49.8948 2.07278 48.2989 3.0213 46.6667C3.37203 46.0318 3.37203 46.0318 3.72985 45.3841C5.40958 42.3687 5.40958 42.3687 6.11158 41.6667C6.43651 40.3493 6.43651 40.3493 6.11158 38.8889C4.48757 37.6209 4.48757 37.6209 2.77824 36.6667C2.77824 36.4833 2.77824 36.3 2.77824 36.1111Z" fill="#196237"/>
<path d="M25.6945 68.6806C26.3326 68.6921 26.9706 68.7036 27.628 68.7154C29.5308 68.7556 31.4315 68.8178 33.3334 68.8889C34.1462 68.9175 34.1462 68.9175 34.9754 68.9467C43.1451 69.2561 43.1451 69.2561 43.889 70C43.9053 71.6777 43.8863 73.341 43.8412 75.0174C43.8294 75.5208 43.8176 76.0243 43.8055 76.543C43.7797 77.6098 43.7525 78.6765 43.724 79.7431C43.6808 81.3818 43.6435 83.0205 43.6069 84.6593C43.5812 85.693 43.5551 86.7267 43.5287 87.7604C43.5177 88.254 43.5067 88.7477 43.4953 89.2563C43.3973 92.7139 43.3973 92.7139 42.7779 93.3333C39.8194 93.4798 36.8499 93.3872 33.889 93.3333C33.2978 93.3234 32.7066 93.3135 32.0975 93.3032C30.1596 93.2656 28.2224 93.2145 26.2848 93.1597C25.3396 93.1411 25.3396 93.1411 24.3752 93.122C23.7772 93.1022 23.1792 93.0825 22.563 93.0621C22.029 93.0475 21.495 93.033 20.9448 93.018C18.5544 92.6353 17.0926 91.5613 15.4515 89.8264C12.843 85.9587 12.9369 81.728 13.3334 77.2222C14.0675 74.0649 15.1535 71.4943 17.7711 69.4354C20.2252 68.2357 23.0286 68.5897 25.6945 68.6806Z" fill="#196237"/>
<path d="M87.2442 31.7547C88.6485 32.3574 89.0404 32.9943 89.833 34.2925C90.2356 34.9404 90.2356 34.9404 90.6463 35.6014C90.9257 36.0675 91.2052 36.5337 91.4932 37.0139C91.7834 37.4893 92.0736 37.9648 92.3726 38.4546C92.9658 39.4276 93.5565 40.4021 94.1448 41.378C94.924 42.6533 95.7275 43.9069 96.5474 45.1563C100.739 51.6245 100.739 51.6245 100.306 55.0846C99.1311 59.0261 95.5697 61.9884 92.1355 64.0538C89.008 65.6642 86.3457 66.4187 82.7779 66.1111C80.1758 64.6651 78.7883 63.2093 77.2722 60.6684C76.7056 59.7317 76.7056 59.7317 76.1275 58.7761C75.7399 58.1193 75.3525 57.4625 74.9654 56.8056C74.5765 56.157 74.187 55.5089 73.7968 54.8611C73.049 53.617 72.3055 52.3703 71.5667 51.1209C70.7001 49.684 69.7912 48.2937 68.8564 46.9011C67.7779 45 67.7779 45 67.8829 43.8474C68.6737 41.9702 70.563 41.1972 72.257 40.2083C73.0653 39.7234 73.8733 39.238 74.6811 38.7522C75.0991 38.5031 75.517 38.2539 75.9476 37.9972C77.2194 37.224 78.4668 36.4216 79.7115 35.6055C80.1092 35.347 80.507 35.0886 80.9168 34.8223C81.6829 34.3234 82.4459 33.8199 83.2055 33.3114C85.8025 31.6427 85.8025 31.6427 87.2442 31.7547Z" fill="#196237"/>
<path d="M35.8462 2.54775C40.6459 4.1981 44.8865 7.69016 47.2221 12.2222C48.0744 17.7622 43.337 22.9316 40.486 27.3611C39.8014 28.4286 39.117 29.4963 38.4331 30.5642C38.1336 31.0299 37.8342 31.4956 37.5257 31.9754C36.6615 33.3414 35.826 34.7218 34.9999 36.1111C32.5439 35.8221 30.9104 35.2649 28.8432 33.9171C28.3251 33.583 27.8069 33.2489 27.2731 32.9047C26.4744 32.3778 26.4744 32.3778 25.6596 31.8403C25.1336 31.4998 24.6076 31.1592 24.0656 30.8084C20.8401 28.715 17.639 26.5846 14.4443 24.4445C15.2976 21.1129 17.1051 18.5494 18.9929 15.7292C19.6487 14.7384 20.304 13.7473 20.9591 12.7561C21.4309 12.0447 21.4309 12.0447 21.9123 11.3189C23.2751 9.24188 24.5697 7.12495 25.8528 4.99784C28.4686 1.43338 31.8169 1.61215 35.8462 2.54775Z" fill="#196237"/>
<path d="M16.6669 66.6667C17.0336 67.2167 17.4002 67.7667 17.778 68.3333C18.8739 68.5758 18.8739 68.5758 20.1481 68.5225C20.882 68.5224 20.882 68.5224 21.6308 68.5222C22.1598 68.5136 22.6887 68.505 23.2337 68.4961C24.0452 68.4926 24.0452 68.4926 24.8731 68.489C26.6054 68.4796 28.3374 68.4587 30.0697 68.4375C31.2423 68.4291 32.4149 68.4215 33.5875 68.4147C36.4659 68.3963 39.3441 68.3684 42.2224 68.3333C42.2224 68.7 42.2224 69.0667 42.2224 69.4444C41.5302 69.4328 40.8379 69.4212 40.1246 69.4092C37.5518 69.3689 34.979 69.3434 32.406 69.3224C31.2932 69.3112 30.1804 69.2961 29.0677 69.2768C27.4666 69.2498 25.8659 69.2372 24.2645 69.2274C23.7685 69.216 23.2724 69.2045 22.7614 69.1927C20.4385 69.1918 19.2208 69.2364 17.2116 70.4967C13.8536 74.0675 13.6036 78.4632 13.7372 83.1684C13.9212 85.3873 14.3227 87.3273 15.0002 89.4445C14.6336 89.4445 14.2669 89.4445 13.8891 89.4445C12.7428 86.3983 12.5592 83.6312 12.4134 80.4058C12.3189 79.6549 12.3189 79.6549 12.2224 78.8889C11.8558 78.7056 11.4891 78.5222 11.1113 78.3333C12.1316 73.8536 14.0589 70.4251 16.6669 66.6667Z" fill="#196237"/>
<path d="M93.8886 62.2222C94.2552 62.4056 94.6219 62.5889 94.9997 62.7778C94.7361 63.1101 94.4726 63.4424 94.2011 63.7847C93.2415 65.0021 93.2415 65.0021 92.7775 66.6667C92.2275 66.6667 91.6775 66.6667 91.1108 66.6667C90.6434 66.8478 90.176 67.0289 89.6945 67.2154C87.1302 67.9677 84.762 67.9157 82.1047 67.8863C81.5669 67.8847 81.029 67.8831 80.4748 67.8815C78.7655 67.8753 77.0562 67.8614 75.3469 67.8472C74.1844 67.8417 73.022 67.8366 71.8595 67.832C69.0173 67.8198 66.1752 67.8007 63.333 67.7778C63.333 67.5945 63.333 67.4111 63.333 67.2222C64.0004 67.2112 64.6677 67.2002 65.3553 67.1889C67.8258 67.1467 70.296 67.0974 72.7663 67.0459C73.8365 67.0246 74.9068 67.0052 75.977 66.9879C77.5134 66.9626 79.0494 66.9303 80.5856 66.8967C81.066 66.8903 81.5463 66.8839 82.0412 66.8773C84.6207 66.9297 84.6207 66.9297 86.6663 65.5556C87.5696 65.1589 88.486 64.7916 89.4094 64.4445C91.0962 63.8085 92.3757 63.2308 93.8886 62.2222Z" fill="#196237"/>
<path d="M42.2222 3.88889C45.331 5.94883 47.3142 7.69924 48.8889 11.1111C48.8889 11.4778 48.8889 11.8444 48.8889 12.2222C48.5222 12.2222 48.1556 12.2222 47.7778 12.2222C47.7778 13.6889 47.7778 15.1556 47.7778 16.6667C47.4111 16.85 47.0444 17.0333 46.6667 17.2222C46.7053 16.7388 46.7053 16.7388 46.7448 16.2457C46.8912 13.0774 46.6001 11.3679 44.4444 8.88889C43.0057 7.53798 41.5256 6.25162 40 5C40.7333 4.63333 41.4667 4.26666 42.2222 3.88889Z" fill="#DEF7E0"/>
<path d="M35.5557 69.4445C36.8404 69.4295 38.1251 69.4187 39.4098 69.4097C40.1253 69.4033 40.8407 69.3968 41.5778 69.3902C43.3334 69.4445 43.3334 69.4445 43.889 70C43.8984 71.6842 43.8727 73.3542 43.8217 75.0369C43.8086 75.5417 43.7955 76.0465 43.782 76.5666C43.7393 78.1857 43.6927 79.8046 43.6459 81.4236C43.6164 82.5184 43.5871 83.6133 43.5581 84.7081C43.4862 87.3981 43.4107 90.088 43.3334 92.7778C43.1501 92.7778 42.9668 92.7778 42.7779 92.7778C42.5946 85.6278 42.4112 78.4778 42.2223 71.1111C40.2057 70.9278 38.189 70.7445 36.1112 70.5556C35.9279 70.1889 35.7446 69.8222 35.5557 69.4445Z" fill="#196237"/>
<path d="M2.22266 35C3.26428 34.9848 4.30596 34.9741 5.34766 34.9653C5.92773 34.9588 6.50781 34.9524 7.10547 34.9457C8.86822 34.9994 10.4859 35.2603 12.2227 35.5555C13.7718 35.694 15.3226 35.7824 16.8754 35.868C17.2844 35.892 17.6933 35.916 18.1146 35.9407C19.1135 35.9991 20.1125 36.0553 21.1115 36.1111C21.1115 36.2944 21.1115 36.4778 21.1115 36.6667C15.2449 36.6667 9.37821 36.6667 3.33377 36.6667C4.98377 37.7667 4.98377 37.7667 6.6671 38.8889C6.87543 40.4167 6.87543 40.4167 6.6671 41.6667C6.48377 40.9333 6.30043 40.2 6.11155 39.4444C5.67613 39.3871 5.24071 39.3299 4.7921 39.2708C3.33377 38.8889 3.33377 38.8889 2.22266 37.2222C2.22266 36.4889 2.22266 35.7555 2.22266 35Z" fill="#D4EFD1"/>
<path d="M92.2221 65.5556C92.2221 67.6079 91.51 68.7658 90.5554 70.5556C90.1888 70.3722 89.8221 70.1889 89.4443 70C89.4443 69.6333 89.4443 69.2667 89.4443 68.8889C89.811 68.8889 90.1777 68.8889 90.5554 68.8889C90.5554 68.5222 90.5554 68.1556 90.5554 67.7778C90.0811 67.9133 90.0811 67.9133 89.5972 68.0516C88.3134 68.3377 87.2012 68.4003 85.888 68.3964C85.1709 68.3963 85.1709 68.3963 84.4392 68.3963C83.9281 68.3934 83.4171 68.3905 82.8905 68.3876C82.0999 68.3864 82.0999 68.3864 81.2933 68.3852C79.6121 68.3821 77.931 68.3751 76.2499 68.3681C75.1091 68.3653 73.9684 68.3627 72.8276 68.3605C70.0332 68.3543 67.2388 68.3448 64.4443 68.3333C64.4443 68.15 64.4443 67.9667 64.4443 67.7778C65.1279 67.7697 65.8115 67.7616 66.5157 67.7532C69.0671 67.7209 71.6181 67.678 74.1693 67.632C75.2706 67.6136 76.3719 67.598 77.4733 67.5853C79.0622 67.5666 80.6507 67.5375 82.2395 67.5065C82.9706 67.5012 82.9706 67.5012 83.7166 67.4958C86.9002 67.4208 89.298 66.8267 92.2221 65.5556Z" fill="#196237"/>
<path d="M2.77734 36.1111C9.27809 36.0225 15.7325 36.2977 22.2218 36.6667C22.2218 36.85 22.2218 37.0333 22.2218 37.2222C21.5785 37.2387 21.5785 37.2387 20.9223 37.2556C18.9826 37.3085 17.0432 37.3694 15.1037 37.4306C14.4288 37.4477 13.7538 37.4649 13.0584 37.4826C12.0889 37.5149 12.0889 37.5149 11.0998 37.5477C10.5034 37.5652 9.907 37.5827 9.29251 37.6006C7.6573 37.6755 7.6573 37.6755 6.11068 38.8889C4.9889 38.1644 3.87776 37.4232 2.77734 36.6667C2.77734 36.4833 2.77734 36.3 2.77734 36.1111Z" fill="#196237"/>
<path d="M37.778 28.8889C38.1447 28.8889 38.5113 28.8889 38.8891 28.8889C37.977 31.5423 36.5194 33.7743 35.0002 36.1111C33.3683 35.9028 33.3683 35.9028 31.6669 35.5556C31.4836 35.1889 31.3002 34.8222 31.1113 34.4444C31.6613 33.7111 32.2113 32.9778 32.778 32.2222C32.778 32.5889 32.778 32.9556 32.778 33.3333C34.4154 33.2768 34.4154 33.2768 36.1113 32.7778C36.8905 31.4549 36.8905 31.4549 37.2224 30C37.4058 29.6333 37.5891 29.2667 37.778 28.8889Z" fill="#196237"/>
<path d="M13.8891 74.4444C13.8698 75.5101 13.8698 75.5101 13.85 76.5972C13.8396 77.5463 13.8295 78.4954 13.8197 79.4444C13.8104 79.9107 13.801 80.3769 13.7914 80.8572C13.7677 83.9181 14.1363 86.5058 15.0002 89.4444C14.6336 89.4444 14.2669 89.4444 13.8891 89.4444C12.7428 86.3983 12.5592 83.6312 12.4134 80.4058C12.3189 79.6549 12.3189 79.6549 12.2224 78.8889C11.8558 78.7056 11.4891 78.5222 11.1113 78.3333C11.4457 77.2109 11.8186 76.0994 12.2224 75C13.3336 74.4444 13.3336 74.4444 13.8891 74.4444Z" fill="#E1F8E4"/>
<path d="M75.5555 38.8889C75.5555 39.2556 75.5555 39.6222 75.5555 40C73.914 41.5243 73.4585 41.6667 71.1111 41.6667C71.1111 42.2167 71.1111 42.7667 71.1111 43.3333C70.5611 43.6083 70.5611 43.6083 70 43.8889C70.1833 44.8056 70.3666 45.7222 70.5555 46.6667C70.0055 46.6667 69.4555 46.6667 68.8889 46.6667C67.7777 45 67.7777 45 67.7973 43.9149C68.5924 42.2282 69.7783 41.6535 71.3541 40.6944C71.9034 40.3536 72.4527 40.0127 73.0186 39.6615C74.4444 38.8889 74.4444 38.8889 75.5555 38.8889Z" fill="#196237"/>
<path d="M42.7773 3.88888C47.7997 3.79312 52.771 4.09268 57.7773 4.44444C57.7773 4.62777 57.7773 4.8111 57.7773 4.99999C53.744 4.99999 49.7107 4.99999 45.5551 4.99999C45.5551 5.36666 45.5551 5.73333 45.5551 6.1111C45.9218 6.1111 46.2885 6.1111 46.6662 6.1111C46.4829 6.47777 46.2996 6.84444 46.1107 7.22221C44.9882 6.31016 43.8771 5.38382 42.7773 4.44444C42.7773 4.2611 42.7773 4.07777 42.7773 3.88888Z" fill="#196237"/>
<path d="M26.6669 46.6667C27.9951 48.2955 28.8008 49.8452 29.5488 51.8056C29.74 52.3011 29.9313 52.7967 30.1283 53.3073C30.2693 53.6826 30.4104 54.0578 30.5558 54.4444C29.2724 54.0778 27.9891 53.7111 26.6669 53.3333C26.4836 52.6 26.3002 51.8667 26.1113 51.1111C26.478 50.9278 26.8447 50.7444 27.2224 50.5556C27.0391 49.2722 26.8558 47.9889 26.6669 46.6667Z" fill="#196237"/>
<path d="M74.4443 55C75.7638 55.3472 75.7638 55.3472 77.2221 56.1111C77.8471 57.6736 77.8471 57.6736 78.3332 59.4444C78.7973 60.1835 78.7973 60.1835 79.2707 60.9375C79.5114 61.3615 79.752 61.7854 79.9999 62.2222C79.8166 62.7722 79.6332 63.3222 79.4443 63.8889C78.6095 62.5124 77.7764 61.135 76.9443 59.7569C76.7059 59.3641 76.4674 58.9713 76.2217 58.5666C74.4443 55.6185 74.4443 55.6185 74.4443 55Z" fill="#196237"/>
<path d="M75 31.6667C75.1833 32.0333 75.3667 32.4 75.5556 32.7778C75 33.8889 75 33.8889 73.8889 35C70.6938 35.3249 68.0687 34.7657 65 33.8889C65 33.7056 65 33.5222 65 33.3333C65.6288 33.3527 66.2576 33.372 66.9054 33.3919C67.7286 33.4076 68.5518 33.4227 69.375 33.4375C69.7896 33.4515 70.2043 33.4654 70.6315 33.4798C71.979 33.5166 71.979 33.5166 73.8889 33.3333C74.2556 32.7833 74.6222 32.2333 75 31.6667Z" fill="#196237"/>
<path d="M17.2221 18.8889C17.4054 19.4389 17.5888 19.9889 17.7777 20.5556C17.0138 21.6667 17.0138 21.6667 16.111 22.7778C15.9277 23.3278 15.7443 23.8778 15.5554 24.4444C16.2888 24.4444 17.0221 24.4444 17.7777 24.4444C19.0277 25.5556 19.0277 25.5556 19.9999 26.6667C19.8166 27.0333 19.6332 27.4 19.4443 27.7778C17.7943 26.6778 16.1443 25.5778 14.4443 24.4444C15.0865 22.271 15.7529 20.6253 17.2221 18.8889Z" fill="#196237"/>
<path d="M42.2222 3.88889C43.6889 4.98889 45.1556 6.08889 46.6667 7.22222C46.1167 7.49722 46.1167 7.49722 45.5556 7.77777C45.1889 7.59444 44.8222 7.41111 44.4444 7.22222C44.2611 7.58889 44.0778 7.95555 43.8889 8.33333C42.6056 7.23333 41.3222 6.13333 40 5C40.7333 4.63333 41.4667 4.26666 42.2222 3.88889Z" fill="#D8F1D7"/>
<path d="M61.6666 91.1111C62.2166 91.2944 62.7666 91.4778 63.3332 91.6667C63.1499 93.5 62.9666 95.3333 62.7777 97.2222C61.1509 95.5954 60.4041 94.2789 59.4443 92.2222C59.9943 92.4056 60.5443 92.5889 61.111 92.7778C61.2943 92.2278 61.4777 91.6778 61.6666 91.1111Z" fill="#196237"/>
<path d="M89.4442 31.6667C90.8312 32.9194 91.0879 33.5517 91.2151 35.4167C91.1807 35.8292 91.1463 36.2417 91.1109 36.6667C89.9329 35.2138 88.8159 33.7798 87.7776 32.2222C86.4522 32.5421 85.1849 32.9013 83.8887 33.3333C83.8887 32.7833 83.8887 32.2333 83.8887 31.6667C85.9969 30.9639 87.2907 31.1667 89.4442 31.6667Z" fill="#196237"/>
<path d="M0 48.3333C0.733333 48.3333 1.46667 48.3333 2.22222 48.3333C2.03889 48.7573 1.85556 49.1812 1.66667 49.6181C0.922524 52.3621 1.02062 54.9526 1.11111 57.7778C0.744444 57.7778 0.377778 57.7778 0 57.7778C0 54.6611 0 51.5444 0 48.3333Z" fill="#D5F3D4"/>
<path d="M14.4442 73.8889C14.6276 73.8889 14.8109 73.8889 14.9998 73.8889C15.0147 74.8032 15.0255 75.7176 15.0345 76.6319C15.041 77.1411 15.0474 77.6503 15.054 78.1749C14.9998 79.4444 14.9998 79.4444 14.4442 80C14.3154 80.8415 14.2153 81.6875 14.1317 82.5347C14.0852 82.9938 14.0386 83.4528 13.9907 83.9258C13.957 84.2803 13.9234 84.6348 13.8887 85C13.7053 85 13.522 85 13.3331 85C13.3029 83.7733 13.2815 82.5464 13.2637 81.3194C13.2508 80.6362 13.2379 79.953 13.2246 79.2491C13.3314 77.2538 13.7206 75.7408 14.4442 73.8889Z" fill="#196237"/>
<path d="M2.22266 35.5556C3.50599 35.5556 4.78932 35.5556 6.11154 35.5556C6.11154 35.7389 6.11154 35.9222 6.11154 36.1111C5.19488 36.2944 4.27821 36.4778 3.33377 36.6667C3.88377 36.976 4.43377 37.2854 5.00043 37.6042C6.6671 38.8889 6.6671 38.8889 6.87543 40.4167C6.80668 40.8292 6.73793 41.2417 6.6671 41.6667C6.48377 40.9333 6.30043 40.2 6.11154 39.4444C5.67613 39.3872 5.24071 39.3299 4.7921 39.2708C3.33377 38.8889 3.33377 38.8889 2.22266 37.2222C2.22266 36.6722 2.22266 36.1222 2.22266 35.5556Z" fill="#196237"/>
<path d="M62.2221 62.7778C62.4054 62.7778 62.5888 62.7778 62.7777 62.7778C62.961 64.4278 63.1443 66.0778 63.3332 67.7778C62.7832 67.7778 62.2332 67.7778 61.6666 67.7778C61.6666 67.4111 61.6666 67.0444 61.6666 66.6667C61.2999 66.6667 60.9332 66.6667 60.5554 66.6667C60.5554 67.0333 60.5554 67.4 60.5554 67.7778C60.1888 67.5944 59.8221 67.4111 59.4443 67.2222C59.8933 66.48 60.3452 65.7396 60.7985 65C61.0499 64.5875 61.3012 64.175 61.5602 63.75C61.7786 63.4292 61.9971 63.1083 62.2221 62.7778Z" fill="#196237"/>
<path d="M56.6664 30.5556C56.8498 30.9222 57.0331 31.2889 57.222 31.6667C58.6551 32.0505 58.6551 32.0505 60.3123 32.2917C60.8745 32.3848 61.4366 32.4779 62.0158 32.5738C62.6679 32.6748 62.6679 32.6748 63.3331 32.7778C63.3331 32.9611 63.3331 33.1444 63.3331 33.3333C60.2164 33.15 57.0998 32.9667 53.8887 32.7778C55.5553 31.1111 55.5553 31.1111 56.6664 30.5556Z" fill="#196237"/>
<path d="M98.8888 55.5556C99.2554 55.7389 99.6221 55.9222 99.9999 56.1111C98.5753 58.4327 97.2114 60.0695 94.9999 61.6667C94.8166 61.1167 94.6332 60.5667 94.4443 60C94.7881 59.9542 95.1318 59.9083 95.486 59.8611C96.7501 59.556 96.7501 59.556 97.2916 58.4028C97.452 58.0132 97.6124 57.6236 97.7777 57.2222C98.1443 56.6722 98.511 56.1222 98.8888 55.5556Z" fill="#196237"/>
<path d="M11.6666 72.7778C12.0332 72.7778 12.3999 72.7778 12.7777 72.7778C12.411 74.6111 12.0443 76.4444 11.6666 78.3333C10.5554 77.7778 10.5554 77.7778 9.93045 76.0764C9.77003 75.5378 9.60961 74.9993 9.44434 74.4444C10.1777 74.6278 10.911 74.8111 11.6666 75C11.6666 74.2667 11.6666 73.5333 11.6666 72.7778Z" fill="#196237"/>
<path d="M92.2218 65.5556C92.2218 67.6079 91.5097 68.7658 90.5551 70.5556C90.1885 70.3722 89.8218 70.1889 89.444 70C89.444 69.6333 89.444 69.2667 89.444 68.8889C89.8107 68.8889 90.1773 68.8889 90.5551 68.8889C90.5551 68.5222 90.5551 68.1556 90.5551 67.7778C89.6385 67.7778 88.7218 67.7778 87.7773 67.7778C89.2582 66.7905 90.5707 66.1803 92.2218 65.5556Z" fill="#196237"/>
<path d="M86.6667 65.5556C88.0417 66.1056 88.0417 66.1056 89.4444 66.6667C87.3685 68.0507 86.253 67.8925 83.7847 67.8472C83.0779 67.8372 82.3711 67.8272 81.6428 67.8168C80.8296 67.7975 80.8296 67.7975 80 67.7778C80 67.5944 80 67.4111 80 67.2222C80.5822 67.1814 80.5822 67.1814 81.1762 67.1398C81.6818 67.0982 82.1874 67.0567 82.7083 67.0139C83.2111 66.9752 83.7138 66.9365 84.2318 66.8967C85.6552 66.7802 85.6552 66.7802 86.6667 65.5556Z" fill="#196237"/>
<path d="M5.55599 42.2222C5.73932 42.2222 5.92266 42.2222 6.11155 42.2222C6.11155 43.1389 6.11155 44.0556 6.11155 45C5.56155 45.1833 5.01155 45.3667 4.44488 45.5556C4.32457 46.2087 4.32457 46.2087 4.20182 46.875C3.88932 48.3333 3.88932 48.3333 3.33377 49.4445C2.9671 49.4445 2.60043 49.4445 2.22266 49.4445C3.00761 46.7625 4.12807 44.6021 5.55599 42.2222Z" fill="#196237"/>
<path d="M30 34.4444C31.65 34.9944 33.3 35.5444 35 36.1111C35.1833 35.5611 35.3667 35.0111 35.5556 34.4444C35.7389 34.8111 35.9222 35.1778 36.1111 35.5556C35.9278 35.9222 35.7444 36.2889 35.5556 36.6667C33.6806 37.1181 33.6806 37.1181 31.6667 37.2222C30.5903 36.4931 30.5903 36.4931 30 35.5556C30 35.1889 30 34.8222 30 34.4444Z" fill="#196237"/>
<path d="M28.333 49.4444C28.883 49.6278 29.433 49.8111 29.9997 50C30.183 51.1 30.3663 52.2 30.5552 53.3333C30.9219 53.3333 31.2886 53.3333 31.6663 53.3333C31.6663 53.8833 31.6663 54.4333 31.6663 55C31.1163 54.8167 30.5663 54.6333 29.9997 54.4444C29.4723 53.2964 29.4723 53.2964 29.0622 51.9097C28.9225 51.4507 28.7829 50.9916 28.639 50.5187C28.538 50.1642 28.437 49.8097 28.333 49.4444Z" fill="#196237"/>
<path d="M77.2227 60.5556C78.8503 62.125 80.2792 63.7711 81.6671 65.5556C80.7504 65.3722 79.8338 65.1889 78.8893 65C78.8893 64.6333 78.8893 64.2667 78.8893 63.8889C78.5227 63.8889 78.156 63.8889 77.7782 63.8889C77.5949 62.7889 77.4115 61.6889 77.2227 60.5556Z" fill="#196237"/>
<path d="M92.2225 39.4444C93.7774 40.8488 94.6991 41.7801 95.0003 43.8889C93.3363 43.3342 92.6901 43.0479 91.667 41.6667C91.8406 40.4514 91.8406 40.4514 92.2225 39.4444Z" fill="#196237"/>
<path d="M75.5556 38.8889C75.5556 39.2556 75.5556 39.6222 75.5556 40C73.8494 41.6406 72.3148 41.9592 70 42.2222C71.4691 40.5985 73.2746 38.8889 75.5556 38.8889Z" fill="#196237"/>
<path d="M52.7773 19.4444C54.444 20 54.444 20 55.0929 21.148C55.2798 21.6056 55.4667 22.0632 55.6593 22.5347C55.8505 22.9938 56.0417 23.4528 56.2387 23.9258C56.3798 24.2803 56.5209 24.6348 56.6662 25C56.2996 25.3667 55.9329 25.7333 55.5551 26.1111C54.6385 23.9111 53.7218 21.7111 52.7773 19.4444Z" fill="#196237"/>
<path d="M91.6671 64.4444C91.6671 64.8111 91.6671 65.1778 91.6671 65.5556C91.3004 65.5556 90.9338 65.5556 90.556 65.5556C90.556 65.9222 90.556 66.2889 90.556 66.6667C89.456 66.6667 88.356 66.6667 87.2227 66.6667C88.7233 65.0978 89.4138 64.4444 91.6671 64.4444Z" fill="#196237"/>
<path d="M62.7773 62.7778C63.3273 62.9611 63.8773 63.1444 64.444 63.3333C64.444 64.6167 64.444 65.9 64.444 67.2222C63.894 67.2222 63.344 67.2222 62.7773 67.2222C62.7773 65.7555 62.7773 64.2889 62.7773 62.7778Z" fill="#196237"/>
<path d="M19.9998 59.4444C20.5498 59.6278 21.0998 59.8111 21.6664 60C20.942 61.1218 20.2008 62.2329 19.4442 63.3333C19.2609 63.3333 19.0776 63.3333 18.8887 63.3333C18.8887 62.2333 18.8887 61.1333 18.8887 60C19.2553 59.8167 19.622 59.6333 19.9998 59.4444Z" fill="#196237"/>
<path d="M80.5559 87.2222C78.542 88.8889 78.542 88.8889 76.667 88.8889C76.8503 88.3389 77.0337 87.7889 77.2225 87.2222C78.6064 86.5303 79.1174 86.7907 80.5559 87.2222Z" fill="#196237"/>
<path d="M86.1112 31.6667C87.1529 31.7014 87.1529 31.7014 88.3334 32.2222C89.3057 33.9236 89.3057 33.9236 90.0001 35.5556C89.6334 35.5556 89.2668 35.5556 88.889 35.5556C88.3256 34.8207 87.7708 34.0793 87.2223 33.3333C86.6723 32.9667 86.1223 32.6 85.5557 32.2222C85.739 32.0389 85.9223 31.8556 86.1112 31.6667Z" fill="#196237"/>
</g>
<defs>
<clipPath id="clip0_169_551">
<rect width="100" height="100" fill="white"/>
</clipPath>
</defs>
</svg>
